<svg width="18" height="18" viewBox="0 0 18 18" fill="none" xmlns="http://www.w3.org/2000/svg">
<path d="M18 16V14.354C17.9994 13.9548 17.8794 13.5649 17.6554 13.2345C17.4314 12.9041 17.1136 12.6483 16.743 12.5L14.709 11.686C14.2432 11.4995 13.7244 11.4949 13.2554 11.6731C12.7864 11.8513 12.4015 12.1993 12.177 12.648L12 13C10.3037 12.5834 8.74989 11.7202 7.5 10.5C6.27984 9.25011 5.41662 7.6963 5 6L5.354 5.823C5.80289 5.59872 6.15107 5.21389 6.32945 4.74486C6.50783 4.27584 6.50339 3.7569 6.317 3.291L5.5 1.257C5.3517 0.88638 5.09589 0.568616 4.76548 0.344602C4.43507 0.120588 4.04519 0.000572184 3.646 0L2 0C1.46957 0 0.960859 0.210714 0.585786 0.585786C0.210714 0.960859 0 1.46957 0 2C0 6.24346 1.68571 10.3131 4.68629 13.3137C7.68687 16.3143 11.7565 18 16 18C16.5304 18 17.0391 17.7893 17.4142 17.4142C17.7893 17.0391 18 16.5304 18 16Z" fill="#28303F"/>
</svg>
