<svg width="19" height="19" viewBox="0 0 19 19" fill="none" xmlns="http://www.w3.org/2000/svg">
<path d="M3.16665 16.625C2.73123 16.625 2.35862 16.4701 2.04881 16.1603C1.73848 15.85 1.58331 15.4771 1.58331 15.0417V5.54167C1.58331 5.10626 1.73848 4.73364 2.04881 4.42384C2.35862 4.1135 2.73123 3.95834 3.16665 3.95834H5.6604L7.12498 2.37501H11.875V3.95834H7.81769L6.3729 5.54167H3.16665V15.0417H15.8333V6.33334H17.4166V15.0417C17.4166 15.4771 17.2617 15.85 16.9519 16.1603C16.6416 16.4701 16.2687 16.625 15.8333 16.625H3.16665ZM16.3479 5.54167C16.3479 4.51251 15.9916 3.64167 15.2791 2.92917C14.5666 2.21667 13.6958 1.86042 12.6666 1.86042V0.791672C13.9861 0.791672 15.1076 1.25348 16.0312 2.17709C16.9548 3.1007 17.4166 4.22223 17.4166 5.54167H16.3479ZM14.25 5.54167C14.25 5.10626 14.0951 4.73364 13.7853 4.42384C13.4749 4.1135 13.1021 3.95834 12.6666 3.95834V2.88959C13.3923 2.88959 14.009 3.14688 14.5168 3.66146C15.025 4.17605 15.2923 4.80278 15.3187 5.54167H14.25ZM9.49998 13.8542C10.4896 13.8542 11.3308 13.5079 12.0238 12.8155C12.7163 12.1225 13.0625 11.2813 13.0625 10.2917C13.0625 9.30209 12.7163 8.46081 12.0238 7.76784C11.3308 7.07539 10.4896 6.72917 9.49998 6.72917C8.5104 6.72917 7.66912 7.07539 6.97615 7.76784C6.2837 8.46081 5.93748 9.30209 5.93748 10.2917C5.93748 11.2813 6.2837 12.1225 6.97615 12.8155C7.66912 13.5079 8.5104 13.8542 9.49998 13.8542ZM9.49998 12.2708C8.94581 12.2708 8.47741 12.0795 8.09477 11.6969C7.71213 11.3142 7.52081 10.8458 7.52081 10.2917C7.52081 9.7375 7.71213 9.2691 8.09477 8.88646C8.47741 8.50382 8.94581 8.3125 9.49998 8.3125C10.0541 8.3125 10.5225 8.50382 10.9052 8.88646C11.2878 9.2691 11.4791 9.7375 11.4791 10.2917C11.4791 10.8458 11.2878 11.3142 10.9052 11.6969C10.5225 12.0795 10.0541 12.2708 9.49998 12.2708Z" fill="white"/>
</svg>
