<svg xmlns="http://www.w3.org/2000/svg" width="42" height="42" fill="none" viewBox="0 0 42 42">
  <path fill="#34607B" fill-opacity=".15" d="M42 21c0 11.598-9.402 21-21 21S0 32.598 0 21 9.402 0 21 0s21 9.402 21 21Z"/>
  <path fill="#34607B" fill-rule="evenodd" d="M22.586 11a2 2 0 0 1 1.414.586L28.414 16A2 2 0 0 1 29 17.414V29a2 2 0 0 1-2 2h-5a1 1 0 0 1 0-2h5V19h-4.5a1.5 1.5 0 0 1-1.5-1.5V13h-6v4a1 1 0 0 1-2 0v-4a2 2 0 0 1 2-2h7.586ZM16 19a4 4 0 0 1 3 6.646v4.192a1.1 1.1 0 0 1-1.592.984L16 30.118l-1.408.704A1.1 1.1 0 0 1 13 29.838v-4.192A4 4 0 0 1 16 19Zm1 7.874a4.01 4.01 0 0 1-2 0v1.508l.553-.276a1 1 0 0 1 .894 0l.553.276v-1.508ZM16 21a2 2 0 1 0 0 4 2 2 0 0 0 0-4Zm7-7.586V17h3.586L23 13.414Z" clip-rule="evenodd"/>
</svg>
