<svg width="20" height="18" viewBox="0 0 20 18" fill="none" xmlns="http://www.w3.org/2000/svg">
<path fill-rule="evenodd" clip-rule="evenodd" d="M9 0H11C13.3869 0 15.6761 0.948212 17.364 2.63604C19.0518 4.32387 20 6.61305 20 9C20 11.3869 19.0518 13.6761 17.364 15.364C15.6761 17.0518 13.3869 18 11 18H4C2.93913 18 1.92172 17.5786 1.17157 16.8284C0.421427 16.0783 0 15.0609 0 14V9C0 6.61305 0.948212 4.32387 2.63604 2.63604C4.32387 0.948212 6.61305 0 9 0V0ZM10 10C10.1978 10 10.3911 9.94135 10.5556 9.83147C10.72 9.72159 10.8482 9.56541 10.9239 9.38268C10.9996 9.19996 11.0194 8.99889 10.9808 8.80491C10.9422 8.61093 10.847 8.43275 10.7071 8.29289C10.5673 8.15304 10.3891 8.0578 10.1951 8.01921C10.0011 7.98063 9.80004 8.00043 9.61732 8.07612C9.43459 8.15181 9.27841 8.27998 9.16853 8.44443C9.05865 8.60888 9 8.80222 9 9C9 9.26522 9.10536 9.51957 9.29289 9.70711C9.48043 9.89464 9.73478 10 10 10ZM15 9C15 9.19778 14.9414 9.39112 14.8315 9.55557C14.7216 9.72002 14.5654 9.84819 14.3827 9.92388C14.2 9.99957 13.9989 10.0194 13.8049 9.98079C13.6109 9.9422 13.4327 9.84696 13.2929 9.70711C13.153 9.56725 13.0578 9.38907 13.0192 9.19509C12.9806 9.00111 13.0004 8.80004 13.0761 8.61732C13.1518 8.43459 13.28 8.27841 13.4444 8.16853C13.6089 8.05865 13.8022 8 14 8C14.2652 8 14.5196 8.10536 14.7071 8.29289C14.8946 8.48043 15 8.73478 15 9ZM6 10C6.19778 10 6.39112 9.94135 6.55557 9.83147C6.72002 9.72159 6.84819 9.56541 6.92388 9.38268C6.99957 9.19996 7.01937 8.99889 6.98079 8.80491C6.9422 8.61093 6.84696 8.43275 6.70711 8.29289C6.56725 8.15304 6.38907 8.0578 6.19509 8.01921C6.00111 7.98063 5.80004 8.00043 5.61732 8.07612C5.43459 8.15181 5.27841 8.27998 5.16853 8.44443C5.05865 8.60888 5 8.80222 5 9C5 9.26522 5.10536 9.51957 5.29289 9.70711C5.48043 9.89464 5.73478 10 6 10Z" fill="#28303F"/>
</svg>
