<svg width="16" height="11" viewBox="0 0 16 11" fill="none" xmlns="http://www.w3.org/2000/svg">
<path d="M15.5017 0.443019C15.6496 0.576043 15.7385 0.762333 15.749 0.960923C15.7595 1.15951 15.6907 1.35415 15.5577 1.50202L7.81973 10.099C7.35034 10.6206 6.6993 10.9431 5.99992 11.0004C5.30053 11.0576 4.60571 10.8454 4.05773 10.407L0.531731 7.58602C0.452752 7.52521 0.386685 7.44928 0.337392 7.36264C0.288099 7.27601 0.256569 7.18042 0.244644 7.08146C0.23272 6.98251 0.24064 6.88216 0.267942 6.7863C0.295245 6.69044 0.341381 6.60098 0.403655 6.52316C0.465929 6.44533 0.543091 6.3807 0.630632 6.33304C0.718173 6.28538 0.814335 6.25564 0.9135 6.24557C1.01266 6.23551 1.11284 6.24531 1.20817 6.2744C1.30351 6.30349 1.39209 6.3513 1.46873 6.41502L4.99473 9.23502C5.24381 9.43426 5.55964 9.53075 5.87754 9.50472C6.19545 9.47869 6.49137 9.33212 6.70473 9.09502L14.4427 0.495019C14.5763 0.347755 14.7629 0.259556 14.9615 0.249805C15.16 0.240054 15.3544 0.30955 15.5017 0.443019Z" fill="#28303F"/>
</svg>
