<svg width="20" height="18" viewBox="0 0 20 18" fill="none" xmlns="http://www.w3.org/2000/svg">
<path fill-rule="evenodd" clip-rule="evenodd" d="M4 0C2.93913 0 1.92172 0.421427 1.17157 1.17157C0.421427 1.92172 0 2.93913 0 4L0 14C0 15.0609 0.421427 16.0783 1.17157 16.8284C1.92172 17.5786 2.93913 18 4 18H16C17.0609 18 18.0783 17.5786 18.8284 16.8284C19.5786 16.0783 20 15.0609 20 14V4C20 2.93913 19.5786 1.92172 18.8284 1.17157C18.0783 0.421427 17.0609 0 16 0L4 0ZM4.416 4.376C4.25049 4.26827 4.04917 4.23016 3.85573 4.26996C3.6623 4.30975 3.49237 4.42423 3.38282 4.58855C3.27328 4.75287 3.23296 4.95376 3.27063 5.14762C3.30829 5.34148 3.4209 5.51266 3.584 5.624L7.365 8.145C8.14531 8.66525 9.06216 8.94288 10 8.94288C10.9378 8.94288 11.8547 8.66525 12.635 8.145L16.416 5.624C16.5791 5.51266 16.6917 5.34148 16.7294 5.14762C16.767 4.95376 16.7267 4.75287 16.6172 4.58855C16.5076 4.42423 16.3377 4.30975 16.1443 4.26996C15.9508 4.23016 15.7495 4.26827 15.584 4.376L11.8 6.9C11.2667 7.25474 10.6405 7.44399 10 7.44399C9.3595 7.44399 8.73329 7.25474 8.2 6.9L4.416 4.376Z" fill="#28303F"/>
</svg>
