<svg width="18" height="16" viewBox="0 0 18 16" fill="none" xmlns="http://www.w3.org/2000/svg">
<path d="M7.99977 16C7.71643 16 7.47877 15.904 7.28677 15.712C7.09477 15.52 6.9991 15.2827 6.99977 15V9L1.19977 1.6C0.949765 1.26667 0.912099 0.916667 1.08677 0.55C1.26143 0.183334 1.56577 0 1.99977 0H15.9998C16.4331 0 16.7374 0.183334 16.9128 0.55C17.0881 0.916667 17.0504 1.26667 16.7998 1.6L10.9998 9V15C10.9998 15.2833 10.9038 15.521 10.7118 15.713C10.5198 15.905 10.2824 16.0007 9.99977 16H7.99977Z" fill="#34607B"/>
</svg>
