<svg width="67" height="67" viewBox="0 0 67 67" fill="none" xmlns="http://www.w3.org/2000/svg">
<path d="M35.3845 24.2177C34.8727 23.7059 34.2324 23.4612 33.4638 23.4835C32.6952 23.5058 32.0559 23.7738 31.5459 24.2875C31.0341 24.7993 30.7782 25.4507 30.7782 26.2417C30.7782 27.0326 31.0341 27.684 31.5459 28.1958L34.0584 30.7083L25.0553 30.7083C24.2643 30.7083 23.6129 30.9754 23.1011 31.5095C22.5893 32.0437 22.3334 32.7072 22.3334 33.5C22.3334 34.291 22.6014 34.9535 23.1374 35.4877C23.6734 36.0218 24.336 36.2898 25.1251 36.2917L34.0584 36.2917L31.4761 38.874C30.9643 39.3858 30.7196 40.026 30.7419 40.7946C30.7642 41.5633 31.0322 42.2026 31.5459 42.7125C32.0577 43.2243 32.7091 43.4802 33.5001 43.4802C34.2911 43.4802 34.9424 43.2243 35.4542 42.7125L42.7126 35.4542C43.2709 34.8958 43.5501 34.2444 43.5501 33.5C43.5501 32.7556 43.2709 32.1042 42.7126 31.5458L35.3845 24.2177ZM33.5001 5.58334C37.3619 5.58334 40.9911 6.31662 44.3876 7.78317C47.7841 9.24973 50.7386 11.2383 53.2511 13.749C55.7636 16.2615 57.7522 19.216 59.2169 22.6125C60.6816 26.009 61.4149 29.6382 61.4168 33.5C61.4168 37.3618 60.6835 40.991 59.2169 44.3875C57.7504 47.784 55.7618 50.7385 53.2511 53.251C50.7386 55.7635 47.7841 57.7521 44.3876 59.2168C40.9911 60.6815 37.3619 61.4148 33.5001 61.4167C29.6383 61.4167 26.0091 60.6834 22.6126 59.2168C19.216 57.7503 16.2615 55.7617 13.749 53.251C11.2365 50.7385 9.24701 47.784 7.78045 44.3875C6.3139 40.991 5.58155 37.3618 5.58341 33.5C5.58341 29.6382 6.31669 26.009 7.78324 22.6125C9.2498 19.216 11.2384 16.2615 13.749 13.749C16.2615 11.2365 19.2161 9.24694 22.6126 7.78038C26.0091 6.31383 29.6383 5.58148 33.5001 5.58334ZM33.5001 11.1667C27.3119 11.1667 22.0421 13.3414 17.6909 17.6908C13.3396 22.0402 11.1649 27.3099 11.1667 33.5C11.1667 39.6882 13.3415 44.9579 17.6909 49.3092C22.0403 53.6605 27.31 55.8352 33.5001 55.8333C39.6883 55.8333 44.958 53.6586 49.3093 49.3092C53.6606 44.9598 55.8353 39.6901 55.8334 33.5C55.8334 27.3118 53.6587 22.0421 49.3093 17.6908C44.9599 13.3395 39.6901 11.1648 33.5001 11.1667Z" fill="#34607B"/>
</svg>
