<svg width="18" height="17" viewBox="0 0 18 17" fill="none" xmlns="http://www.w3.org/2000/svg">
<path d="M10.667 1.91666V3.58332H13.5837V1.91666H10.667ZM9.41699 1.70832C9.41699 1.13332 9.88366 0.666656 10.4587 0.666656H13.792C14.367 0.666656 14.8337 1.13332 14.8337 1.70832V3.79166C14.8337 4.36666 14.367 4.83332 13.792 4.83332H10.4587C9.88366 4.83332 9.41699 4.36666 9.41699 3.79166V1.70832ZM11.6837 6.26666C11.8008 6.14961 11.9597 6.08387 12.1253 6.08387C12.291 6.08387 12.4498 6.14961 12.567 6.26666L14.6503 8.34999C14.7117 8.40721 14.761 8.47621 14.7951 8.55287C14.8293 8.62954 14.8477 8.7123 14.8492 8.79622C14.8506 8.88014 14.8352 8.9635 14.8038 9.04132C14.7723 9.11914 14.7255 9.18984 14.6662 9.24919C14.6068 9.30854 14.5361 9.35532 14.4583 9.38676C14.3805 9.41819 14.2971 9.43363 14.2132 9.43215C14.1293 9.43067 14.0465 9.4123 13.9699 9.37814C13.8932 9.34398 13.8242 9.29473 13.767 9.23332L12.7503 8.21666V13.7917C12.7503 13.9574 12.6845 14.1164 12.5673 14.2336C12.4501 14.3508 12.2911 14.4167 12.1253 14.4167C11.9596 14.4167 11.8006 14.3508 11.6834 14.2336C11.5662 14.1164 11.5003 13.9574 11.5003 13.7917V8.21666L10.4837 9.23332C10.4264 9.29473 10.3574 9.34398 10.2808 9.37814C10.2041 9.4123 10.1213 9.43067 10.0374 9.43215C9.95351 9.43363 9.87015 9.41819 9.79233 9.38676C9.7145 9.35532 9.64381 9.30854 9.58446 9.24919C9.52511 9.18984 9.47832 9.11914 9.44689 9.04132C9.41546 8.9635 9.40002 8.88014 9.4015 8.79622C9.40298 8.7123 9.42135 8.62954 9.45551 8.55287C9.48967 8.47621 9.53892 8.40721 9.60033 8.34999L11.6837 6.26666ZM4.41699 11.5V13.1667H7.33366V11.5H4.41699ZM3.16699 11.2917C3.16699 10.7167 3.63366 10.25 4.20866 10.25H7.54199C8.11699 10.25 8.58366 10.7167 8.58366 11.2917V13.375C8.58366 13.95 8.11699 14.4167 7.54199 14.4167H4.20866C3.63366 14.4167 3.16699 13.95 3.16699 13.375V11.2917ZM1.29199 12.3333C1.45775 12.3333 1.61672 12.3992 1.73393 12.5164C1.85114 12.6336 1.91699 12.7926 1.91699 12.9583V14.625C1.91699 15.2 2.38366 15.6667 2.95866 15.6667H15.042C15.617 15.6667 16.0837 15.2 16.0837 14.625V12.9583C16.0837 12.7926 16.1495 12.6336 16.2667 12.5164C16.3839 12.3992 16.5429 12.3333 16.7087 12.3333C16.8744 12.3333 17.0334 12.3992 17.1506 12.5164C17.2678 12.6336 17.3337 12.7926 17.3337 12.9583V14.625C17.3337 15.2328 17.0922 15.8157 16.6624 16.2454C16.2327 16.6752 15.6498 16.9167 15.042 16.9167H2.95866C2.35087 16.9167 1.76798 16.6752 1.33821 16.2454C0.908435 15.8157 0.666992 15.2328 0.666992 14.625V12.9583C0.666992 12.7926 0.73284 12.6336 0.85005 12.5164C0.967261 12.3992 1.12623 12.3333 1.29199 12.3333Z" fill="#34607B"/>
</svg>
