<svg width="47" height="47" viewBox="0 0 47 47" fill="none" xmlns="http://www.w3.org/2000/svg">
<path d="M41.0077 21.5417C40.5641 17.5704 38.7833 13.868 35.9577 11.0425C33.1322 8.21688 29.4298 6.4361 25.4585 5.99251V1.95834H21.5418V5.99251C19.3289 6.22751 17.2531 6.89334 15.3535 7.89209L18.291 10.8296C20.3723 9.97198 22.6328 9.64048 24.8727 9.86441C27.1125 10.0883 29.2627 10.8608 31.133 12.1135C33.0033 13.3661 34.536 15.0604 35.5957 17.0464C36.6554 19.0324 37.2093 21.249 37.2085 23.5C37.2085 25.3408 36.8364 27.1033 36.1902 28.6896L39.1277 31.6271C40.1068 29.7471 40.7727 27.6713 41.0272 25.4583H45.0418V21.5417H41.0077ZM5.87516 8.36209L9.87016 12.3571C7.71233 14.9766 6.36487 18.1683 5.99266 21.5417H1.9585V25.4583H5.99266C6.43625 29.4296 8.21703 33.132 11.0426 35.9576C13.8682 38.7831 17.5706 40.5639 21.5418 41.0075V45.0417H25.4585V41.0075C28.9247 40.6158 32.0777 39.2254 34.6431 37.13L38.6381 41.125L41.1252 38.6379L8.36225 5.87501L5.87516 8.36209ZM31.8622 34.3492C29.2259 36.3793 25.9407 37.3805 22.6202 37.1657C19.2997 36.951 16.1709 35.5349 13.8181 33.1821C11.4652 30.8292 10.0492 27.7004 9.83444 24.3799C9.61967 21.0594 10.6208 17.7743 12.651 15.1379L31.8622 34.3492Z" fill="#34607B"/>
</svg>
