<svg width="28" height="28" viewBox="0 0 28 28" fill="none" xmlns="http://www.w3.org/2000/svg">
<path d="M14.1168 21.6417L14.0002 21.7583L13.8718 21.6417C8.33016 16.6133 4.66683 13.2883 4.66683 9.91667C4.66683 7.58333 6.41683 5.83333 8.75016 5.83333C10.5468 5.83333 12.2968 7 12.9152 8.58667H15.0852C15.7035 7 17.4535 5.83333 19.2502 5.83333C21.5835 5.83333 23.3335 7.58333 23.3335 9.91667C23.3335 13.2883 19.6702 16.6133 14.1168 21.6417ZM19.2502 3.5C17.2202 3.5 15.2718 4.445 14.0002 5.92667C12.7285 4.445 10.7802 3.5 8.75016 3.5C5.15683 3.5 2.3335 6.31167 2.3335 9.91667C2.3335 14.315 6.30016 17.92 12.3085 23.3683L14.0002 24.9083L15.6918 23.3683C21.7002 17.92 25.6668 14.315 25.6668 9.91667C25.6668 6.31167 22.8435 3.5 19.2502 3.5Z" fill="black"/>
</svg>
