<svg width="22" height="22" viewBox="0 0 22 22" fill="none" xmlns="http://www.w3.org/2000/svg">
<path opacity="0.4" d="M11 0.25C11.1989 0.25 11.3897 0.329018 11.5303 0.46967C11.671 0.610322 11.75 0.801088 11.75 1V4C11.75 4.19891 11.671 4.38968 11.5303 4.53033C11.3897 4.67098 11.1989 4.75 11 4.75C10.8011 4.75 10.6103 4.67098 10.4697 4.53033C10.329 4.38968 10.25 4.19891 10.25 4V1C10.25 0.801088 10.329 0.610322 10.4697 0.46967C10.6103 0.329018 10.8011 0.25 11 0.25V0.25Z" fill="#28303F"/>
<path opacity="0.4" d="M11 17.25C11.1989 17.25 11.3897 17.329 11.5303 17.4697C11.671 17.6103 11.75 17.8011 11.75 18V21C11.75 21.1989 11.671 21.3897 11.5303 21.5303C11.3897 21.671 11.1989 21.75 11 21.75C10.8011 21.75 10.6103 21.671 10.4697 21.5303C10.329 21.3897 10.25 21.1989 10.25 21V18C10.25 17.8011 10.329 17.6103 10.4697 17.4697C10.6103 17.329 10.8011 17.25 11 17.25V17.25Z" fill="#28303F"/>
<path opacity="0.4" d="M3.39849 3.39863C3.53915 3.25797 3.72991 3.17896 3.92882 3.17896C4.12774 3.17896 4.3185 3.25797 4.45915 3.39863L6.58047 5.51995C6.72113 5.6606 6.80014 5.85136 6.80014 6.05028C6.80014 6.24919 6.72113 6.43995 6.58047 6.58061C6.43982 6.72126 6.24906 6.80028 6.05014 6.80028C5.85123 6.80028 5.66047 6.72126 5.51981 6.58061L3.39849 4.45929C3.25784 4.31863 3.17882 4.12787 3.17882 3.92896C3.17882 3.73004 3.25784 3.53928 3.39849 3.39863V3.39863Z" fill="#28303F"/>
<path opacity="0.4" d="M15.4195 15.4196C15.5601 15.279 15.7509 15.2 15.9498 15.2C16.1487 15.2 16.3395 15.279 16.4802 15.4196L18.6015 17.5409C18.7421 17.6816 18.8211 17.8724 18.8211 18.0713C18.8211 18.2702 18.7421 18.4609 18.6015 18.6016C18.4608 18.7423 18.2701 18.8213 18.0711 18.8213C17.8722 18.8213 17.6815 18.7423 17.5408 18.6016L15.4195 16.4803C15.2788 16.3396 15.1998 16.1489 15.1998 15.95C15.1998 15.751 15.2788 15.5603 15.4195 15.4196V15.4196Z" fill="#28303F"/>
<path opacity="0.4" d="M21.75 11C21.75 11.1989 21.671 11.3897 21.5303 11.5303C21.3897 11.671 21.1989 11.75 21 11.75H18C17.8011 11.75 17.6103 11.671 17.4697 11.5303C17.329 11.3897 17.25 11.1989 17.25 11C17.25 10.8011 17.329 10.6103 17.4697 10.4697C17.6103 10.329 17.8011 10.25 18 10.25H21C21.1989 10.25 21.3897 10.329 21.5303 10.4697C21.671 10.6103 21.75 10.8011 21.75 11V11Z" fill="#28303F"/>
<path opacity="0.4" d="M4.75 11C4.75 11.1989 4.67098 11.3897 4.53033 11.5303C4.38968 11.671 4.19891 11.75 4 11.75H1C0.801088 11.75 0.610322 11.671 0.46967 11.5303C0.329018 11.3897 0.25 11.1989 0.25 11C0.25 10.8011 0.329018 10.6103 0.46967 10.4697C0.610322 10.329 0.801088 10.25 1 10.25H4C4.19891 10.25 4.38968 10.329 4.53033 10.4697C4.67098 10.6103 4.75 10.8011 4.75 11V11Z" fill="#28303F"/>
<path d="M18.6011 3.39837C18.7418 3.53902 18.8208 3.72979 18.8208 3.9287C18.8208 4.12761 18.7418 4.31838 18.6011 4.45903L16.4798 6.58035C16.3392 6.721 16.1484 6.80002 15.9495 6.80002C15.7506 6.80002 15.5598 6.721 15.4192 6.58035C15.2785 6.4397 15.1995 6.24893 15.1995 6.05002C15.1995 5.85111 15.2785 5.66034 15.4192 5.51969L17.5405 3.39837C17.6811 3.25772 17.8719 3.1787 18.0708 3.1787C18.2697 3.1787 18.4605 3.25772 18.6011 3.39837V3.39837Z" fill="#28303F"/>
<path opacity="0.4" d="M6.58013 15.4194C6.72079 15.56 6.7998 15.7508 6.7998 15.9497C6.7998 16.1486 6.72079 16.3394 6.58013 16.48L4.45881 18.6013C4.31816 18.742 4.1274 18.821 3.92848 18.821C3.72957 18.821 3.53881 18.742 3.39815 18.6013C3.2575 18.4607 3.17848 18.2699 3.17848 18.071C3.17848 17.8721 3.2575 17.6813 3.39815 17.5407L5.51947 15.4194C5.66013 15.2787 5.85089 15.1997 6.0498 15.1997C6.24872 15.1997 6.43948 15.2787 6.58013 15.4194V15.4194Z" fill="#28303F"/>
</svg>
