<svg width="21" height="18" viewBox="0 0 21 18" fill="none" xmlns="http://www.w3.org/2000/svg">
<path fill-rule="evenodd" clip-rule="evenodd" d="M4.75 0.25C3.49022 0.25 2.28204 0.750445 1.39124 1.64124C0.500445 2.53204 0 3.74022 0 5L0 13C0 14.2598 0.500445 15.468 1.39124 16.3588C2.28204 17.2496 3.49022 17.75 4.75 17.75H12C13.2598 17.75 14.468 17.2496 15.3588 16.3588C16.2496 15.468 16.75 14.2598 16.75 13C16.75 12.8011 16.671 12.6103 16.5303 12.4697C16.3897 12.329 16.1989 12.25 16 12.25C15.8011 12.25 15.6103 12.329 15.4697 12.4697C15.329 12.6103 15.25 12.8011 15.25 13C15.25 13.862 14.9076 14.6886 14.2981 15.2981C13.6886 15.9076 12.862 16.25 12 16.25H7.464C8.29154 15.3704 8.75159 14.2077 8.75 13V5C8.75169 3.79227 8.29162 2.62958 7.464 1.75H12C12.862 1.75 13.6886 2.09241 14.2981 2.7019C14.9076 3.3114 15.25 4.13805 15.25 5C15.25 5.19891 15.329 5.38968 15.4697 5.53033C15.6103 5.67098 15.8011 5.75 16 5.75C16.1989 5.75 16.3897 5.67098 16.5303 5.53033C16.671 5.38968 16.75 5.19891 16.75 5C16.75 3.74022 16.2496 2.53204 15.3588 1.64124C14.468 0.750445 13.2598 0.25 12 0.25L4.75 0.25ZM17.15 11.53C17.0803 11.4603 17.025 11.3776 16.9873 11.2866C16.9496 11.1956 16.9302 11.098 16.9302 10.9995C16.9302 10.901 16.9496 10.8034 16.9873 10.7124C17.025 10.6214 17.0803 10.5387 17.15 10.469L17.87 9.749H11.75C11.5511 9.749 11.3603 9.66998 11.2197 9.52933C11.079 9.38868 11 9.19791 11 8.999C11 8.80009 11.079 8.60932 11.2197 8.46867C11.3603 8.32802 11.5511 8.249 11.75 8.249H17.866L17.146 7.529C17.0724 7.46027 17.0134 7.37741 16.9725 7.28537C16.9315 7.19334 16.9096 7.094 16.9079 6.9933C16.9062 6.8926 16.9249 6.79259 16.9627 6.69923C17.0005 6.60588 17.0567 6.5211 17.128 6.44995C17.1993 6.3788 17.2842 6.32274 17.3776 6.2851C17.471 6.24747 17.571 6.22904 17.6717 6.23091C17.7724 6.23278 17.8717 6.25492 17.9637 6.29599C18.0557 6.33707 18.1384 6.39625 18.207 6.47L19.5 7.763C19.6625 7.9255 19.7914 8.11843 19.8794 8.33076C19.9674 8.54309 20.0126 8.77067 20.0126 9.0005C20.0126 9.23033 19.9674 9.45791 19.8794 9.67024C19.7914 9.88257 19.6625 10.0755 19.5 10.238L18.207 11.53C18.1374 11.5997 18.0546 11.655 17.9636 11.6927C17.8726 11.7304 17.775 11.7498 17.6765 11.7498C17.578 11.7498 17.4804 11.7304 17.3894 11.6927C17.2983 11.655 17.2157 11.5997 17.146 11.53H17.15Z" fill="#28303F"/>
</svg>
