<svg width="10" height="14" viewBox="0 0 10 14" fill="none" xmlns="http://www.w3.org/2000/svg">
<path d="M3.83366 11.6667H6.16699V11.0833H3.83366V11.6667ZM2.08366 13.4167C1.76283 13.4167 1.48808 13.3023 1.25941 13.0737C1.03074 12.845 0.916604 12.5704 0.916993 12.25V1.75C0.916993 1.42917 1.03133 1.15442 1.25999 0.92575C1.48866 0.697083 1.76322 0.582944 2.08366 0.583333H7.91699C8.23783 0.583333 8.51258 0.697666 8.74124 0.926333C8.96991 1.155 9.08405 1.42956 9.08366 1.75V12.25C9.08366 12.5708 8.96933 12.8456 8.74066 13.0743C8.51199 13.3029 8.23744 13.4171 7.91699 13.4167H2.08366ZM2.08366 10.5V12.25H7.91699V10.5H2.08366ZM2.08366 9.33333H7.91699V3.5H2.08366V9.33333ZM2.08366 2.33333H7.91699V1.75H2.08366V2.33333Z" fill="#34607B"/>
</svg>
