<svg width="10" height="10" viewBox="0 0 10 10" fill="none" xmlns="http://www.w3.org/2000/svg">
<path d="M8.7069 9.77303C8.84826 9.91439 9.03998 9.9938 9.2399 9.9938C9.43981 9.9938 9.63154 9.91439 9.7729 9.77303C9.91426 9.63167 9.99367 9.43994 9.99367 9.24003C9.99367 9.04011 9.91426 8.84839 9.7729 8.70703L6.0599 5.00003L9.7729 1.28703C9.91346 1.14567 9.99211 0.954258 9.99155 0.754907C9.99099 0.555556 9.91126 0.364593 9.7699 0.224029C9.62854 0.0834638 9.43713 0.00481148 9.23777 0.00537409C9.03842 0.0059367 8.84746 0.0856682 8.7069 0.227029L4.9999 3.93903L1.2869 0.227029C1.14472 0.0945486 0.956675 0.0224254 0.762374 0.0258536C0.568073 0.0292818 0.382687 0.107994 0.245274 0.245407C0.107861 0.38282 0.0291494 0.568205 0.0257212 0.762506C0.022293 0.956807 0.0944162 1.14485 0.226896 1.28703L3.9389 5.00003L0.226896 8.71203C0.0902095 8.85342 0.0145231 9.04283 0.0161386 9.23948C0.0177541 9.43613 0.0965421 9.62428 0.235533 9.7634C0.374524 9.90252 0.562597 9.98149 0.759245 9.98329C0.955893 9.98509 1.14538 9.90958 1.2869 9.77303L4.9999 6.06003L8.7069 9.77303Z" fill="#28303F"/>
</svg>
