<svg width="336" height="336" viewBox="0 0 336 336" fill="none" xmlns="http://www.w3.org/2000/svg">
<path d="M51.4144 166.871C51.4144 166.871 44.4189 169.284 51.5488 184.229C58.6787 199.174 63.6918 206.627 63.6918 206.627C63.6918 206.627 64.935 210.081 62.0387 210.538C59.1424 210.995 52.8189 209.812 51.4413 213.3C50.0099 216.922 52.577 220.443 57.879 223.615C63.1811 226.787 74.5581 234.165 75.5795 234.837C76.601 235.509 77.5955 237.115 75.6467 237.74C73.6979 238.365 59.4112 239.474 60.3386 246.234C61.2659 252.995 77.5014 259.392 79.2957 260.138C81.0899 260.884 81.4662 261.636 81.3117 262.611C81.1571 263.585 76.2986 263.498 72.2397 263.955C68.1808 264.412 63.5574 265.702 64.4243 269.559C65.2912 273.417 74.7798 281.723 98.2931 284.673L109.28 285.345L115.463 276.192C127.612 255.844 126.887 243.264 124.4 240.193C121.914 237.122 118.043 240.005 115.167 242.881C112.291 245.757 109.374 249.655 108.501 249.191C107.627 248.727 107.278 247.934 107.782 246.093C108.286 244.252 113.225 227.519 108.454 222.62C103.683 217.721 94.0192 228.332 92.3258 229.461C90.6323 230.59 89.9805 228.789 90.0813 227.62C90.1821 226.451 91.3648 212.896 92.0973 206.788C92.8298 200.679 91.6605 196.466 87.9242 195.364C84.329 194.302 81.3722 200.007 79.2285 202.01C77.0848 204.012 75.1293 200.908 75.1293 200.908C75.1293 200.908 72.3472 192.373 64.9485 177.556C57.5498 162.738 51.2733 166.932 51.2733 166.932" fill="#EBEBEB"/>
<path d="M109.724 287.952C104.348 277.045 95.0809 257.504 87.0505 240.771C79.0201 224.038 71.7356 208.898 66.4 197.964L60.0697 185.028L58.3494 181.507C58.1612 181.111 58.0134 180.835 57.9126 180.587C57.8118 180.338 57.7715 180.271 57.7715 180.271C57.7715 180.271 57.832 180.372 57.9395 180.573L58.4099 181.474L60.1907 184.968C61.7296 187.999 63.927 192.407 66.615 197.857C71.991 208.764 79.3292 223.89 87.3596 240.623C95.39 257.356 104.61 276.911 109.946 287.844" fill="#E0E0E0"/>
<path d="M60.2178 215.309C60.4778 215.363 60.732 215.442 60.9771 215.544C61.461 215.719 62.1531 215.981 62.9931 216.317C64.6933 216.989 67.0251 217.99 69.5586 219.132L76.0635 222.076L78.0325 222.956C78.2854 223.046 78.5268 223.166 78.7515 223.312C78.4885 223.265 78.2316 223.188 77.9855 223.084C77.5016 222.909 76.8162 222.647 75.9695 222.298C74.2827 221.626 71.9375 220.584 69.4242 219.442L62.9058 216.539L60.9301 215.672C60.6767 215.585 60.4369 215.463 60.2178 215.309Z" fill="#E0E0E0"/>
<path d="M79.5245 222.627C79.4371 222.593 81.2784 217.715 83.6304 211.727C85.9824 205.74 87.9648 200.928 88.032 200.928C88.0992 200.928 86.2781 205.84 83.9261 211.828C81.5741 217.815 79.6118 222.66 79.5245 222.627Z" fill="#E0E0E0"/>
<path d="M90.7197 248.882C90.8505 248.642 91.0059 248.417 91.1834 248.21L92.5274 246.463C93.6698 244.984 95.2154 242.935 96.8752 240.616C98.5351 238.298 99.9396 236.148 100.954 234.568L102.157 232.714C102.287 232.47 102.448 232.245 102.634 232.042C102.538 232.295 102.416 232.538 102.271 232.767C102.016 233.224 101.64 233.883 101.156 234.683C100.195 236.282 98.8039 238.459 97.1239 240.784C95.4439 243.109 93.8781 245.139 92.6954 246.577C92.0973 247.296 91.6068 247.867 91.2573 248.257C91.1017 248.484 90.9214 248.694 90.7197 248.882Z" fill="#E0E0E0"/>
<path d="M71.7764 246.107C72.0266 246.081 72.2788 246.081 72.529 246.107L74.545 246.322C76.2586 246.523 78.624 246.819 81.265 247.168C83.906 247.518 86.2311 247.84 87.9313 248.109L89.9473 248.432C90.1969 248.457 90.4427 248.511 90.6797 248.593C90.4307 248.616 90.1798 248.605 89.9338 248.559L87.9178 248.344C86.2109 248.149 83.8455 247.854 81.2381 247.504C78.6308 247.155 76.272 246.832 74.5652 246.564L72.5492 246.241C72.287 246.228 72.0274 246.183 71.7764 246.107Z" fill="#E0E0E0"/>
<path d="M78.6973 270.54C79.0184 270.523 79.3404 270.539 79.6582 270.588L82.2589 270.856C84.4563 271.098 87.487 271.454 90.8336 271.871C94.1801 272.288 97.2109 272.677 99.3949 272.98L101.989 273.356C102.308 273.384 102.623 273.445 102.93 273.538C102.608 273.55 102.287 273.532 101.969 273.484L99.368 273.215C97.1705 272.98 94.1398 272.624 90.7933 272.207C87.4467 271.79 84.4227 271.401 82.232 271.098L79.6448 270.722C79.3244 270.689 79.0074 270.628 78.6973 270.54Z" fill="#E0E0E0"/>
<path d="M102.372 273.302C102.533 272.999 102.722 272.711 102.937 272.442C103.36 271.858 103.911 271.098 104.57 270.164C105.914 268.242 107.835 265.574 109.845 262.577C111.854 259.58 113.601 256.818 114.851 254.809L116.33 252.43C116.501 252.132 116.695 251.847 116.907 251.577C116.783 251.898 116.628 252.206 116.444 252.497C116.128 253.082 115.658 253.915 115.053 254.937C113.857 256.953 112.136 259.762 110.127 262.765C108.118 265.769 106.196 268.417 104.751 270.312C104.039 271.253 103.447 272.012 103.031 272.523C102.834 272.801 102.614 273.062 102.372 273.302Z" fill="#E0E0E0"/>
<path d="M229.004 252C211.955 243.58 205.424 224.125 203.3 206.076C202.944 203.058 202.137 199.947 203.159 197.104C204.18 194.262 207.238 191.95 210.114 192.804C212.506 193.516 213.871 195.955 215.436 197.911C217.541 200.512 220.336 202.469 223.5 203.556C225.557 204.228 228.016 204.503 229.743 203.179C232.109 201.358 231.873 197.736 231.396 194.759L228.749 178.08C228.278 175.103 227.808 172.032 228.305 169.089C228.802 166.145 230.449 163.175 233.164 161.952C235.879 160.729 239.635 161.824 240.683 164.64C241.113 165.816 241.06 167.113 241.355 168.336C241.651 169.559 242.41 170.843 243.64 171.024C244.87 171.205 245.952 170.164 246.705 169.156C249.325 165.682 250.824 161.482 252.188 157.329C253.552 153.176 254.876 148.935 257.141 145.233C259.405 141.53 262.9 138.338 267.133 137.444C271.367 136.55 276.32 138.499 278.04 142.524C279.76 146.55 277.959 151.2 275.802 155.01C272.614 160.663 268.623 165.824 263.955 170.332C263.115 171.138 262.208 172.019 262.019 173.174C261.67 175.264 263.854 176.951 265.917 177.307C268.256 177.71 270.621 177.112 273 177.032C275.379 176.951 278.04 177.589 279.249 179.652C280.936 182.515 278.873 186.097 276.682 188.577C272.292 193.549 267.077 197.728 261.267 200.928C259.19 202.064 256.993 203.119 255.461 204.96C253.929 206.801 253.263 209.61 254.654 211.546C256.045 213.481 258.888 213.743 261.119 212.97C263.35 212.197 265.218 210.632 267.281 209.476C271.145 207.305 276.481 206.788 279.646 209.919C281.722 211.989 282.368 215.208 281.917 218.111C281.467 221.014 280.063 223.682 278.517 226.175C273.141 234.911 265.662 242.364 256.657 247.108C247.652 251.852 238.977 254.016 229.004 252Z" fill="#F5F5F5"/>
<path d="M231.927 240.032C233.421 229.798 235.501 219.659 238.156 209.664C238.851 207.003 239.523 204.378 240.172 201.788C240.844 199.201 241.516 196.641 242.329 194.174C243.893 189.44 245.719 184.796 247.799 180.264C249.755 175.923 251.764 171.877 253.673 168.108C255.581 164.338 257.443 160.863 259.27 157.765C262.134 152.862 265.383 148.195 268.988 143.808C270.258 142.256 271.279 141.08 271.985 140.293C272.327 139.924 272.589 139.621 272.791 139.406C272.878 139.301 272.975 139.205 273.08 139.117C273.008 139.235 272.924 139.345 272.831 139.447L272.065 140.367C271.393 141.18 270.399 142.383 269.156 143.942C265.639 148.375 262.456 153.063 259.633 157.967C257.839 161.072 256.005 164.553 254.109 168.323C252.214 172.092 250.225 176.145 248.29 180.479C246.236 184.999 244.428 189.627 242.874 194.342C242.067 196.795 241.409 199.342 240.73 201.929C240.051 204.516 239.386 207.151 238.714 209.805C236.064 219.785 233.973 229.906 232.451 240.119" fill="#E0E0E0"/>
<path d="M242.511 194.114C242.303 193.724 242.14 193.311 242.027 192.884C241.745 192.084 241.355 190.915 240.938 189.464C240.065 186.554 238.996 182.502 237.834 178.04C236.671 173.578 235.549 169.539 234.635 166.656C234.178 165.211 233.802 164.049 233.526 163.242C233.365 162.826 233.25 162.393 233.184 161.952C233.416 162.326 233.605 162.725 233.748 163.141C234.084 163.921 234.521 165.07 235.025 166.501C236.04 169.364 237.229 173.389 238.385 177.872C239.541 182.354 240.542 186.278 241.328 189.336C241.691 190.714 242 191.869 242.242 192.804C242.377 193.23 242.467 193.669 242.511 194.114Z" fill="#E0E0E0"/>
<path d="M279.76 181.117C279.271 181.298 278.767 181.435 278.254 181.527C277.287 181.769 275.882 182.105 274.155 182.576C270.701 183.49 265.977 184.914 260.829 186.722C255.682 188.53 251.099 190.371 247.82 191.802C246.18 192.474 244.863 193.106 243.949 193.516C243.489 193.758 243.007 193.958 242.511 194.114C242.933 193.808 243.383 193.542 243.855 193.321C244.742 192.851 246.032 192.185 247.665 191.439C250.911 189.914 255.487 188.012 260.648 186.191C265.057 184.62 269.542 183.274 274.088 182.159C275.828 181.742 277.253 181.487 278.241 181.292C278.74 181.184 279.249 181.126 279.76 181.117Z" fill="#E0E0E0"/>
<path d="M232.289 239.232C232.164 239.101 232.054 238.957 231.96 238.802C231.725 238.452 231.436 238.029 231.093 237.512C230.341 236.396 229.306 234.743 228.049 232.687C225.529 228.574 222.23 222.788 218.675 216.35C215.12 209.913 211.874 204.107 209.448 199.947L206.559 195.035L205.779 193.691C205.676 193.539 205.595 193.374 205.537 193.2C205.668 193.327 205.781 193.472 205.873 193.63L206.74 194.914C207.486 196.036 208.528 197.689 209.784 199.745C212.304 203.851 215.604 209.644 219.159 216.082C222.713 222.519 225.952 228.325 228.385 232.485L231.275 237.397C231.584 237.935 231.839 238.379 232.054 238.741C232.157 238.892 232.236 239.058 232.289 239.232Z" fill="#E0E0E0"/>
<path d="M280.741 215.087C280.593 215.198 280.433 215.293 280.264 215.369C279.888 215.564 279.424 215.806 278.86 216.088L273.672 218.689C269.297 220.886 263.283 223.984 256.643 227.425C250.004 230.866 243.936 233.903 239.527 236.006C237.317 237.061 235.495 237.895 234.259 238.446L232.814 239.071C232.648 239.154 232.472 239.218 232.29 239.259C232.433 239.139 232.594 239.041 232.767 238.97L234.172 238.251L239.353 235.65C243.734 233.46 249.749 230.355 256.388 226.914C263.027 223.474 269.075 220.416 273.504 218.333C275.715 217.278 277.536 216.444 278.766 215.893L280.217 215.268C280.382 215.183 280.559 215.122 280.741 215.087Z" fill="#E0E0E0"/>
<path d="M74.975 48.384C76.3323 48.2009 77.7127 48.2946 79.0328 48.6596C80.3529 49.0246 81.5854 49.6532 82.656 50.5075C84.7836 52.2346 86.4851 54.4282 87.6288 56.9184C89.974 61.6224 90.3168 67.7242 89.9203 72.9859C84.1142 72.1459 79.6118 67.0387 77.4883 64.3104C74.1283 59.9894 70.7011 50.1514 74.9884 48.3504" fill="#F5F5F5"/>
<path d="M98.9183 77.4749C97.8528 76.378 97.096 75.0192 96.7243 73.5359C96.3526 72.0527 96.3792 70.4975 96.8015 69.0278C97.2513 67.5662 97.9874 66.2087 98.9669 65.0342C99.9464 63.8598 101.15 62.8919 102.507 62.1869C103.743 61.5149 105.242 61.0378 106.539 61.5754C107.135 61.8617 107.643 62.3026 108.011 62.8522C108.378 63.4018 108.592 64.04 108.629 64.7002C108.685 66.0254 108.39 67.3419 107.775 68.5171C105.86 72.6096 103.259 76.225 98.9116 77.4749" fill="#F5F5F5"/>
<path d="M101.109 90.5117C100.552 89.4898 100.102 88.4134 99.7653 87.2995C99.3442 86.0935 99.069 84.8414 98.9454 83.5699C98.7476 82.0301 98.6511 80.4789 98.6565 78.9264C98.6734 76.0687 99.3959 73.2594 100.76 70.7482C101.185 70.0033 101.687 69.305 102.258 68.665C102.682 68.2214 102.93 67.993 102.964 68.0333C102.998 68.0736 102.104 69.0614 101.123 70.9498C99.9106 73.4403 99.2701 76.1701 99.2478 78.9398C99.2428 80.4686 99.3235 81.9964 99.4897 83.5162C99.5875 84.7546 99.8127 85.9796 100.162 87.1718C100.556 88.2613 100.873 89.3774 101.109 90.5117Z" fill="#E0E0E0"/>
<path d="M78.2607 55.608C78.6654 56.0368 79.0319 56.5 79.3561 56.9923C80.0281 57.9062 80.9958 59.2368 82.1718 60.8899C84.5171 64.2029 87.7158 68.8195 91.1161 74.0006C94.5164 79.1818 97.4598 83.9664 99.5161 87.4406C100.551 89.1878 101.364 90.6192 101.908 91.6138C102.218 92.1172 102.486 92.6454 102.708 93.193C102.332 92.7363 101.999 92.2459 101.714 91.728L99.1599 87.6557C97.0163 84.215 94.0124 79.4774 90.6188 74.2963L81.8291 61.152L79.1411 57.12C78.8013 56.6444 78.5066 56.1383 78.2607 55.608Z" fill="#E0E0E0"/>
<path d="M94.4094 82.7904C91.9301 80.7291 88.9954 79.2882 85.8483 78.587C82.7012 77.8858 79.4323 77.9446 76.3125 78.7584C74.7265 79.1885 72.9525 80.1024 72.7643 81.7152C72.5761 83.328 74.0545 84.6653 75.5061 85.4314C78.5564 86.9852 81.9985 87.6012 85.3984 87.2017C88.7983 86.8023 92.0038 85.4053 94.611 83.1869" fill="#F5F5F5"/>
<path d="M80.1562 81.6211C80.4426 81.5005 80.7468 81.4278 81.0567 81.4061C81.6481 81.2986 82.5015 81.1978 83.57 81.097C86.3615 80.8244 89.1794 81.0681 91.8826 81.816C93.3718 82.2707 94.7768 82.9653 96.0423 83.8723C97.0569 84.6232 97.9617 85.5121 98.7303 86.5133C99.2576 87.1769 99.719 87.8904 100.108 88.6435C100.278 88.9062 100.405 89.1943 100.484 89.4969C100.377 89.5574 99.7652 88.3814 98.4078 86.7754C96.6429 84.6879 94.3076 83.1606 91.6878 82.3805C89.0452 81.6617 86.3048 81.3691 83.57 81.5136C82.4353 81.6176 81.2953 81.6535 80.1562 81.6211Z" fill="#E0E0E0"/>
<path d="M247.366 71.0128L241.688 90.2167C241.164 91.9891 242.176 93.8508 243.949 94.3748L263.152 100.052C264.925 100.576 266.786 99.5642 267.31 97.7918L272.988 78.5879C273.512 76.8155 272.5 74.9539 270.728 74.4299L251.524 68.7523C249.751 68.2283 247.89 69.2404 247.366 71.0128Z" fill="#455A64"/>
<path d="M263.168 92.1178C263.177 92.0403 263.193 91.9639 263.215 91.8893L263.377 91.2643L264.015 88.9258L266.327 80.64L266.414 80.8013L251.536 76.5677L251.731 76.4602V76.5072V76.608L251.677 76.8029L251.563 77.1859L251.328 77.952C251.18 78.4627 251.032 78.9667 250.891 79.464L249.984 82.4275C249.426 84.3427 248.895 86.1773 248.405 87.8909L248.304 87.7162L258.989 90.8544L262.033 91.7683L262.853 92.017L263.142 92.1178L262.873 92.0573L262.073 91.849L259.036 91.0157L248.223 87.9917L248.082 87.9514L248.122 87.8102C248.613 86.0966 249.13 84.2621 249.681 82.3402C249.957 81.3792 250.232 80.3914 250.521 79.3901C250.662 78.8928 250.81 78.3888 250.951 77.8781L251.173 77.112L251.287 76.7222L251.341 76.5341V76.4333V76.3862L251.543 76.2787L266.407 80.5661L266.535 80.6064L266.502 80.7341C265.48 84.1882 264.633 87.0509 264.035 89.087C263.74 90.0547 263.511 90.8275 263.363 91.3786C263.283 91.6205 263.222 91.8154 263.175 91.9699C263.176 92.0193 263.173 92.0686 263.168 92.1178Z" fill="#FAFAFA"/>
<path d="M257.201 75.6067C257.656 75.6681 258.106 75.7647 258.545 75.8957C259.379 76.1107 260.561 76.4266 261.966 76.8163H262.04V76.897C262.248 77.6966 262.477 78.5635 262.712 79.4774L262.786 79.7462L262.517 79.6656L261.106 79.2624C258.76 78.5904 256.637 77.9654 255.091 77.495L254.896 77.4346L255.044 77.3002C256.294 76.151 257.134 75.4858 257.195 75.5866C257.195 75.5866 256.993 75.7478 256.644 76.0704L255.199 77.4682L255.152 77.2733C256.718 77.6899 258.848 78.2813 261.2 78.9533L262.611 79.3632L262.409 79.5514L261.737 76.9709L261.838 77.0717C260.44 76.6618 259.271 76.2989 258.478 76.0435C258.04 75.9365 257.613 75.7903 257.201 75.6067Z" fill="#FAFAFA"/>
<path d="M260.131 86.1571C260.131 86.1571 260.292 85.8883 260.48 85.3641C260.736 84.6241 260.736 83.8194 260.48 83.0793C260.285 82.4788 259.926 81.9445 259.444 81.5362C258.962 81.1278 258.376 80.8614 257.752 80.7668C257.127 80.6721 256.489 80.7529 255.907 81.0002C255.326 81.2475 254.825 81.6514 254.46 82.1669C254.095 82.6825 253.881 83.2893 253.841 83.9197C253.801 84.5501 253.937 85.1791 254.234 85.7366C254.531 86.2942 254.977 86.7582 255.522 87.0769C256.067 87.3956 256.69 87.5564 257.322 87.5414C258.106 87.5242 258.862 87.2477 259.472 86.7552C259.902 86.4058 260.077 86.137 260.104 86.1571C260.077 86.23 260.038 86.2981 259.99 86.3587C259.864 86.5389 259.717 86.7036 259.553 86.8493C258.943 87.4079 258.155 87.7339 257.329 87.7699C256.713 87.7965 256.101 87.6683 255.548 87.3971C254.995 87.1259 254.519 86.7204 254.163 86.2176C253.737 85.6185 253.502 84.9036 253.491 84.168C253.471 83.3784 253.707 82.6033 254.163 81.9588C254.62 81.3144 255.273 80.8352 256.025 80.5929C256.49 80.4373 256.981 80.3766 257.47 80.4146C257.958 80.4527 258.434 80.5886 258.869 80.8142C259.305 81.0399 259.69 81.3508 260.002 81.7284C260.315 82.106 260.548 82.5425 260.689 83.0121C260.929 83.8015 260.886 84.65 260.568 85.4112C260.483 85.6159 260.375 85.8099 260.245 85.9891C260.191 86.1101 260.138 86.1638 260.131 86.1571Z" fill="#FAFAFA"/>
<path d="M83.1703 108.485L54.9339 114.528C52.6221 115.023 51.1491 117.298 51.6439 119.61L57.6869 147.847C58.1817 150.158 60.4569 151.631 62.7686 151.137L91.0051 145.094C93.3168 144.599 94.7898 142.324 94.2951 140.012L88.252 111.775C87.7573 109.464 85.4821 107.991 83.1703 108.485Z" fill="#34607B"/>
<path d="M67.8724 121.242C68.1047 121.315 68.3297 121.41 68.5444 121.524L70.426 122.425H70.4999L70.4596 122.506C69.8414 123.655 69.0148 125.194 68.0202 127.008L67.9799 126.833L77.146 132.713L76.8772 132.774C77.6567 131.43 78.4833 130.025 79.33 128.56L79.4106 128.433L79.5518 128.466C80.7217 128.756 81.8505 129.192 82.9118 129.763C84.0713 130.332 85.0334 131.236 85.6737 132.357C85.8192 132.659 85.9189 132.98 85.9694 133.311L86.0433 133.815L86.003 134.326C85.9765 134.665 85.8995 134.998 85.7745 135.314C85.6812 135.637 85.5504 135.948 85.3847 136.241C84.752 137.47 83.7216 138.448 82.4615 139.017C81.1951 139.577 79.7838 139.723 78.4295 139.433C77.7725 139.296 77.1372 139.07 76.5412 138.761C75.9498 138.452 75.4391 138.089 74.8948 137.753L68.7594 133.836L63.2154 130.274L61.9319 129.454C61.5028 129.199 61.0999 128.902 60.729 128.567C60.3729 128.245 60.0844 127.854 59.8803 127.42C59.6761 126.985 59.5603 126.514 59.5396 126.034C59.528 125.219 59.7037 124.412 60.0533 123.675C60.4028 122.939 60.9168 122.293 61.5556 121.787C62.5095 121.011 63.6876 120.564 64.9156 120.51C65.6793 120.469 66.4432 120.586 67.1601 120.852C67.3444 120.921 67.524 121.002 67.6977 121.094C67.7602 121.12 67.819 121.154 67.8724 121.195C66.9408 120.802 65.9318 120.628 64.9223 120.684C63.7463 120.765 62.6263 121.217 61.7236 121.975C61.1311 122.464 60.6571 123.08 60.337 123.779C60.017 124.477 59.8592 125.239 59.8756 126.007C59.8953 126.454 60.0055 126.892 60.1996 127.295C60.3936 127.698 60.6675 128.058 61.0046 128.352C61.3662 128.669 61.7578 128.95 62.1738 129.192L63.4574 129.998L69.0215 133.52L75.1703 137.417C75.7079 137.753 76.2388 138.123 76.7831 138.405C77.3436 138.689 77.9406 138.895 78.5572 139.017C79.8149 139.282 81.1242 139.146 82.3002 138.627C83.4626 138.099 84.4107 137.192 84.9882 136.053C85.1398 135.778 85.2615 135.487 85.3511 135.186C85.4631 134.902 85.5332 134.603 85.5594 134.299L85.5998 133.849L85.5326 133.412C85.4894 133.118 85.401 132.832 85.2705 132.565C84.6714 131.523 83.7753 130.683 82.6967 130.153C81.6696 129.598 80.5769 129.173 79.4442 128.89L79.666 128.789L77.1863 132.989L77.0788 133.164L76.9175 133.056L67.8724 127.089L67.7649 127.021L67.8254 126.914L70.3588 122.459V122.573L68.5444 121.632C68.3098 121.521 68.085 121.391 67.8724 121.242Z" fill="#FAFAFA"/>
<path d="M77.4751 126.054C77.1103 125.094 76.8578 124.095 76.7224 123.077C76.4668 122.079 76.3292 121.055 76.3125 120.026C76.6741 120.989 76.9265 121.99 77.0651 123.01C77.3169 124.005 77.4544 125.027 77.4751 126.054Z" fill="#FAFAFA"/>
<path d="M79.9678 122.385C78.9884 122.77 77.9699 123.047 76.9304 123.211C75.9063 123.482 74.8567 123.644 73.7988 123.695C74.7784 123.312 75.7969 123.037 76.8363 122.875C77.8586 122.596 78.9089 122.431 79.9678 122.385Z" fill="#FAFAFA"/>
<path d="M227.754 59.7811H185.236V122.123H227.754V59.7811Z" fill="#F5F5F5"/>
<path d="M227.747 122.123C227.747 122.123 227.747 122.015 227.747 121.813C227.747 121.612 227.747 121.316 227.747 120.933C227.747 120.147 227.747 119.004 227.747 117.519C227.747 114.529 227.747 110.181 227.7 104.684C227.7 93.7037 227.653 78.1401 227.62 59.7811L227.781 59.9424H185.27L185.445 59.7677C185.445 83.2205 185.445 104.866 185.405 122.109L185.27 121.968L216.182 122.042L224.744 122.076H226.995C227.506 122.076 227.774 122.076 227.774 122.076H227.028H224.804L216.27 122.109L185.264 122.183H185.122V122.042C185.122 104.798 185.122 83.1533 185.089 59.7005V59.6064H185.264H227.774H227.936V59.808C227.936 78.2073 227.875 93.8045 227.855 104.832C227.855 110.309 227.855 114.65 227.815 117.6C227.815 119.072 227.815 120.207 227.815 120.96C227.815 121.336 227.815 121.632 227.815 121.827C227.815 122.022 227.747 122.123 227.747 122.123Z" fill="#263238"/>
<path d="M189.248 119.744C188.235 119.27 187.379 118.516 186.78 117.57C186.182 116.625 185.866 115.528 185.871 114.41C185.876 113.291 186.201 112.197 186.808 111.257C187.415 110.317 188.278 109.571 189.295 109.106C189.689 108.972 190.043 108.741 190.324 108.434C190.7 107.937 190.552 107.238 190.566 106.613C190.618 105.801 190.971 105.038 191.554 104.472C192.138 103.906 192.911 103.577 193.724 103.548L203.3 107.312V117.392L189.248 119.744Z" fill="#263238"/>
<path d="M185.747 121.955C185.747 121.955 192.864 116.357 201.6 115.04C210.336 113.723 220.086 115.04 220.086 115.04C222.747 115.532 225.318 116.422 227.713 117.681L227.761 122.096L218.353 122.062L185.747 121.955Z" fill="#34607B"/>
<path d="M223.728 75.4051C222.815 72.8717 218.487 70.7011 216.108 69.431C212.553 67.5427 209.327 68.087 207.372 69.9014C203.669 66.9984 198.831 64.2566 194.322 65.5939C189.813 66.9312 186.258 71.7158 187.259 76.3459C187.837 79.0339 189.806 81.4397 189.786 84.215C189.786 86.1033 188.831 87.8371 188.092 89.591C187.353 91.3449 186.809 93.3475 187.575 95.0745C188.294 96.6806 189.974 97.6416 190.935 99.1065C191.701 100.316 191.916 101.795 192.42 103.139C194.302 108.105 200.323 110.719 205.524 109.664C210.725 108.609 214.932 104.523 217.264 99.7449C219.596 94.967 220.221 89.5507 220.328 84.2486" fill="#263238"/>
<path d="M220.127 116.545L219.946 79.1616L204.221 74.3702C203.074 74.2128 201.908 74.2887 200.791 74.5934C199.675 74.8981 198.632 75.4253 197.724 76.1434C196.816 76.8614 196.063 77.7554 195.51 78.7718C194.957 79.7882 194.614 80.9059 194.504 82.0579C193.939 87.8506 193.469 95.135 194.027 99.5299C195.122 108.152 201.661 109.449 201.661 109.449C201.661 109.449 201.607 112.647 201.54 116.39C201.5 118.419 202.128 120.405 203.327 122.042H218.333C219.503 120.449 220.132 118.522 220.127 116.545Z" fill="#FFBE9D"/>
<path d="M201.66 109.469C205.704 109.607 209.71 108.648 213.252 106.693C213.252 106.693 210.181 112.822 201.62 111.747L201.66 109.469Z" fill="#EB996E"/>
<path d="M206.976 82.9718C207.083 83.3011 208.273 83.1869 209.664 83.3952C211.055 83.6035 212.157 84.0201 212.352 83.7379C212.439 83.6035 212.251 83.2944 211.807 82.9651C211.217 82.5609 210.54 82.3008 209.832 82.2057C209.124 82.0963 208.4 82.1585 207.721 82.3872C207.204 82.5753 206.976 82.824 206.976 82.9718Z" fill="#263238"/>
<path d="M196.056 83.6304C196.257 83.9059 197.084 83.6304 198.072 83.6304C199.06 83.6304 199.873 83.8723 200.088 83.6304C200.175 83.496 200.054 83.2205 199.698 82.9584C199.221 82.6345 198.658 82.4614 198.082 82.4614C197.505 82.4614 196.942 82.6345 196.466 82.9584C196.096 83.2205 195.968 83.496 196.056 83.6304Z" fill="#263238"/>
<path d="M206.674 92.6419C206.677 92.7245 206.713 92.8024 206.773 92.859C206.834 92.9155 206.914 92.9461 206.996 92.9443C207.08 92.9408 207.158 92.9053 207.216 92.8452C207.273 92.7851 207.306 92.705 207.306 92.6217C207.306 92.538 207.272 92.4577 207.213 92.3984C207.154 92.3392 207.073 92.3059 206.99 92.3059C206.906 92.3059 206.826 92.3392 206.766 92.3984C206.707 92.4577 206.674 92.538 206.674 92.6217V92.6419Z" fill="#EB996E"/>
<path d="M197.756 91.392C197.75 91.4369 197.753 91.4826 197.766 91.5262C197.778 91.5697 197.8 91.6101 197.83 91.6444C197.859 91.6787 197.896 91.7062 197.937 91.7251C197.979 91.744 198.023 91.7538 198.069 91.7538C198.114 91.7538 198.159 91.744 198.2 91.7251C198.241 91.7062 198.278 91.6787 198.308 91.6444C198.337 91.6101 198.359 91.5697 198.372 91.5262C198.385 91.4826 198.388 91.4369 198.381 91.392C198.378 91.3088 198.342 91.2302 198.282 91.1725C198.222 91.1149 198.142 91.0828 198.059 91.0829C197.978 91.0863 197.902 91.1201 197.846 91.1776C197.79 91.235 197.758 91.3117 197.756 91.392Z" fill="#EB996E"/>
<path d="M196.049 92.279C196.052 92.3616 196.088 92.4395 196.148 92.4961C196.209 92.5526 196.289 92.5833 196.371 92.5814C196.455 92.5814 196.536 92.5481 196.595 92.4889C196.654 92.4297 196.687 92.3493 196.687 92.2656C196.687 92.1818 196.654 92.1015 196.595 92.0422C196.536 91.983 196.455 91.9497 196.371 91.9497C196.329 91.9497 196.286 91.9583 196.246 91.9749C196.207 91.9915 196.171 92.0159 196.141 92.0466C196.111 92.0772 196.087 92.1136 196.071 92.1535C196.056 92.1934 196.048 92.2361 196.049 92.279Z" fill="#EB996E"/>
<path d="M195.478 90.9821C195.479 91.0448 195.499 91.1057 195.535 91.157C195.571 91.2082 195.622 91.2476 195.68 91.27C195.739 91.2925 195.803 91.2969 195.864 91.2828C195.925 91.2688 195.981 91.2368 196.024 91.1911C196.067 91.1453 196.095 91.0878 196.105 91.0259C196.115 90.9639 196.107 90.9004 196.08 90.8434C196.054 90.7864 196.012 90.7384 195.958 90.7057C195.905 90.6729 195.843 90.6568 195.78 90.6595C195.697 90.663 195.619 90.6987 195.563 90.759C195.506 90.8193 195.476 90.8994 195.478 90.9821Z" fill="#EB996E"/>
<path d="M208.158 93.9792C208.159 94.0204 208.168 94.061 208.185 94.0986C208.202 94.1362 208.226 94.1701 208.256 94.1983C208.286 94.2265 208.322 94.2483 208.36 94.2626C208.399 94.277 208.44 94.2834 208.481 94.2816C208.544 94.2802 208.605 94.2602 208.656 94.224C208.707 94.1879 208.747 94.1373 208.769 94.0787C208.791 94.0201 208.796 93.9562 208.782 93.895C208.768 93.8339 208.736 93.7783 208.69 93.7354C208.644 93.6925 208.587 93.6642 208.525 93.6541C208.463 93.644 208.399 93.6526 208.342 93.6787C208.285 93.7049 208.237 93.7474 208.205 93.8009C208.172 93.8545 208.156 93.9165 208.158 93.9792Z" fill="#EB996E"/>
<path d="M209.287 92.6822C209.29 92.7446 209.311 92.8048 209.348 92.8552C209.385 92.9055 209.436 92.9438 209.495 92.9652C209.553 92.9866 209.617 92.9901 209.678 92.9754C209.738 92.9606 209.793 92.9281 209.835 92.8821C209.878 92.8361 209.905 92.7787 209.915 92.717C209.924 92.6553 209.915 92.5921 209.889 92.5355C209.863 92.4788 209.82 92.4313 209.767 92.3988C209.714 92.3663 209.652 92.3503 209.59 92.3529C209.506 92.3581 209.428 92.3953 209.372 92.4567C209.316 92.5181 209.285 92.5989 209.287 92.6822Z" fill="#EB996E"/>
<path d="M204.113 73.0598C206.408 71.4389 209.116 70.5026 211.923 70.3599C214.729 70.2171 217.518 70.8737 219.966 72.2534C224.838 75.1229 227.492 79.2624 227.748 86.0899V94.7923C227.492 98.7571 228.339 101.055 226.404 101.727C223.716 102.641 221.7 109.872 219.401 109.368C216.572 107.171 216.525 105.887 216.424 101.391C216.317 96.5597 214.865 90.8141 216.76 87.7027C210.511 85.8413 205.524 79.8605 204.57 73.0666" fill="#263238"/>
<path d="M195.337 65.3251C195.337 65.3721 196.076 65.3721 197.225 65.6342C197.54 65.7034 197.85 65.7932 198.153 65.903C198.504 66.0137 198.85 66.1438 199.187 66.2928C199.957 66.644 200.688 67.0717 201.371 67.5696C202.047 68.0786 202.668 68.655 203.226 69.2899C203.468 69.5923 203.717 69.8745 203.898 70.1635C204.086 70.4245 204.259 70.696 204.416 70.9766C205.007 71.9981 205.222 72.7104 205.262 72.6902C205.229 72.5224 205.179 72.3581 205.115 72.1997C205.055 72.0039 204.981 71.813 204.893 71.6285C204.788 71.3822 204.669 71.1422 204.537 70.9094C204.385 70.6199 204.217 70.3394 204.033 70.0694C203.844 69.7737 203.603 69.4848 203.361 69.1689C202.253 67.8468 200.849 66.8059 199.261 66.1315C198.917 65.9835 198.565 65.8534 198.206 65.7417C197.895 65.6447 197.579 65.564 197.259 65.4998C196.995 65.4423 196.728 65.3997 196.459 65.3721C196.259 65.3423 196.057 65.3265 195.854 65.3251C195.682 65.3075 195.509 65.3075 195.337 65.3251Z" fill="#455A64"/>
<path d="M190.344 98.112L190.284 98.0448L190.102 97.8365C189.864 97.5819 189.64 97.315 189.43 97.0368C189.073 96.609 188.797 96.1193 188.617 95.592C188.515 95.264 188.479 94.9193 188.509 94.5773C188.551 94.1965 188.67 93.8283 188.859 93.4954C189.347 92.7429 189.888 92.0265 190.478 91.3517C191.798 89.5876 192.609 87.496 192.824 85.3037C192.918 84.0779 192.918 82.8468 192.824 81.6211C192.722 80.4077 192.792 79.1861 193.032 77.9923C193.296 76.9475 193.785 75.9731 194.466 75.1373C195.146 74.3016 196.001 73.6246 196.97 73.1539C197.773 72.7685 198.642 72.5404 199.53 72.4819C200.826 72.3835 202.125 72.6147 203.307 73.1539C203.624 73.3068 203.932 73.4796 204.228 73.6713L204.456 73.8192C204.51 73.8192 204.537 73.8729 204.537 73.8662C204.174 73.5544 203.772 73.2922 203.34 73.0867C202.157 72.5022 200.841 72.2381 199.524 72.3206C198.612 72.3697 197.719 72.5981 196.896 72.9926C195.906 73.4744 195.033 74.1657 194.337 75.0186C193.64 75.8714 193.138 76.8655 192.864 77.9318C192.611 79.1419 192.536 80.3826 192.642 81.6144C192.737 82.8307 192.748 84.0522 192.676 85.2701C192.464 87.4304 191.675 89.4939 190.391 91.2442C189.8 91.9268 189.261 92.6523 188.778 93.4147C188.582 93.767 188.461 94.1559 188.422 94.5571C188.396 94.9142 188.442 95.2729 188.556 95.6122C188.746 96.1479 189.036 96.6427 189.41 97.0704C189.706 97.4265 189.961 97.6819 190.129 97.8499L190.331 98.0448L190.344 98.112Z" fill="#455A64"/>
<path d="M196.069 88.8921C196.197 89.04 197.043 88.4419 198.219 88.4688C199.395 88.4956 200.235 89.1005 200.383 88.9593C200.531 88.8182 200.316 88.6368 199.946 88.3545C199.444 87.9886 198.84 87.7889 198.219 87.7833C197.605 87.7668 197.002 87.9482 196.499 88.3008C196.129 88.5696 196.002 88.8249 196.069 88.8921Z" fill="#263238"/>
<path d="M208.119 89.087C208.253 89.2281 209.093 88.6301 210.276 88.6569C211.459 88.6838 212.292 89.2953 212.44 89.1542C212.588 89.0131 212.372 88.8249 211.996 88.5427C211.493 88.1808 210.889 87.9836 210.269 87.9782C209.655 87.9592 209.051 88.1409 208.549 88.4957C208.179 88.7645 208.052 89.0198 208.119 89.087Z" fill="#263238"/>
<path d="M203.663 96.2035C203.045 95.9967 202.404 95.868 201.754 95.8205C201.452 95.7869 201.169 95.7197 201.122 95.5113C201.104 95.2 201.181 94.8904 201.344 94.6243C201.64 93.8985 201.949 93.1392 202.278 92.3462C203.582 89.1072 204.529 86.4393 204.395 86.3856C204.261 86.3318 203.105 88.919 201.801 92.1648C201.492 92.9645 201.19 93.7238 200.901 94.4563C200.704 94.8149 200.642 95.232 200.726 95.6323C200.767 95.7395 200.831 95.8359 200.915 95.9139C200.999 95.992 201.1 96.0497 201.21 96.0825C201.376 96.1288 201.548 96.1558 201.721 96.1632C202.364 96.2588 203.016 96.2724 203.663 96.2035Z" fill="#263238"/>
<path d="M204.106 99.0595C204.337 98.7815 204.634 98.5665 204.97 98.4349C205.306 98.3032 205.67 98.2592 206.028 98.3068C206.291 98.3332 206.546 98.4129 206.777 98.5412C207.008 98.6694 207.211 98.8435 207.372 99.0528C207.526 99.2519 207.614 99.4933 207.626 99.7445C207.638 99.9956 207.573 100.244 207.439 100.457C207.247 100.666 206.996 100.813 206.719 100.878C206.442 100.942 206.152 100.922 205.887 100.82C205.332 100.615 204.825 100.299 204.395 99.8928C204.264 99.7963 204.152 99.6754 204.066 99.5366C204.022 99.4711 203.998 99.3939 203.998 99.3148C203.998 99.2358 204.022 99.1586 204.066 99.0931" fill="#34607B"/>
<path d="M207.117 97.0905C206.929 97.0905 206.902 98.3539 205.773 99.2409C204.645 100.128 203.301 99.96 203.287 100.141C203.287 100.222 203.583 100.397 204.161 100.424C204.91 100.449 205.645 100.211 206.237 99.7517C206.803 99.3059 207.174 98.6578 207.272 97.944C207.346 97.44 207.205 97.0838 207.117 97.0905Z" fill="#263238"/>
<path d="M227.318 83.6976C226.999 83.8018 226.67 83.8716 226.337 83.9059C225.429 84.0377 224.512 84.1006 223.595 84.0941C220.553 84.0843 217.552 83.3807 214.823 82.0369C212.093 80.6931 209.706 78.7444 207.843 76.3392C207.28 75.6167 206.773 74.8529 206.324 74.0544C206.152 73.7681 206.006 73.4667 205.888 73.1539C206.096 73.4159 206.283 73.6946 206.445 73.9872C206.931 74.7516 207.463 75.4854 208.038 76.1846C209.925 78.5102 212.293 80.3992 214.98 81.7217C217.667 83.0442 220.608 83.7687 223.602 83.8454C224.498 83.8747 225.396 83.8501 226.29 83.7715C226.63 83.7195 226.974 83.6948 227.318 83.6976Z" fill="#455A64"/>
<path d="M224.966 102.816C224.966 102.816 225.342 102.366 225.927 101.472C226.735 100.227 227.279 98.8297 227.526 97.3661C227.855 95.1855 227.426 92.958 226.31 91.056C225.661 89.9394 224.811 88.9527 223.803 88.1462C222.699 87.3042 221.461 86.6544 220.141 86.2243C218.797 85.7337 217.453 85.3641 216.142 84.8803C214.9 84.4263 213.715 83.8263 212.614 83.0928C210.759 81.8405 209.162 80.2436 207.91 78.3888C207.055 77.1444 206.377 75.7875 205.894 74.3568C205.76 73.9715 205.648 73.5788 205.558 73.1808C205.521 73.0418 205.494 72.9003 205.478 72.7574C205.518 72.7574 205.646 73.3219 206.022 74.3097C207.322 77.7875 209.691 80.7636 212.789 82.8105C213.875 83.5223 215.041 84.1042 216.263 84.5443C217.527 85.0147 218.891 85.3843 220.262 85.8883C221.618 86.344 222.888 87.0255 224.018 87.9043C225.057 88.7412 225.928 89.7672 226.585 90.9283C227.725 92.8925 228.144 95.1934 227.768 97.4333C227.497 98.9226 226.906 100.335 226.034 101.573C225.802 101.909 225.546 102.228 225.268 102.527C225.178 102.634 225.076 102.731 224.966 102.816Z" fill="#455A64"/>
<path d="M201.661 109.469C201.661 109.469 201.506 109.549 201.211 109.61C200.783 109.688 200.348 109.719 199.914 109.704C198.477 109.609 197.088 109.146 195.882 108.36C194.66 107.587 193.684 106.482 193.066 105.175C192.882 104.785 192.738 104.377 192.636 103.958C192.584 103.805 192.564 103.643 192.575 103.481C192.636 103.481 192.79 104.153 193.288 105.067C193.94 106.29 194.899 107.323 196.07 108.064C197.242 108.803 198.569 109.263 199.947 109.408C200.989 109.536 201.654 109.408 201.661 109.469Z" fill="#455A64"/>
<path d="M210.007 145.327C208.233 142.639 207.077 131.678 204.772 132.297C201.829 133.076 205.962 144.749 206.251 145.817C206.54 146.886 204.994 147.296 204.786 146.321C204.49 144.917 201.197 131.208 198.328 132.256C196.735 132.841 197.757 135.744 197.757 135.744C197.757 135.744 202.42 149.083 201.049 149.527C199.679 149.97 197.017 142.195 196.11 139.447C195.257 136.806 193.839 136.053 192.858 137.29C191.877 138.526 194.343 146.496 195.149 149.184C195.956 151.872 198.308 159.109 194.222 156.395C190.136 153.68 185.99 153.088 184.774 153.707C183.557 154.325 184.008 156.227 185.506 156.475C187.105 156.909 188.638 157.558 190.062 158.404C191.192 159.097 192.241 159.915 193.187 160.843C194.438 161.992 195.49 163.341 196.298 164.835C196.956 166.007 197.854 167.026 198.933 167.827C200.013 168.627 201.249 169.19 202.561 169.478L203.791 174.498L217.762 169.297L215.437 159.808C213.596 152.564 213.522 147.376 213.098 142.887C212.426 135.724 211.486 135.757 210.672 136.02C208.892 136.557 211.741 147.927 210.007 145.327Z" fill="#FFBE9D"/>
<path d="M212.56 154.56C211.926 154.859 211.313 155.203 210.726 155.588C209.353 156.586 208.34 158 207.836 159.62C207.685 160.108 207.586 160.61 207.541 161.119V161.361L207.326 161.26C206.105 160.708 204.802 160.36 203.468 160.232C202.467 160.131 201.862 160.164 201.855 160.117C202.388 159.992 202.937 159.956 203.482 160.01C204.857 160.073 206.208 160.392 207.467 160.951L207.225 161.092C207.269 160.556 207.37 160.027 207.527 159.513C207.815 158.594 208.27 157.737 208.871 156.986C209.363 156.374 209.948 155.844 210.605 155.413C211.049 155.138 211.522 154.912 212.016 154.741C212.185 154.649 212.37 154.587 212.56 154.56Z" fill="#EB996E"/>
<path d="M213.347 165.184C211.4 166.787 209.017 167.768 206.506 168C206.506 167.899 208.119 167.556 210.007 166.764C211.895 165.971 213.286 165.097 213.347 165.184Z" fill="#EB996E"/>
<path d="M217.419 235.281C214.341 234.985 211.427 233.756 209.066 231.759L186.52 212.701L186.722 234.669L191.191 234.992L189.934 251.328H120.133V250.938C115.839 247.283 113.198 241.772 112.264 235.758C110.564 224.885 109.932 207.164 108.414 194.638C107.352 185.821 109.294 174.404 117.15 170.238L123.198 167.852L142.269 160.339L166.77 161.468L183.127 166.058C187.663 167.778 191.574 173.215 194.362 177.22L207.997 196.19C207.849 193.092 202.205 174.397 201.835 173.557L218.501 166.656C218.501 166.656 235.697 204.866 233.385 221.377C231.457 235.133 217.419 235.281 217.419 235.281Z" fill="#263238"/>
<path d="M184.9 204.637C184.9 204.537 186.426 204.738 188.811 204.389C191.859 203.964 194.739 202.737 197.158 200.834C199.409 199.009 201.05 196.54 201.862 193.758C202.127 192.629 202.323 191.484 202.446 190.331C202.54 190.635 202.574 190.954 202.547 191.271C202.551 192.136 202.449 192.998 202.245 193.838C201.527 196.741 199.874 199.327 197.541 201.197C195.046 203.171 192.042 204.399 188.879 204.738C187.908 204.849 186.93 204.869 185.955 204.799C185.598 204.792 185.243 204.738 184.9 204.637Z" fill="white"/>
<path d="M186.702 234.992C186.87 234.992 187.058 225.738 187.132 214.334C187.206 202.931 187.132 193.67 186.971 193.664C186.809 193.657 186.621 202.91 186.54 214.321C186.46 225.732 186.54 234.985 186.702 234.992Z" fill="#455A64"/>
<path d="M127.996 241.799C128.101 241.011 128.359 240.25 128.755 239.561C129.617 237.848 130.812 236.324 132.271 235.078C133.729 233.833 135.422 232.892 137.25 232.31C137.991 232.025 138.781 231.888 139.575 231.907C139.575 231.995 138.714 232.169 137.384 232.68C133.893 234.014 130.97 236.511 129.105 239.749C128.393 240.986 128.083 241.826 127.996 241.799Z" fill="#455A64"/>
<path d="M136.228 211.263C136.321 211.293 136.411 211.331 136.496 211.378L137.242 211.774C138.211 212.259 139.21 212.68 140.233 213.037C143.998 214.357 148.037 214.704 151.972 214.045C157.819 212.996 163.041 209.744 166.562 204.96C168.664 202.198 169.983 198.92 170.379 195.471C170.573 193.66 170.383 191.828 169.821 190.095C169.23 188.324 168.19 186.736 166.804 185.485C165.448 184.202 163.731 183.367 161.884 183.093C161.012 182.935 160.116 182.978 159.262 183.218C158.409 183.458 157.621 183.888 156.959 184.477C156.66 184.768 156.421 185.114 156.256 185.497C156.091 185.88 156.003 186.292 155.998 186.708C156.015 187.541 156.298 188.346 156.804 189.007C157.874 190.282 159.406 191.082 161.065 191.231C164.178 191.638 167.343 191.184 170.217 189.921C172.517 188.948 174.573 187.48 176.24 185.622C177.907 183.763 179.143 181.56 179.86 179.169C180.364 177.535 180.633 175.838 180.66 174.129C180.672 173.047 180.593 171.965 180.425 170.896C180.364 170.56 180.311 170.285 180.27 170.07C180.243 169.976 180.232 169.878 180.237 169.781C180.697 171.184 180.924 172.652 180.909 174.129C180.922 175.863 180.682 177.591 180.196 179.256C179.56 181.473 178.491 183.542 177.052 185.344C175.137 187.678 172.664 189.491 169.863 190.614C167.061 191.737 164.021 192.134 161.024 191.769C159.226 191.608 157.566 190.741 156.408 189.356C155.828 188.604 155.505 187.685 155.487 186.735C155.492 185.757 155.884 184.82 156.576 184.128C157.296 183.48 158.154 183.004 159.086 182.736C160.017 182.468 160.997 182.416 161.952 182.582C163.909 182.872 165.731 183.753 167.173 185.109C168.63 186.427 169.722 188.098 170.345 189.961C170.93 191.765 171.124 193.673 170.916 195.559C170.508 199.103 169.142 202.469 166.965 205.296C163.979 209.37 159.741 212.353 154.899 213.791C150.057 215.229 144.878 215.042 140.152 213.259C138.763 212.766 137.444 212.095 136.228 211.263Z" fill="white"/>
<path d="M108.797 200.552C108.978 200.236 109.204 199.948 109.469 199.698C110.154 198.969 110.911 198.309 111.727 197.729C114.473 195.837 117.669 194.704 120.994 194.443C122.814 194.241 124.654 194.318 126.45 194.672C127.913 194.974 129.327 195.471 130.657 196.15C131.55 196.601 132.407 197.122 133.217 197.709C133.528 197.905 133.811 198.142 134.057 198.415C133.997 198.509 132.713 197.561 130.489 196.513C127.552 195.151 124.296 194.628 121.081 195.001C117.845 195.264 114.722 196.311 111.982 198.052C109.899 199.436 108.864 200.632 108.797 200.552Z" fill="white"/>
<path d="M115.497 171.844C116.512 172.8 117.641 173.628 118.857 174.31C120.205 174.994 121.668 175.422 123.171 175.573C125.007 175.791 126.867 175.535 128.576 174.829C130.284 174.123 131.783 172.991 132.929 171.541C133.884 170.373 134.615 169.038 135.086 167.604C135.478 166.256 135.704 164.866 135.758 163.464C135.868 163.832 135.916 164.216 135.899 164.6C135.923 165.654 135.783 166.706 135.482 167.718C135.05 169.229 134.324 170.64 133.345 171.871C132.163 173.404 130.598 174.599 128.807 175.335C127.016 176.071 125.063 176.323 123.144 176.064C121.584 175.887 120.074 175.403 118.703 174.639C117.777 174.134 116.934 173.49 116.203 172.731C115.921 172.475 115.683 172.176 115.497 171.844Z" fill="white"/>
<path d="M151.14 230.039C151.144 229.773 151.173 229.507 151.227 229.246C151.375 228.493 151.624 227.763 151.966 227.076C152.813 225.275 154.916 223.01 158.236 221.632C161.556 220.255 166.011 219.878 170.547 221.196C172.765 221.868 175.305 222.667 176.965 224.824C177.389 225.378 177.656 226.036 177.739 226.729C177.822 227.422 177.717 228.124 177.435 228.762C176.789 230.012 175.737 231.005 174.451 231.578C173.217 232.191 171.864 232.528 170.487 232.566C169.119 232.634 167.771 232.215 166.683 231.383C166.178 230.954 165.766 230.426 165.473 229.832C165.179 229.238 165.01 228.591 164.976 227.929C164.903 226.695 165.098 225.459 165.547 224.307C167.174 220.381 170.27 217.246 174.176 215.571C176.762 214.421 179.594 213.936 182.415 214.16C183.442 214.236 184.454 214.448 185.425 214.791C185.425 214.865 184.357 214.509 182.401 214.375C179.627 214.238 176.861 214.773 174.337 215.934C172.6 216.724 171.009 217.803 169.633 219.126C168.055 220.636 166.824 222.47 166.024 224.502C165.611 225.588 165.432 226.749 165.5 227.909C165.531 228.497 165.682 229.073 165.943 229.601C166.204 230.129 166.57 230.598 167.019 230.98C168.011 231.725 169.234 232.096 170.473 232.028C171.766 231.99 173.036 231.674 174.196 231.101C175.363 230.578 176.323 229.682 176.924 228.554C177.159 228.008 177.245 227.409 177.173 226.819C177.101 226.228 176.874 225.668 176.514 225.194C175.764 224.247 174.805 223.486 173.712 222.97C172.647 222.461 171.538 222.05 170.399 221.74C165.957 220.396 161.596 220.665 158.384 222.049C155.767 222.995 153.564 224.825 152.154 227.223C151.703 228.117 151.363 229.063 151.14 230.039Z" fill="white"/>
<path d="M110.537 221.76C110.695 221.669 110.864 221.601 111.041 221.558C111.377 221.444 111.881 221.29 112.533 221.128C114.392 220.632 116.317 220.435 118.238 220.544C119.575 220.645 120.886 220.97 122.116 221.505C123.551 222.12 124.799 223.1 125.738 224.347C126.767 225.757 127.265 227.485 127.142 229.226C127.08 230.148 126.804 231.043 126.336 231.84C125.846 232.692 125.07 233.342 124.145 233.675C123.666 233.837 123.152 233.872 122.656 233.774C122.16 233.676 121.697 233.449 121.316 233.117C120.646 232.41 120.278 231.47 120.288 230.496C120.23 228.783 120.565 227.079 121.269 225.516C121.852 224.194 122.692 223 123.741 222.006C124.789 221.011 126.026 220.236 127.377 219.724C129.194 219.038 131.16 218.844 133.076 219.159C133.59 219.243 134.096 219.371 134.588 219.542C134.766 219.592 134.935 219.667 135.092 219.764C135.092 219.818 134.373 219.536 133.076 219.374C131.206 219.151 129.309 219.398 127.559 220.093C124.964 221.133 122.886 223.157 121.78 225.725C121.119 227.216 120.807 228.839 120.866 230.469C120.846 231.291 121.136 232.09 121.679 232.707C121.989 232.969 122.362 233.147 122.761 233.222C123.16 233.297 123.572 233.268 123.957 233.137C124.753 232.839 125.42 232.274 125.845 231.538C126.277 230.816 126.537 230.004 126.605 229.165C126.72 227.55 126.265 225.945 125.321 224.629C124.449 223.461 123.292 222.536 121.961 221.941C120.782 221.411 119.525 221.078 118.238 220.954C116.356 220.812 114.464 220.946 112.62 221.35C111.27 221.619 110.551 221.814 110.537 221.76Z" fill="white"/>
<path d="M214.368 224.986C214.264 224.917 214.169 224.836 214.086 224.744C213.827 224.503 213.58 224.25 213.347 223.984C212.485 223.005 211.747 221.924 211.149 220.765C210.261 219.047 209.604 217.219 209.194 215.329C208.701 213.023 208.42 210.677 208.354 208.32C208.253 205.813 208.354 203.414 208.273 201.264C208.177 199.349 207.968 197.442 207.648 195.552C207.393 193.932 207.131 192.636 206.976 191.735C206.889 191.318 206.821 190.976 206.768 190.7C206.733 190.582 206.715 190.46 206.714 190.337C206.772 190.447 206.813 190.565 206.835 190.687C206.902 190.915 206.996 191.258 207.104 191.708C207.332 192.595 207.628 193.892 207.917 195.505C208.266 197.401 208.491 199.318 208.589 201.244C208.669 203.421 208.589 205.8 208.696 208.3C208.753 210.642 209.018 212.974 209.489 215.268C209.883 217.131 210.509 218.937 211.351 220.644C211.922 221.799 212.619 222.887 213.427 223.89C214.012 224.603 214.368 224.959 214.368 224.986Z" fill="#455A64"/>
<path d="M211.008 220.9C208.075 222.418 205.466 224.493 203.327 227.008C203.533 226.563 203.807 226.153 204.14 225.792C204.885 224.874 205.728 224.041 206.654 223.306C207.578 222.568 208.581 221.935 209.644 221.417C210.069 221.175 210.529 221.001 211.008 220.9Z" fill="white"/>
<path d="M230.738 200.558C230.444 200.706 230.138 200.83 229.824 200.928C229.233 201.13 228.366 201.419 227.317 201.822C224.582 202.849 221.968 204.174 219.522 205.773C216.659 207.648 214.449 209.845 212.708 211.297C212.042 211.906 211.261 212.374 210.41 212.675C210.175 212.75 209.931 212.791 209.684 212.796C209.516 212.796 209.429 212.796 209.429 212.796C209.746 212.735 210.06 212.659 210.37 212.567C211.179 212.221 211.919 211.732 212.554 211.122C214.227 209.651 216.431 207.399 219.334 205.504C221.792 203.877 224.445 202.565 227.23 201.6C228.292 201.224 229.172 200.968 229.777 200.807C230.088 200.691 230.41 200.608 230.738 200.558Z" fill="white"/>
<path d="M223.931 179.928C223.699 180.005 223.457 180.051 223.212 180.062L221.243 180.358C219.583 180.613 217.298 181.03 214.792 181.554C212.285 182.078 210.041 182.676 208.448 183.201C206.855 183.725 205.921 184.175 205.895 184.128C206.086 183.971 206.298 183.842 206.526 183.745C207.126 183.453 207.74 183.192 208.367 182.965C210.443 182.239 212.564 181.653 214.718 181.212C217.231 180.674 219.536 180.304 221.209 180.109C222.049 180.015 222.728 179.955 223.225 179.928C223.46 179.9 223.697 179.9 223.931 179.928Z" fill="white"/>
<path d="M177.885 95.7197C173.638 94.5706 169.384 98.4883 165.036 97.7894C162.395 97.3594 160.332 95.3366 157.974 94.1136C154.419 92.279 149.48 92.0976 145.978 94.0598C142.477 96.0221 140.246 97.9978 139.93 101.983C136.624 100.229 131.356 104.496 129.649 108.494C127.942 112.493 128.54 116.558 129.723 120.732C131.781 127.957 135.238 134.708 139.897 140.603C140.307 141.12 140.959 141.691 141.543 141.389C141.728 141.253 141.878 141.075 141.98 140.869C142.082 140.663 142.132 140.436 142.128 140.206C142.618 136.322 141.994 132.404 141.53 128.52C141.066 124.636 140.764 120.631 141.866 116.881C142.968 113.131 145.763 109.644 149.567 108.756C152.383 108.084 155.353 108.924 157.92 110.255C160.487 111.586 162.758 113.393 165.211 114.959C167.664 116.525 170.399 117.748 173.275 117.775C176.151 117.802 179.209 116.343 180.351 113.689C181.494 111.035 179.988 107.365 177.146 106.868C178.45 106.701 179.656 106.087 180.558 105.131C181.459 104.174 182.001 102.934 182.091 101.623C182.181 100.311 181.812 99.0089 181.049 97.9385C180.286 96.8681 179.174 96.0958 177.905 95.7533L177.885 95.7197Z" fill="#263238"/>
<path d="M135.798 121.713L141.456 165.198C141.684 166.949 142.265 168.637 143.165 170.157C144.064 171.677 145.263 172.999 146.689 174.041C148.115 175.084 149.738 175.826 151.46 176.222C153.181 176.618 154.965 176.661 156.704 176.346C160.002 175.75 162.944 173.908 164.922 171.203C166.899 168.497 167.761 165.134 167.328 161.811C166.898 158.538 166.542 155.81 166.522 155.467C166.522 155.467 177.455 152.987 176.83 141.926C176.528 136.584 175.009 125.624 173.517 115.718C172.735 110.599 170.057 105.96 166.013 102.723C161.97 99.4865 156.857 97.8885 151.691 98.2464L150.622 98.3203C139.164 99.7651 134.017 110.309 135.798 121.713Z" fill="#FFBE9D"/>
<path d="M166.522 155.306C161.439 155.746 156.341 154.668 151.872 152.208C151.872 152.208 155.823 159.923 166.784 158.169L166.522 155.306Z" fill="#EB996E"/>
<path d="M169.384 123.648C169.418 124.059 169.289 124.467 169.025 124.783C168.761 125.1 168.383 125.301 167.973 125.341C167.771 125.371 167.566 125.359 167.369 125.306C167.171 125.254 166.987 125.162 166.826 125.036C166.666 124.911 166.532 124.754 166.433 124.576C166.335 124.397 166.273 124.2 166.253 123.997C166.221 123.587 166.35 123.18 166.614 122.864C166.878 122.547 167.254 122.347 167.664 122.304C167.866 122.274 168.072 122.285 168.27 122.337C168.467 122.389 168.652 122.481 168.813 122.607C168.974 122.732 169.107 122.89 169.206 123.069C169.304 123.248 169.365 123.445 169.384 123.648Z" fill="#263238"/>
<path d="M171.515 121.316C171.333 121.531 170.077 120.732 168.376 120.852C166.676 120.973 165.494 121.908 165.292 121.713C165.198 121.632 165.373 121.242 165.883 120.812C166.585 120.253 167.441 119.922 168.336 119.865C169.219 119.801 170.099 120.02 170.849 120.49C171.4 120.859 171.602 121.215 171.515 121.316Z" fill="#263238"/>
<path d="M153.048 124.77C153.08 125.182 152.951 125.589 152.688 125.907C152.424 126.224 152.047 126.426 151.637 126.47C151.437 126.5 151.234 126.489 151.038 126.439C150.843 126.388 150.659 126.3 150.499 126.178C150.338 126.056 150.203 125.903 150.102 125.728C150.001 125.553 149.936 125.36 149.91 125.16C149.878 124.749 150.007 124.341 150.271 124.024C150.534 123.706 150.911 123.504 151.321 123.46C151.521 123.431 151.725 123.441 151.92 123.492C152.116 123.542 152.299 123.631 152.46 123.753C152.621 123.875 152.755 124.027 152.857 124.202C152.958 124.377 153.023 124.57 153.048 124.77Z" fill="#263238"/>
<path d="M154.842 122.781C154.66 123.003 153.404 122.203 151.704 122.324C150.003 122.445 148.821 123.379 148.626 123.184C148.525 123.097 148.7 122.714 149.217 122.284C149.915 121.722 150.769 121.391 151.663 121.336C152.546 121.272 153.427 121.491 154.177 121.961C154.728 122.304 154.929 122.687 154.842 122.781Z" fill="#263238"/>
<path d="M161.872 134.951C161.872 134.857 162.9 134.602 164.6 134.279C165.03 134.205 165.433 134.091 165.487 133.788C165.492 133.337 165.361 132.894 165.111 132.518C164.627 131.504 164.123 130.428 163.599 129.306C161.489 124.73 159.936 120.953 160.118 120.873C160.299 120.792 162.134 124.428 164.271 129.011C164.775 130.14 165.265 131.215 165.729 132.243C166.036 132.748 166.157 133.345 166.072 133.93C166.017 134.085 165.929 134.226 165.813 134.342C165.696 134.459 165.555 134.547 165.4 134.602C165.163 134.682 164.917 134.734 164.667 134.756C162.954 134.964 161.885 135.072 161.872 134.951Z" fill="#263238"/>
<path d="M156.959 136.47C157.235 136.436 157.363 138.277 159.029 139.48C160.696 140.683 162.645 140.34 162.678 140.596C162.678 140.71 162.268 140.986 161.442 141.066C160.363 141.156 159.287 140.861 158.404 140.233C157.557 139.632 156.974 138.727 156.778 137.706C156.657 136.94 156.832 136.47 156.959 136.47Z" fill="#263238"/>
<path d="M154.822 116.101C154.688 116.572 152.974 116.471 150.998 116.847C149.023 117.224 147.45 117.882 147.155 117.519C147.027 117.331 147.276 116.847 147.894 116.384C148.721 115.773 149.678 115.36 150.691 115.177C151.703 114.994 152.744 115.046 153.733 115.329C154.486 115.537 154.876 115.873 154.822 116.101Z" fill="#263238"/>
<path d="M170.547 116.444C170.278 116.847 169.082 116.532 167.671 116.605C166.26 116.679 165.09 117.049 164.788 116.659C164.654 116.478 164.788 116.075 165.312 115.671C165.981 115.186 166.778 114.91 167.604 114.879C168.43 114.848 169.246 115.063 169.949 115.497C170.48 115.86 170.688 116.256 170.547 116.444Z" fill="#263238"/>
<path d="M137.263 129.837C137.068 129.763 129.515 128.11 130.281 135.65C131.047 143.19 138.432 140.865 138.432 140.65C138.432 140.435 137.263 129.837 137.263 129.837Z" fill="#FFBE9D"/>
<path d="M135.851 138.029C135.851 138.029 135.73 138.13 135.515 138.257C135.216 138.421 134.865 138.464 134.534 138.378C133.714 138.163 132.915 136.967 132.74 135.616C132.655 134.971 132.715 134.314 132.915 133.694C132.962 133.452 133.068 133.224 133.222 133.031C133.376 132.838 133.575 132.685 133.802 132.586C133.949 132.53 134.111 132.528 134.259 132.579C134.408 132.631 134.534 132.733 134.615 132.868C134.736 133.069 134.702 133.224 134.743 133.237C134.783 133.251 134.89 133.09 134.803 132.787C134.741 132.603 134.618 132.447 134.454 132.344C134.344 132.277 134.222 132.232 134.095 132.213C133.968 132.193 133.839 132.199 133.714 132.229C133.411 132.321 133.135 132.489 132.915 132.717C132.695 132.945 132.538 133.226 132.458 133.533C132.201 134.219 132.118 134.958 132.216 135.684C132.417 137.196 133.338 138.54 134.46 138.741C134.669 138.78 134.884 138.771 135.088 138.715C135.293 138.659 135.483 138.558 135.643 138.419C135.858 138.21 135.878 138.036 135.851 138.029Z" fill="#EB996E"/>
<path d="M175.695 113.272C173.29 114.07 170.73 114.285 168.227 113.9C165.723 113.514 163.347 112.539 161.294 111.055C158.451 108.965 156.146 105.833 152.712 105.007C151.542 104.779 150.337 104.786 149.17 105.029C148.002 105.271 146.895 105.743 145.911 106.418C143.951 107.778 142.293 109.528 141.039 111.559C143.559 117.029 142.558 123.393 141.51 129.326C141.462 129.994 141.195 130.627 140.75 131.127C139.904 131.88 138.526 131.436 137.693 130.67C136.349 129.454 135.744 127.64 135.301 125.886C134.233 121.892 133.971 117.725 134.528 113.628C135.103 109.518 136.869 105.666 139.608 102.547C143.184 98.7577 148.092 96.505 153.297 96.264C158.485 96.0619 163.605 97.5036 167.926 100.383C169.987 101.617 171.707 103.345 172.933 105.41" fill="#263238"/>
<path d="M181.245 98.1591C181.291 98.3807 181.291 98.6094 181.245 98.8311C181.107 99.4626 180.773 100.034 180.291 100.464C179.515 101.124 178.551 101.522 177.535 101.6C176.91 101.674 176.279 101.674 175.654 101.6C174.925 101.534 174.228 101.272 173.638 100.84C173.312 100.6 173.045 100.288 172.857 99.9301C172.668 99.5717 172.563 99.1753 172.549 98.7706C172.58 98.3303 172.735 97.9078 172.995 97.5513C173.256 97.1947 173.611 96.9187 174.021 96.7546C174.441 96.5602 174.902 96.4681 175.365 96.4858C175.852 96.5132 176.321 96.6865 176.709 96.9831C177.106 97.2858 177.432 97.6719 177.665 98.1142C177.897 98.5565 178.029 99.0444 178.053 99.5434C178.102 100.589 177.743 101.614 177.051 102.399C176.343 103.199 175.437 103.8 174.424 104.14C172.288 104.784 169.998 104.694 167.919 103.884C165.872 103.118 163.919 102.119 162.099 100.908C160.42 99.7987 158.651 98.8321 156.811 98.0179C155.148 97.2975 153.336 96.9886 151.529 97.1175C149.96 97.2739 148.445 97.7765 147.094 98.5891C145.129 99.7891 143.509 101.477 142.39 103.488C142.075 104.03 141.79 104.589 141.536 105.161C141.457 105.364 141.365 105.562 141.261 105.753C141.266 105.697 141.279 105.643 141.301 105.591C141.341 105.491 141.388 105.329 141.469 105.134C141.693 104.545 141.958 103.973 142.262 103.421C143.35 101.344 144.974 99.5967 146.966 98.3607C148.331 97.5037 149.868 96.9598 151.468 96.768C153.326 96.618 155.193 96.9248 156.905 97.6618C158.777 98.4681 160.576 99.4349 162.281 100.551C164.07 101.743 165.989 102.728 168 103.488C170 104.272 172.204 104.364 174.263 103.75C175.214 103.442 176.067 102.888 176.736 102.144C177.054 101.793 177.3 101.383 177.459 100.936C177.618 100.49 177.687 100.017 177.663 99.5434C177.649 99.0964 177.539 98.6578 177.339 98.2576C177.139 97.8574 176.856 97.5051 176.507 97.225C176.171 96.9767 175.773 96.8259 175.357 96.7891C174.941 96.7524 174.523 96.8311 174.148 97.0167C173.78 97.1513 173.457 97.3886 173.219 97.7005C172.981 98.0125 172.837 98.3862 172.804 98.7773C172.814 99.1397 172.906 99.495 173.074 99.8164C173.242 100.138 173.48 100.417 173.772 100.632C174.313 101.039 174.954 101.292 175.627 101.364C176.234 101.435 176.847 101.435 177.455 101.364C178.437 101.309 179.377 100.947 180.143 100.33C180.611 99.9232 180.95 99.3881 181.117 98.7907C181.172 98.5829 181.215 98.3719 181.245 98.1591Z" fill="#455A64"/>
<path d="M128.715 115.093C129.483 115.314 130.271 115.462 131.067 115.537C131.926 115.555 132.779 115.404 133.58 115.093C134.564 114.712 135.485 114.186 136.315 113.534C137.818 112.34 138.891 110.689 139.373 108.83C139.538 108.048 139.65 107.256 139.709 106.458C139.781 106.674 139.811 106.903 139.796 107.13C139.81 107.728 139.753 108.326 139.628 108.911C139.209 110.873 138.121 112.629 136.55 113.877C135.687 114.553 134.723 115.09 133.694 115.47C132.85 115.779 131.95 115.907 131.053 115.846C130.452 115.8 129.861 115.664 129.299 115.443C129.086 115.36 128.888 115.242 128.715 115.093Z" fill="#455A64"/>
<path d="M129.421 120.537C129.421 120.469 130.321 120.604 131.746 120.429C133.596 120.207 135.353 119.492 136.832 118.36C138.312 117.227 139.461 115.719 140.159 113.991C140.704 112.647 140.831 111.767 140.872 111.78C140.91 111.989 140.91 112.203 140.872 112.412C140.78 112.982 140.636 113.542 140.442 114.085C139.79 115.9 138.629 117.489 137.097 118.66C135.566 119.832 133.729 120.537 131.807 120.691C131.232 120.745 130.654 120.745 130.079 120.691C129.852 120.681 129.629 120.629 129.421 120.537Z" fill="#455A64"/>
<path d="M149.701 130.368C149.662 130.384 149.619 130.388 149.578 130.379C149.536 130.37 149.499 130.349 149.47 130.318C149.441 130.288 149.422 130.249 149.415 130.207C149.409 130.165 149.416 130.122 149.434 130.084C149.453 130.046 149.482 130.015 149.519 129.994C149.556 129.973 149.598 129.964 149.64 129.968C149.682 129.972 149.722 129.988 149.755 130.015C149.787 130.042 149.811 130.079 149.822 130.119C149.83 130.144 149.834 130.169 149.833 130.195C149.831 130.221 149.825 130.246 149.813 130.269C149.802 130.292 149.786 130.313 149.767 130.33C149.748 130.347 149.725 130.36 149.701 130.368Z" fill="#EB996E"/>
<path d="M152.893 129.434C152.849 129.459 152.799 129.469 152.749 129.464C152.699 129.458 152.651 129.438 152.614 129.404C152.576 129.371 152.55 129.327 152.538 129.277C152.527 129.228 152.531 129.177 152.551 129.131C152.57 129.084 152.603 129.045 152.646 129.018C152.689 128.991 152.739 128.979 152.789 128.982C152.839 128.985 152.887 129.003 152.926 129.035C152.965 129.067 152.994 129.11 153.007 129.158C153.018 129.184 153.024 129.211 153.024 129.239C153.024 129.267 153.019 129.295 153.008 129.32C152.998 129.346 152.982 129.369 152.962 129.389C152.942 129.408 152.919 129.424 152.893 129.434Z" fill="#EB996E"/>
<path d="M155.071 129.226C154.97 129.226 154.862 129.132 154.829 128.964C154.795 128.796 154.829 128.648 154.956 128.628C155.084 128.607 155.165 128.722 155.198 128.89C155.232 129.058 155.171 129.205 155.071 129.226Z" fill="#EB996E"/>
<path d="M151.435 132.317C151.328 132.317 151.24 132.276 151.24 132.209C151.24 132.142 151.314 132.088 151.415 132.082C151.516 132.075 151.61 132.122 151.61 132.189C151.61 132.256 151.536 132.31 151.435 132.317Z" fill="#EB996E"/>
<path d="M154.359 131.423C154.317 131.435 154.272 131.433 154.231 131.419C154.19 131.405 154.154 131.379 154.128 131.344C154.102 131.309 154.088 131.267 154.086 131.223C154.085 131.18 154.096 131.137 154.12 131.1C154.143 131.063 154.177 131.035 154.217 131.018C154.257 131.001 154.302 130.996 154.344 131.005C154.387 131.014 154.426 131.036 154.456 131.067C154.486 131.098 154.506 131.138 154.513 131.181C154.52 131.207 154.522 131.234 154.517 131.261C154.513 131.288 154.504 131.313 154.489 131.336C154.475 131.359 154.455 131.378 154.433 131.393C154.411 131.408 154.385 131.418 154.359 131.423Z" fill="#EB996E"/>
<path d="M169.72 128.507C169.68 128.524 169.635 128.529 169.592 128.52C169.549 128.512 169.51 128.491 169.48 128.459C169.449 128.428 169.429 128.388 169.422 128.345C169.415 128.301 169.421 128.257 169.44 128.217C169.458 128.178 169.489 128.145 169.527 128.123C169.565 128.101 169.608 128.092 169.652 128.095C169.696 128.099 169.737 128.116 169.771 128.144C169.805 128.172 169.829 128.209 169.841 128.251C169.851 128.276 169.855 128.302 169.854 128.329C169.853 128.355 169.847 128.381 169.835 128.405C169.824 128.429 169.808 128.45 169.788 128.468C169.768 128.485 169.745 128.498 169.72 128.507Z" fill="#EB996E"/>
<path d="M171.917 128.15C171.817 128.15 171.716 128.076 171.689 127.949C171.674 127.894 171.682 127.837 171.709 127.788C171.737 127.739 171.783 127.702 171.837 127.687C171.938 127.687 172.038 127.761 172.059 127.888C172.067 127.915 172.07 127.943 172.067 127.97C172.064 127.998 172.056 128.025 172.043 128.049C172.03 128.073 172.012 128.095 171.99 128.112C171.969 128.13 171.944 128.143 171.917 128.15Z" fill="#EB996E"/>
<path d="M167.772 128.695C167.75 128.707 167.725 128.713 167.7 128.715C167.675 128.716 167.65 128.711 167.626 128.701C167.603 128.691 167.583 128.676 167.566 128.657C167.549 128.638 167.537 128.616 167.53 128.591C167.524 128.567 167.523 128.542 167.527 128.517C167.532 128.492 167.542 128.469 167.556 128.448C167.571 128.428 167.59 128.411 167.613 128.399C167.635 128.387 167.659 128.38 167.685 128.379C167.707 128.367 167.731 128.36 167.757 128.359C167.782 128.358 167.807 128.363 167.83 128.372C167.853 128.382 167.874 128.397 167.89 128.416C167.907 128.435 167.919 128.458 167.926 128.482C167.933 128.506 167.934 128.532 167.929 128.557C167.925 128.582 167.915 128.605 167.9 128.625C167.885 128.646 167.866 128.663 167.844 128.675C167.822 128.687 167.797 128.694 167.772 128.695Z" fill="#EB996E"/>
<path d="M169.559 130.791C169.536 130.802 169.51 130.809 169.484 130.81C169.458 130.81 169.431 130.806 169.407 130.797C169.382 130.787 169.36 130.773 169.341 130.755C169.322 130.737 169.308 130.715 169.297 130.691C169.282 130.669 169.271 130.644 169.265 130.617C169.26 130.591 169.261 130.564 169.267 130.538C169.273 130.512 169.284 130.487 169.301 130.466C169.317 130.444 169.338 130.427 169.362 130.414C169.385 130.402 169.412 130.394 169.438 130.393C169.465 130.391 169.492 130.395 169.517 130.405C169.542 130.414 169.565 130.429 169.584 130.448C169.603 130.468 169.617 130.491 169.627 130.516C169.654 130.561 169.662 130.616 169.65 130.667C169.637 130.719 169.605 130.764 169.559 130.791Z" fill="#EB996E"/>
<path d="M171.427 130.287C171.404 130.285 171.382 130.278 171.362 130.267C171.342 130.255 171.324 130.24 171.309 130.222C171.295 130.204 171.284 130.183 171.278 130.161C171.272 130.139 171.27 130.115 171.273 130.092C171.275 130.054 171.288 130.018 171.312 129.987C171.335 129.957 171.367 129.935 171.403 129.923C171.44 129.911 171.479 129.911 171.515 129.922C171.552 129.933 171.584 129.955 171.608 129.985C171.632 130.015 171.646 130.052 171.648 130.09C171.651 130.128 171.642 130.166 171.622 130.199C171.603 130.232 171.573 130.258 171.539 130.273C171.504 130.289 171.465 130.294 171.427 130.287Z" fill="#EB996E"/>
<path d="M132.968 140.287C132.832 140.854 132.802 141.442 132.881 142.02C132.994 142.627 133.326 143.17 133.815 143.546C134.103 143.774 134.441 143.928 134.802 143.996C135.163 144.064 135.534 144.043 135.885 143.936C136.225 143.813 136.527 143.604 136.763 143.33C136.998 143.055 137.159 142.725 137.229 142.37C137.287 141.757 137.133 141.142 136.792 140.629C136.496 140.126 136.086 139.698 135.596 139.38C135.596 139.326 136.375 139.507 137.021 140.488C137.432 141.045 137.628 141.733 137.572 142.424C137.499 142.85 137.313 143.248 137.032 143.577C136.752 143.906 136.388 144.153 135.979 144.292C135.57 144.419 135.136 144.442 134.716 144.358C134.296 144.275 133.903 144.088 133.573 143.815C133.032 143.379 132.68 142.75 132.592 142.061C132.523 141.61 132.564 141.148 132.713 140.717C132.841 140.448 132.948 140.28 132.968 140.287Z" fill="#263238"/>
<path d="M132.901 139.01C132.901 138.97 133.184 139.084 133.358 139.494C133.447 139.741 133.447 140.012 133.358 140.26C133.304 140.415 133.215 140.556 133.099 140.673C132.983 140.789 132.842 140.877 132.686 140.932C132.526 140.984 132.355 140.997 132.188 140.967C132.022 140.938 131.865 140.868 131.732 140.764C131.623 140.681 131.536 140.573 131.477 140.449C131.419 140.325 131.391 140.189 131.396 140.052C131.43 139.581 131.739 139.44 131.752 139.48C131.766 139.521 131.618 139.709 131.665 140.045C131.675 140.134 131.704 140.22 131.75 140.296C131.796 140.373 131.859 140.439 131.934 140.488C132.025 140.549 132.128 140.588 132.236 140.603C132.344 140.619 132.455 140.609 132.559 140.576C132.665 140.537 132.761 140.476 132.842 140.397C132.924 140.318 132.987 140.224 133.029 140.119C133.106 139.941 133.124 139.743 133.083 139.554C133.056 139.232 132.861 139.05 132.901 139.01Z" fill="#263238"/>
<path d="M191.009 237.088L189.726 251.328H196.446L202.386 251.234C204.649 251.48 206.928 251.541 209.2 251.415C209.31 251.417 209.418 251.391 209.516 251.341C209.868 251.293 210.215 251.209 210.551 251.093C211.156 250.871 211.781 250.481 211.687 249.816C211.391 247.8 210.181 247.612 210.181 247.612L209.57 247.572L209.523 247.397C210.443 247.397 211.216 247.397 211.626 247.33C211.821 247.33 211.928 247.283 211.942 247.256C211.955 247.229 214.321 246.973 214.139 245.717C213.85 243.701 212.634 243.513 212.634 243.513L210.679 243.385C211.626 243.385 212.432 243.385 212.856 243.318C213.044 243.318 213.158 243.277 213.172 243.251C213.185 243.224 215.551 242.962 215.369 241.705C215.073 239.689 213.864 239.508 213.864 239.508L212.244 239.393C213.01 239.393 213.649 239.393 214.005 239.333C214.2 239.333 214.307 239.286 214.321 239.259C214.334 239.232 216.7 238.977 216.518 237.72C216.229 235.704 215.013 235.516 215.013 235.516C215.013 235.516 211.27 235.247 208.703 235.146C208.703 235.146 205.786 232.512 204.671 232.633C202.957 232.814 192.978 236.504 192.978 236.504L191.009 237.088Z" fill="#FFBE9D"/>
<path d="M203.616 247.128C203.616 247.249 205.115 247.39 206.943 247.451C208.77 247.511 210.249 247.451 210.235 247.343C210.222 247.236 208.737 247.081 206.909 247.02C205.081 246.96 203.616 247.014 203.616 247.128Z" fill="#EB996E"/>
<path d="M203.576 243.103C203.576 243.217 205.693 243.392 208.28 243.486C210.867 243.58 212.984 243.553 213.024 243.439C213.065 243.324 210.908 243.143 208.32 243.056C205.733 242.968 203.616 242.982 203.576 243.103Z" fill="#EB996E"/>
<g opacity="0.78">
<path d="M203.918 239.004C203.918 239.124 206.028 239.299 208.622 239.387C211.216 239.474 213.366 239.46 213.366 239.34C213.366 239.219 211.256 239.051 208.662 238.956C206.068 238.862 203.918 238.889 203.918 239.004Z" fill="#EB996E"/>
</g>
<path d="M209.785 235.16C209.289 235.251 208.785 235.289 208.28 235.274L204.645 235.395L201.009 235.523C200.507 235.583 199.999 235.583 199.497 235.523C199.986 235.388 200.489 235.312 200.996 235.294C201.923 235.2 203.213 235.106 204.631 235.059C206.049 235.012 207.319 235.012 208.28 235.059C208.784 235.03 209.29 235.063 209.785 235.16Z" fill="#EB996E"/>
<path d="M191.191 234.992H190.956L190.284 234.958L187.663 234.804L178.033 234.212C169.895 233.715 158.653 233.009 146.234 232.378L139.581 232.075H139.42V231.914C139.319 229.226 139.071 226.578 138.876 224.052C138.681 221.525 138.452 219.099 138.251 216.801C137.848 212.204 137.485 208.105 137.176 204.671C136.867 201.237 136.638 198.516 136.504 196.607C136.423 195.68 136.369 194.954 136.322 194.436C136.322 194.201 136.322 194.013 136.289 193.872C136.283 193.807 136.283 193.742 136.289 193.677C136.309 193.738 136.32 193.801 136.322 193.865C136.322 194.013 136.363 194.195 136.396 194.43C136.45 194.947 136.531 195.673 136.631 196.6C136.826 198.509 137.102 201.251 137.444 204.664C137.787 208.078 138.164 212.191 138.6 216.76C138.802 219.059 139.017 221.464 139.272 224.011C139.528 226.558 139.729 229.159 139.837 231.9L139.669 231.726L146.328 232.021C158.747 232.653 169.989 233.399 178.121 233.957L187.75 234.629L190.364 234.844L191.036 234.911L191.191 234.992Z" fill="#455A64"/>
<path d="M144.238 251.328C144.095 251.102 143.982 250.858 143.902 250.602C143.778 250.317 143.675 250.022 143.593 249.722C143.463 249.328 143.357 248.926 143.277 248.519C143.164 248.027 143.081 247.529 143.028 247.027C142.961 246.454 142.923 245.877 142.914 245.3C142.885 242.635 143.479 240.001 144.648 237.606C144.904 237.087 145.186 236.583 145.495 236.094C145.761 235.666 146.051 235.254 146.361 234.857C146.609 234.507 146.879 234.173 147.168 233.856C147.372 233.613 147.597 233.389 147.84 233.184C148.027 232.993 148.232 232.82 148.451 232.667C148.505 232.72 147.645 233.473 146.577 234.945C146.284 235.345 146.013 235.76 145.763 236.188C145.474 236.638 145.233 237.156 144.957 237.686C143.833 240.061 143.246 242.653 143.237 245.28C143.235 245.848 143.262 246.415 143.317 246.98C143.356 247.474 143.423 247.966 143.519 248.452C143.855 250.226 144.305 251.274 144.238 251.328Z" fill="white"/>
<path d="M232.767 251.382C232.767 251.476 204.785 251.556 170.271 251.556C135.757 251.556 107.775 251.476 107.775 251.382C107.775 251.288 135.751 251.207 170.271 251.207C204.792 251.207 232.767 251.281 232.767 251.382Z" fill="#263238"/>
<path d="M217.903 31.584L121.968 31.4966C119.221 31.4949 116.5 32.0348 113.962 33.0856C111.423 34.1363 109.117 35.6773 107.175 37.6203C105.232 39.5632 103.692 41.8701 102.642 44.4089C101.592 46.9477 101.053 49.6687 101.056 52.416L101.009 292.938C101.014 298.476 103.216 303.785 107.132 307.701C111.048 311.616 116.357 313.819 121.895 313.824L217.836 313.878C220.58 313.88 223.298 313.341 225.834 312.292C228.37 311.243 230.674 309.705 232.616 307.766C234.557 305.826 236.097 303.523 237.148 300.988C238.2 298.453 238.741 295.736 238.742 292.992L238.789 52.4698C238.787 46.9311 236.586 41.6197 232.67 37.7033C228.753 33.7868 223.442 31.5858 217.903 31.584ZM232.385 289.491C232.382 291.413 232.001 293.315 231.263 295.089C230.525 296.864 229.444 298.475 228.083 299.832C226.722 301.189 225.107 302.264 223.331 302.996C221.554 303.729 219.65 304.104 217.728 304.1L121.982 304.046C120.06 304.046 118.157 303.666 116.381 302.93C114.606 302.193 112.993 301.115 111.635 299.755C110.276 298.395 109.199 296.781 108.464 295.005C107.729 293.229 107.352 291.326 107.352 289.404L107.4 54.6403C107.399 52.7175 107.777 50.8133 108.512 49.0367C109.248 47.2601 110.327 45.646 111.687 44.2866C113.047 42.9273 114.661 41.8494 116.438 41.1145C118.215 40.3797 120.12 40.0024 122.042 40.0042H144.89C146.112 40.0324 147.273 40.543 148.119 41.4245C148.965 42.3059 149.428 43.4865 149.406 44.7082V48.0682C149.385 49.2898 149.847 50.4704 150.694 51.3519C151.54 52.2333 152.701 52.7439 153.922 52.7722H190.21C191.433 52.7475 192.597 52.2381 193.445 51.3561C194.293 50.4741 194.756 49.2915 194.733 48.0682V44.7082C194.709 43.486 195.171 42.3044 196.018 41.4226C196.865 40.5407 198.026 40.0306 199.248 40.0042H217.849C219.772 40.0112 221.674 40.397 223.448 41.1395C225.221 41.8819 226.831 42.9666 228.185 44.3314C229.54 45.6962 230.612 47.3144 231.34 49.0936C232.069 50.8728 232.44 52.7782 232.432 54.7008L232.385 289.491Z" fill="#263238"/>
<path d="M197.817 251.382H148.035V273.544H197.817V251.382Z" fill="#263238"/>
<path d="M232.392 251.382H189.572C189.572 260.823 181.508 268.504 171.67 268.504C161.832 268.504 153.774 260.823 153.774 251.382H107.406V289.787C107.408 293.663 108.947 297.379 111.686 300.122C114.425 302.865 118.14 304.409 122.016 304.416L217.762 304.47C219.685 304.472 221.589 304.094 223.366 303.359C225.143 302.625 226.758 301.547 228.118 300.187C229.478 298.828 230.556 297.214 231.292 295.437C232.028 293.661 232.406 291.756 232.405 289.834L232.392 251.382Z" fill="#34607B"/>
<path d="M156.274 274.902H159.204C161.314 274.902 162.766 276.179 162.766 278.127C162.766 280.076 161.314 281.353 159.204 281.353H156.274V274.902ZM159.13 280.13C159.415 280.167 159.704 280.143 159.978 280.059C160.252 279.976 160.505 279.834 160.721 279.645C160.936 279.456 161.109 279.223 161.227 278.962C161.345 278.701 161.406 278.417 161.406 278.131C161.406 277.844 161.345 277.561 161.227 277.299C161.109 277.038 160.936 276.805 160.721 276.616C160.505 276.427 160.252 276.286 159.978 276.202C159.704 276.119 159.415 276.095 159.13 276.132H157.786V280.13H159.13Z" fill="white"/>
<path d="M168.169 278.524V281.353H166.825V280.741C166.655 280.978 166.426 281.165 166.16 281.283C165.894 281.401 165.602 281.446 165.313 281.413C164.15 281.413 163.458 280.741 163.458 279.915C163.458 279.088 164.076 278.43 165.588 278.43H166.731C166.731 277.812 166.361 277.455 165.588 277.455C165.077 277.451 164.577 277.611 164.164 277.912L163.646 276.911C164.282 276.501 165.026 276.29 165.783 276.306C167.329 276.32 168.169 277.025 168.169 278.524ZM166.731 279.787V279.283H165.75C165.078 279.283 164.862 279.532 164.862 279.861C164.862 280.19 165.165 280.459 165.669 280.459C165.895 280.476 166.12 280.42 166.311 280.299C166.502 280.178 166.649 279.998 166.731 279.787Z" fill="white"/>
<path d="M174.539 278.517V281.353H173.101V278.739C173.101 277.939 172.732 277.57 172.093 277.57C171.455 277.57 170.904 277.993 170.904 278.914V281.36H169.466V276.407H170.81V276.985C171.02 276.764 171.275 276.59 171.558 276.474C171.841 276.358 172.144 276.303 172.45 276.313C173.652 276.32 174.539 277.005 174.539 278.517Z" fill="white"/>
<path d="M175.661 274.902C175.663 274.789 175.689 274.678 175.736 274.576C175.783 274.474 175.85 274.383 175.934 274.308C176.018 274.233 176.116 274.176 176.223 274.14C176.33 274.105 176.443 274.092 176.555 274.102C176.665 274.09 176.777 274.101 176.883 274.134C176.988 274.167 177.086 274.221 177.17 274.294C177.254 274.366 177.322 274.455 177.37 274.555C177.418 274.655 177.445 274.764 177.449 274.875C177.449 274.99 177.426 275.103 177.38 275.208C177.334 275.314 177.268 275.408 177.184 275.487C177.1 275.565 177.001 275.625 176.892 275.663C176.784 275.701 176.669 275.716 176.555 275.708C176.443 275.717 176.329 275.703 176.223 275.667C176.116 275.631 176.018 275.574 175.934 275.498C175.85 275.423 175.783 275.331 175.736 275.228C175.689 275.126 175.664 275.014 175.661 274.902ZM175.836 276.4H177.274V281.353H175.836V276.4Z" fill="white"/>
<path d="M183.457 279.283H179.707C179.788 279.59 179.975 279.857 180.235 280.039C180.494 280.221 180.809 280.306 181.125 280.278C181.354 280.288 181.582 280.25 181.796 280.168C182.01 280.086 182.205 279.961 182.368 279.801L183.134 280.627C182.876 280.898 182.562 281.11 182.214 281.249C181.866 281.387 181.492 281.447 181.118 281.427C179.405 281.427 178.289 280.352 178.289 278.873C178.285 278.529 178.351 278.188 178.484 277.871C178.616 277.553 178.812 277.266 179.059 277.027C179.307 276.788 179.6 276.602 179.922 276.481C180.243 276.359 180.587 276.304 180.93 276.32C181.267 276.31 181.603 276.37 181.916 276.496C182.229 276.622 182.513 276.81 182.75 277.051C182.987 277.291 183.172 277.577 183.294 277.892C183.415 278.207 183.471 278.543 183.457 278.88C183.457 279.008 183.457 279.162 183.457 279.283ZM179.687 278.443H182.113C182.061 278.157 181.91 277.898 181.686 277.712C181.463 277.525 181.181 277.423 180.89 277.423C180.599 277.423 180.317 277.525 180.094 277.712C179.87 277.898 179.719 278.157 179.667 278.443H179.687Z" fill="white"/>
<path d="M184.424 274.519H185.862V281.353H184.424V274.519Z" fill="white"/>
<path d="M165.508 285.99V289.773H165.232V286.272H164.312V286.023L165.508 285.99Z" fill="white"/>
<path d="M166.469 287.885C166.469 286.702 167.08 285.963 167.947 285.963C168.814 285.963 169.432 286.702 169.432 287.885C169.432 289.068 168.821 289.8 167.947 289.8C167.074 289.8 166.469 289.068 166.469 287.885ZM169.157 287.885C169.157 286.83 168.666 286.218 167.947 286.218C167.228 286.218 166.744 286.83 166.744 287.885C166.744 288.94 167.235 289.545 167.947 289.545C168.659 289.545 169.157 288.96 169.157 287.885Z" fill="white"/>
<path d="M170.016 287.159C170.01 287.126 170.012 287.093 170.021 287.06C170.029 287.028 170.045 286.998 170.066 286.973C170.088 286.947 170.115 286.927 170.145 286.913C170.175 286.899 170.208 286.892 170.241 286.892C170.274 286.892 170.307 286.899 170.338 286.913C170.368 286.927 170.395 286.947 170.416 286.973C170.437 286.998 170.453 287.028 170.462 287.06C170.47 287.093 170.472 287.126 170.466 287.159C170.472 287.192 170.47 287.226 170.462 287.258C170.453 287.29 170.437 287.32 170.416 287.345C170.395 287.371 170.368 287.391 170.338 287.405C170.307 287.419 170.274 287.427 170.241 287.427C170.208 287.427 170.175 287.419 170.145 287.405C170.115 287.391 170.088 287.371 170.066 287.345C170.045 287.32 170.029 287.29 170.021 287.258C170.012 287.226 170.01 287.192 170.016 287.159ZM170.016 289.565C170.01 289.532 170.012 289.498 170.021 289.466C170.029 289.434 170.045 289.404 170.066 289.379C170.088 289.353 170.115 289.333 170.145 289.319C170.175 289.305 170.208 289.297 170.241 289.297C170.274 289.297 170.307 289.305 170.338 289.319C170.368 289.333 170.395 289.353 170.416 289.379C170.437 289.404 170.453 289.434 170.462 289.466C170.47 289.498 170.472 289.532 170.466 289.565C170.472 289.598 170.47 289.631 170.462 289.663C170.453 289.696 170.437 289.725 170.416 289.751C170.395 289.776 170.368 289.797 170.338 289.811C170.307 289.825 170.274 289.832 170.241 289.832C170.208 289.832 170.175 289.825 170.145 289.811C170.115 289.797 170.088 289.776 170.066 289.751C170.045 289.725 170.029 289.696 170.021 289.663C170.012 289.631 170.01 289.598 170.016 289.565Z" fill="white"/>
<path d="M171.105 287.885C171.105 286.702 171.717 285.963 172.591 285.963C173.464 285.963 174.069 286.702 174.069 287.885C174.069 289.068 173.457 289.8 172.591 289.8C171.724 289.8 171.105 289.068 171.105 287.885ZM173.793 287.885C173.793 286.83 173.303 286.218 172.591 286.218C171.878 286.218 171.381 286.83 171.381 287.885C171.381 288.94 171.878 289.545 172.591 289.545C173.303 289.545 173.793 288.96 173.793 287.885Z" fill="white"/>
<path d="M177.825 288.725H177.025V289.773H176.736V288.725H174.579V288.523L176.635 285.99H176.945L174.929 288.483H176.736V287.556H176.998V288.483H177.798L177.825 288.725Z" fill="white"/>
<path d="M131.713 269.317H123.152C121.5 269.317 120.161 270.656 120.161 272.308V280.869C120.161 282.521 121.5 283.86 123.152 283.86H131.713C133.364 283.86 134.703 282.521 134.703 280.869V272.308C134.703 270.656 133.364 269.317 131.713 269.317Z" fill="#FAFAFA"/>
<path d="M218.152 282.865H210.088C209.251 282.863 208.449 282.53 207.857 281.938C207.265 281.346 206.931 280.544 206.93 279.707V271.643C206.931 270.806 207.265 270.004 207.857 269.414C208.449 268.823 209.252 268.491 210.088 268.491H218.152C218.989 268.491 219.791 268.823 220.383 269.414C220.975 270.004 221.309 270.806 221.31 271.643V279.707C221.309 280.544 220.975 281.346 220.383 281.938C219.792 282.53 218.989 282.863 218.152 282.865ZM210.088 268.82C209.341 268.82 208.624 269.117 208.095 269.644C207.566 270.172 207.267 270.888 207.266 271.636V279.7C207.267 280.448 207.565 281.165 208.094 281.694C208.623 282.223 209.34 282.52 210.088 282.522H218.152C218.901 282.522 219.619 282.225 220.148 281.696C220.677 281.166 220.974 280.448 220.974 279.7V271.636C220.973 270.888 220.675 270.172 220.145 269.644C219.616 269.117 218.899 268.82 218.152 268.82H210.088Z" fill="white"/>
<path d="M130.08 274.223H124.777C124.599 274.223 124.428 274.294 124.302 274.42C124.176 274.546 124.105 274.717 124.105 274.895V278.403C124.105 278.581 124.176 278.752 124.302 278.878C124.428 279.004 124.599 279.075 124.777 279.075H125.228V280.62L127.015 279.075H130.08C130.258 279.075 130.429 279.004 130.555 278.878C130.681 278.752 130.752 278.581 130.752 278.403V274.915C130.754 274.825 130.739 274.736 130.706 274.652C130.674 274.568 130.625 274.491 130.562 274.427C130.499 274.362 130.424 274.311 130.341 274.276C130.259 274.241 130.17 274.223 130.08 274.223ZM125.745 277.314C125.641 277.316 125.539 277.286 125.451 277.229C125.364 277.172 125.296 277.09 125.256 276.994C125.215 276.898 125.204 276.792 125.224 276.689C125.244 276.587 125.294 276.493 125.368 276.419C125.442 276.346 125.536 276.296 125.638 276.276C125.74 276.256 125.846 276.267 125.942 276.307C126.038 276.348 126.12 276.416 126.177 276.503C126.234 276.59 126.264 276.693 126.263 276.797C126.263 276.934 126.208 277.066 126.111 277.163C126.014 277.26 125.882 277.314 125.745 277.314ZM127.358 277.314C127.254 277.314 127.152 277.283 127.066 277.225C126.98 277.168 126.913 277.085 126.873 276.989C126.834 276.893 126.824 276.787 126.844 276.685C126.865 276.583 126.916 276.49 126.99 276.417C127.064 276.344 127.158 276.295 127.26 276.275C127.362 276.256 127.468 276.267 127.563 276.308C127.659 276.348 127.74 276.417 127.797 276.504C127.854 276.591 127.883 276.693 127.882 276.797C127.88 276.935 127.824 277.066 127.726 277.163C127.628 277.26 127.496 277.314 127.358 277.314ZM129.085 277.314C128.981 277.314 128.879 277.283 128.793 277.225C128.707 277.168 128.64 277.085 128.6 276.989C128.561 276.893 128.551 276.787 128.571 276.685C128.592 276.583 128.643 276.49 128.717 276.417C128.791 276.344 128.885 276.295 128.987 276.275C129.089 276.256 129.195 276.267 129.29 276.308C129.386 276.348 129.467 276.417 129.524 276.504C129.581 276.591 129.61 276.693 129.609 276.797C129.607 276.935 129.551 277.066 129.453 277.163C129.355 277.26 129.223 277.314 129.085 277.314Z" fill="#34607B"/>
<path d="M212.272 277.536C212.231 277.534 212.191 277.518 212.162 277.489C212.132 277.461 212.114 277.422 212.11 277.381C211.707 274.021 214.207 272.966 214.234 272.96C214.274 272.944 214.319 272.944 214.359 272.96C214.399 272.977 214.431 273.008 214.449 273.047C214.459 273.067 214.464 273.089 214.465 273.112C214.466 273.134 214.462 273.156 214.454 273.177C214.446 273.198 214.434 273.217 214.418 273.233C214.402 273.249 214.383 273.261 214.362 273.269C214.268 273.309 212.07 274.257 212.44 277.348C212.442 277.37 212.441 277.392 212.435 277.413C212.429 277.434 212.419 277.453 212.405 277.47C212.391 277.487 212.374 277.501 212.354 277.511C212.335 277.522 212.314 277.528 212.292 277.529L212.272 277.536Z" fill="white"/>
<path d="M212.272 277.536C212.223 277.533 212.178 277.512 212.145 277.476L211.089 276.232C211.073 276.217 211.06 276.198 211.051 276.177C211.043 276.156 211.038 276.134 211.038 276.111C211.038 276.089 211.043 276.066 211.051 276.046C211.06 276.025 211.073 276.006 211.089 275.99C211.122 275.961 211.164 275.945 211.207 275.945C211.251 275.945 211.293 275.961 211.325 275.99L212.245 277.079L213.058 275.997C213.074 275.981 213.092 275.968 213.112 275.959C213.132 275.951 213.154 275.946 213.176 275.946C213.198 275.946 213.22 275.951 213.24 275.959C213.26 275.968 213.279 275.981 213.294 275.997C213.311 276.01 213.326 276.027 213.337 276.046C213.349 276.065 213.356 276.086 213.359 276.108C213.362 276.13 213.361 276.152 213.356 276.173C213.35 276.195 213.341 276.215 213.327 276.232L212.386 277.476C212.371 277.495 212.352 277.511 212.33 277.523C212.308 277.535 212.284 277.541 212.259 277.543L212.272 277.536Z" fill="white"/>
<path d="M213.939 278.41C213.905 278.409 213.873 278.399 213.845 278.38C213.817 278.36 213.796 278.333 213.784 278.302C213.768 278.262 213.769 278.217 213.785 278.177C213.801 278.137 213.832 278.105 213.872 278.087C213.966 278.047 216.163 277.092 215.794 274.008C215.791 273.986 215.792 273.963 215.798 273.942C215.804 273.921 215.814 273.9 215.828 273.883C215.842 273.865 215.859 273.851 215.878 273.84C215.898 273.829 215.919 273.822 215.941 273.82C215.985 273.817 216.029 273.831 216.063 273.858C216.098 273.886 216.121 273.924 216.13 273.968C216.526 277.328 214.026 278.383 213.999 278.396L213.939 278.41Z" fill="white"/>
<path d="M215.04 275.399C215.004 275.4 214.968 275.388 214.939 275.365C214.904 275.339 214.88 275.299 214.874 275.255C214.867 275.211 214.879 275.166 214.906 275.13L215.846 273.887C215.861 273.867 215.88 273.85 215.902 273.838C215.925 273.827 215.949 273.82 215.974 273.82C216.023 273.823 216.069 273.844 216.102 273.88L217.157 275.124C217.188 275.155 217.205 275.197 217.205 275.241C217.205 275.285 217.188 275.327 217.157 275.359C217.124 275.39 217.081 275.407 217.036 275.407C216.991 275.407 216.947 275.39 216.915 275.359L215.994 274.27L215.181 275.345C215.164 275.366 215.142 275.381 215.118 275.391C215.093 275.4 215.066 275.403 215.04 275.399Z" fill="white"/>
<path d="M127.324 75.8352C132.788 75.8352 137.216 71.4065 137.216 65.9434C137.216 60.4803 132.788 56.0515 127.324 56.0515C121.861 56.0515 117.433 60.4803 117.433 65.9434C117.433 71.4065 121.861 75.8352 127.324 75.8352Z" fill="#EBEBEB"/>
<path d="M126.794 68.833C126.748 68.8309 126.705 68.8117 126.673 68.7792L124.092 66.0912C124.063 66.0591 124.047 66.0171 124.047 65.9736C124.047 65.9301 124.063 65.8882 124.092 65.856L126.673 63.168C126.705 63.1368 126.749 63.1194 126.794 63.1194C126.839 63.1194 126.882 63.1368 126.915 63.168C126.931 63.1837 126.944 63.2025 126.953 63.2233C126.962 63.2441 126.966 63.2664 126.966 63.289C126.966 63.3116 126.962 63.3339 126.953 63.3547C126.944 63.3755 126.931 63.3943 126.915 63.4099L124.449 66.0039L126.915 68.6045C126.931 68.6202 126.944 68.639 126.953 68.6597C126.962 68.6805 126.966 68.7029 126.966 68.7255C126.966 68.748 126.962 68.7704 126.953 68.7912C126.944 68.812 126.931 68.8308 126.915 68.8464C126.874 68.855 126.832 68.8503 126.794 68.833Z" fill="#263238"/>
<path d="M131.276 66.1114H124.213C124.168 66.1114 124.126 66.0937 124.094 66.0622C124.063 66.0307 124.045 65.9879 124.045 65.9434C124.047 65.8993 124.065 65.8576 124.096 65.8264C124.127 65.7953 124.169 65.777 124.213 65.7754H131.276C131.32 65.7754 131.363 65.7931 131.394 65.8246C131.426 65.8561 131.444 65.8988 131.444 65.9434C131.444 65.9879 131.426 66.0307 131.394 66.0622C131.363 66.0937 131.32 66.1114 131.276 66.1114Z" fill="#263238"/>
<path d="M224.813 240.352C225.603 235.502 222.313 230.93 217.463 230.139C212.613 229.348 208.041 232.639 207.25 237.489C206.459 242.338 209.75 246.911 214.6 247.702C219.45 248.492 224.022 245.202 224.813 240.352Z" fill="#34607B"/>
<path d="M216.021 240.899C215.596 240.899 215.189 240.73 214.888 240.431C214.587 240.131 214.417 239.724 214.415 239.299V235.798C214.415 235.372 214.584 234.964 214.885 234.662C215.187 234.361 215.595 234.192 216.021 234.192C216.447 234.192 216.856 234.361 217.157 234.662C217.458 234.964 217.627 235.372 217.627 235.798V239.299C217.625 239.724 217.455 240.131 217.154 240.431C216.853 240.73 216.446 240.899 216.021 240.899ZM216.021 234.535C215.685 234.535 215.363 234.668 215.125 234.904C214.887 235.141 214.753 235.462 214.751 235.798V239.299C214.751 239.636 214.885 239.959 215.123 240.197C215.361 240.435 215.684 240.569 216.021 240.569C216.358 240.569 216.681 240.435 216.919 240.197C217.157 239.959 217.291 239.636 217.291 239.299V235.798C217.291 235.461 217.157 235.138 216.919 234.9C216.681 234.662 216.358 234.528 216.021 234.528V234.535Z" fill="white"/>
<path d="M216.022 242.028C215.604 242.051 215.186 241.983 214.798 241.829C214.409 241.674 214.058 241.437 213.77 241.134C213.125 240.282 212.821 239.221 212.917 238.157C212.921 238.112 212.943 238.071 212.978 238.043C213.013 238.015 213.057 238.001 213.102 238.006C213.146 238.01 213.187 238.032 213.216 238.067C213.244 238.101 213.257 238.146 213.253 238.19C213.171 239.16 213.443 240.127 214.019 240.912C214.278 241.18 214.593 241.389 214.941 241.524C215.289 241.658 215.663 241.716 216.035 241.692C216.407 241.708 216.778 241.648 217.125 241.513C217.472 241.379 217.787 241.174 218.051 240.912C218.674 240.139 219.001 239.169 218.972 238.177C218.972 238.134 218.988 238.092 219.018 238.06C219.048 238.029 219.09 238.011 219.133 238.009C219.155 238.008 219.177 238.012 219.198 238.019C219.218 238.027 219.237 238.038 219.254 238.053C219.27 238.068 219.283 238.086 219.292 238.106C219.302 238.126 219.307 238.148 219.308 238.17C219.344 239.253 218.983 240.312 218.293 241.147C217.996 241.444 217.641 241.675 217.25 241.827C216.859 241.978 216.441 242.047 216.022 242.028Z" fill="white"/>
<path d="M216.022 244.487C215.977 244.487 215.934 244.469 215.903 244.438C215.871 244.406 215.854 244.364 215.854 244.319V241.86C215.854 241.815 215.871 241.772 215.903 241.741C215.934 241.709 215.977 241.692 216.022 241.692C216.066 241.692 216.109 241.709 216.14 241.741C216.172 241.772 216.19 241.815 216.19 241.86V244.319C216.19 244.364 216.172 244.406 216.14 244.438C216.109 244.469 216.066 244.487 216.022 244.487Z" fill="white"/>
<path d="M171.67 266.26C180.31 266.26 187.314 259.256 187.314 250.616C187.314 241.976 180.31 234.972 171.67 234.972C163.03 234.972 156.025 241.976 156.025 250.616C156.025 259.256 163.03 266.26 171.67 266.26Z" fill="#34607B"/>
<path d="M170.279 246.288C169.972 246.044 169.615 245.871 169.234 245.779C168.853 245.688 168.456 245.681 168.072 245.759C167.688 245.837 167.325 245.998 167.01 246.231C166.695 246.464 166.434 246.764 166.247 247.108C166.067 247.436 166.007 247.816 166.075 248.183C166.144 248.55 166.338 248.883 166.623 249.124C168.061 250.535 171.079 253.364 172.389 254.594C172.743 254.931 173.169 255.184 173.634 255.334C174.099 255.484 174.593 255.528 175.077 255.461C175.457 255.406 175.821 255.273 176.147 255.07C176.473 254.868 176.754 254.601 176.972 254.285C178.457 252.269 174.909 250.669 174.909 250.669L173.357 252.296L169.741 248.808L171.327 247.061L170.279 246.288Z" fill="white"/>
</svg>
