<svg width="389" height="389" viewBox="0 0 389 389" fill="none" xmlns="http://www.w3.org/2000/svg">
<path d="M389 297.507H0V297.702H389V297.507Z" fill="#EBEBEB"/>
<path d="M350.022 310.025H324.255V310.22H350.022V310.025Z" fill="#EBEBEB"/>
<path d="M257.69 312.141H250.929V312.336H257.69V312.141Z" fill="#EBEBEB"/>
<path d="M323.477 302.805H308.547V303H323.477V302.805Z" fill="#EBEBEB"/>
<path d="M74.4153 304.112H40.8135V304.307H74.4153V304.112Z" fill="#EBEBEB"/>
<path d="M86.2724 304.112H81.3477V304.307H86.2724V304.112Z" fill="#EBEBEB"/>
<path d="M175.166 307.396H102.283V307.59H175.166V307.396Z" fill="#EBEBEB"/>
<path d="M184.386 262.808H34.1621C32.9853 262.806 31.8574 262.337 31.0259 261.505C30.1945 260.672 29.7275 259.543 29.7275 258.366V47.1935C29.7378 46.0234 30.2093 44.9046 31.0396 44.0801C31.8699 43.2556 32.992 42.792 34.1621 42.79H184.386C185.564 42.79 186.694 43.258 187.527 44.0912C188.361 44.9243 188.829 46.0542 188.829 47.2324V258.366C188.829 259.544 188.361 260.674 187.527 261.507C186.694 262.34 185.564 262.808 184.386 262.808ZM34.1621 42.9456C33.0369 42.9477 31.9584 43.3961 31.1635 44.1925C30.3685 44.9889 29.922 46.0682 29.922 47.1935V258.366C29.922 259.491 30.3685 260.571 31.1635 261.367C31.9584 262.163 33.0369 262.612 34.1621 262.614H184.386C185.512 262.612 186.591 262.164 187.388 261.367C188.184 260.571 188.632 259.492 188.634 258.366V47.1935C188.632 46.0675 188.184 44.9882 187.388 44.1921C186.591 43.3959 185.512 42.9477 184.386 42.9456H34.1621Z" fill="#EBEBEB"/>
<path d="M352.675 262.808H202.443C201.266 262.806 200.137 262.338 199.304 261.505C198.472 260.672 198.003 259.544 198.001 258.366V47.1935C198.013 46.0227 198.486 44.9039 199.318 44.0796C200.15 43.2553 201.272 42.792 202.443 42.79H352.675C353.844 42.7941 354.964 43.2586 355.793 44.0828C356.621 44.9071 357.092 46.0247 357.102 47.1935V258.366C357.102 259.542 356.636 260.669 355.806 261.502C354.977 262.334 353.851 262.804 352.675 262.808ZM202.443 42.9456C201.317 42.9477 200.238 43.3959 199.442 44.1921C198.646 44.9882 198.198 46.0675 198.195 47.1935V258.366C198.198 259.492 198.646 260.571 199.442 261.367C200.238 262.164 201.317 262.612 202.443 262.614H352.675C353.801 262.612 354.88 262.164 355.677 261.367C356.473 260.571 356.921 259.492 356.923 258.366V47.1935C356.921 46.0675 356.473 44.9882 355.677 44.1921C354.88 43.3959 353.801 42.9477 352.675 42.9456H202.443Z" fill="#EBEBEB"/>
<path d="M144.373 219.738H50.9043C50.9047 221.39 51.5425 222.977 52.6846 224.17C53.8267 225.363 55.3851 226.069 57.0349 226.141C67.0789 226.593 82.53 228.187 87.4314 233.742C96.5651 244.105 95.6782 280.5 84.7395 288.926C81.3085 291.571 71.3035 296.815 71.3035 296.815H123.966C123.966 296.815 114.63 291.462 111.378 288.926C100.486 280.43 100.183 244.059 109.355 233.742C114.07 228.452 128.549 226.74 138.266 226.204C139.918 226.112 141.472 225.391 142.608 224.188C143.744 222.985 144.376 221.393 144.373 219.738Z" fill="#F5F5F5"/>
<path d="M62.4814 226.484C71.973 227.262 83.3552 229.121 87.4319 233.742C88.7633 235.339 89.8154 237.148 90.5439 239.095H106.244C106.978 237.151 108.029 235.342 109.356 233.742C113.448 229.144 124.916 227.254 134.252 226.484H62.4814Z" fill="#E6E6E6"/>
<path d="M104.555 219.785L103.287 205.26H121.71L122.978 219.785H104.555Z" fill="#EBEBEB"/>
<path d="M104.555 219.785L103.287 205.26H102.291L103.567 219.785H104.555Z" fill="#E0E0E0"/>
<path d="M106.306 218.307L105.295 206.738H119.96L120.972 218.307H106.306Z" fill="#F0F0F0"/>
<path d="M107.434 217.35L106.586 207.687H118.839L119.687 217.35H107.434Z" fill="#FAFAFA"/>
<path d="M98.5799 219.738H80.0713L82.1252 196.266H100.634L98.5799 219.738Z" fill="#E6E6E6"/>
<path d="M98.5801 219.738H99.467L101.521 196.266H100.634L98.5801 219.738Z" fill="#E0E0E0"/>
<path d="M96.9072 217.35H82.1719L83.8057 198.662H98.541L96.9072 217.35Z" fill="#F0F0F0"/>
<path d="M95.8265 215.809H83.5186L84.8801 200.195H97.188L95.8265 215.809Z" fill="#FAFAFA"/>
<path d="M89.6097 207.22C89.8079 207.42 90.0436 207.579 90.3033 207.687C90.5631 207.795 90.8416 207.851 91.1229 207.851C91.4043 207.851 91.6828 207.795 91.9425 207.687C92.2023 207.579 92.438 207.42 92.6362 207.22C93.0357 206.818 93.26 206.274 93.26 205.707C93.26 205.14 93.0357 204.596 92.6362 204.194C92.2339 203.794 91.6899 203.57 91.1229 203.57C90.556 203.57 90.012 203.794 89.6097 204.194C89.41 204.392 89.2515 204.628 89.1433 204.887C89.0352 205.147 88.9795 205.426 88.9795 205.707C88.9795 205.988 89.0352 206.267 89.1433 206.527C89.2515 206.786 89.41 207.022 89.6097 207.22Z" fill="#EBEBEB"/>
<path d="M90.5122 209.842C90.3674 209.695 90.1948 209.578 90.0045 209.499C89.8142 209.419 89.6099 209.378 89.4036 209.378C89.1972 209.378 88.9929 209.419 88.8026 209.499C88.6123 209.578 88.4397 209.695 88.2949 209.842C88.0694 210.059 87.9147 210.339 87.851 210.646C87.7872 210.952 87.8174 211.271 87.9376 211.56C88.0577 211.849 88.2623 212.095 88.5245 212.266C88.7868 212.437 89.0945 212.525 89.4074 212.518C89.7198 212.524 90.0264 212.434 90.2874 212.263C90.5484 212.091 90.7517 211.845 90.8709 211.556C90.9901 211.268 91.0196 210.95 90.9556 210.644C90.8916 210.338 90.7371 210.059 90.5122 209.842Z" fill="#F0F0F0"/>
<path d="M247.404 292.015H229.347L238.846 214.837C239.075 213.224 239.868 211.745 241.085 210.661C242.301 209.577 243.862 208.959 245.49 208.916H324.146L312.593 292.015H247.404Z" fill="#F5F5F5"/>
<path d="M304.548 292.015H322.574L332.05 214.837C332.167 214.095 332.119 213.337 331.91 212.615C331.701 211.894 331.336 211.227 330.841 210.662C330.346 210.098 329.733 209.649 329.045 209.347C328.357 209.045 327.612 208.898 326.861 208.916H320.637C319.008 208.959 317.448 209.577 316.231 210.661C315.015 211.745 314.222 213.224 313.993 214.837L304.548 292.015Z" fill="#F0F0F0"/>
<path d="M297.904 291.921L301.171 254.577C301.244 253.765 301.592 253.003 302.158 252.417C302.724 251.831 303.475 251.456 304.283 251.356L305.622 251.185C306.704 251.05 307.707 250.548 308.463 249.762C309.219 248.976 309.683 247.954 309.776 246.867L310.367 240.06C310.426 239.4 310.346 238.736 310.134 238.109C309.921 237.482 309.581 236.906 309.133 236.418C308.686 235.93 308.142 235.54 307.537 235.274C306.931 235.007 306.276 234.87 305.614 234.87H335.746C336.407 234.871 337.062 235.009 337.667 235.276C338.272 235.543 338.816 235.933 339.263 236.421C339.71 236.909 340.05 237.484 340.263 238.11C340.476 238.737 340.556 239.401 340.499 240.06L339.9 246.867C339.807 247.953 339.345 248.974 338.59 249.759C337.836 250.545 336.834 251.048 335.754 251.185L334.408 251.356C333.599 251.458 332.85 251.832 332.284 252.418C331.718 253.004 331.369 253.766 331.296 254.577L328.036 291.921C327.921 293.235 327.318 294.458 326.346 295.35C325.374 296.241 324.103 296.736 322.784 296.737H292.652C293.972 296.738 295.244 296.244 296.216 295.352C297.188 294.46 297.791 293.236 297.904 291.921Z" fill="#E6E6E6"/>
<path d="M215.001 245.249C214.754 242.421 213.456 239.788 211.363 237.87C209.271 235.951 206.535 234.887 203.696 234.886H229.923C232.761 234.887 235.497 235.951 237.589 237.87C239.682 239.788 240.98 242.421 241.227 245.249L243.818 274.813H217.591L215.001 245.249Z" fill="#E6E6E6"/>
<path d="M192.042 234.886H203.712C206.551 234.887 209.286 235.952 211.379 237.87C213.471 239.788 214.769 242.421 215.016 245.249L217.607 274.813H280.08L282.671 245.249C282.915 242.42 284.211 239.785 286.305 237.866C288.398 235.947 291.136 234.883 293.975 234.886H305.645C306.307 234.886 306.962 235.023 307.568 235.289C308.174 235.556 308.718 235.946 309.165 236.434C309.612 236.922 309.953 237.498 310.165 238.125C310.378 238.752 310.457 239.416 310.399 240.075L309.808 246.883C309.714 247.969 309.251 248.991 308.495 249.777C307.739 250.563 306.735 251.066 305.653 251.201L304.315 251.372C303.506 251.472 302.756 251.846 302.19 252.432C301.623 253.018 301.275 253.781 301.203 254.593L297.935 291.937C297.822 293.25 297.221 294.473 296.25 295.365C295.28 296.256 294.01 296.752 292.692 296.753H204.988C203.669 296.752 202.398 296.257 201.426 295.365C200.454 294.474 199.851 293.251 199.736 291.937L196.469 254.593C196.398 253.78 196.05 253.017 195.484 252.431C194.917 251.844 194.166 251.47 193.357 251.372L192.011 251.201C190.93 251.064 189.928 250.561 189.174 249.775C188.419 248.989 187.957 247.968 187.864 246.883L187.265 240.075C187.208 239.414 187.289 238.748 187.503 238.12C187.717 237.492 188.06 236.916 188.509 236.428C188.959 235.939 189.505 235.55 190.113 235.285C190.721 235.019 191.378 234.884 192.042 234.886Z" fill="#F0F0F0"/>
<path d="M86.482 102.159C86.482 102.159 85.5717 96.1453 89.9597 92.2942C94.3476 88.4431 93.9586 86.148 92.706 85.8445C91.4534 85.5411 90.2942 89.4 88.3648 90.4659C88.3648 90.4659 88.3103 84.9732 90.2631 82.9504C92.2159 80.9276 93.2506 75.7072 91.3834 75.6216C89.5162 75.536 89.3295 78.7336 88.9483 80.9743C88.567 83.2149 86.482 86.4203 86.482 86.4203C86.482 86.4203 86.0774 81.5111 84.8171 79.4883C83.5567 77.4655 86.9255 72.8364 85.5951 70.8136C84.2647 68.7908 81.9852 72.6419 82.1797 76.9831C82.3742 81.3244 85.2917 85.9379 84.5837 90.4736C84.5837 90.4736 83.3078 87.2916 82.1641 87.0038C81.0204 86.7159 79.8301 84.6075 79.0521 83.8295C78.2741 83.0515 77.3249 85.7512 79.0521 88.2563C80.7793 90.7615 85.2216 97.4601 84.5448 102.875L86.482 102.159Z" fill="#E6E6E6"/>
<path d="M89.1042 99.4206L90.5435 108.43C90.6468 109.085 90.6072 109.754 90.4272 110.392C90.2473 111.03 89.9313 111.621 89.501 112.125C89.0708 112.629 88.5364 113.035 87.9348 113.313C87.3331 113.591 86.6783 113.735 86.0155 113.736H84.4595C83.7969 113.735 83.1424 113.591 82.541 113.313C81.9396 113.035 81.4057 112.629 80.976 112.125C80.5463 111.621 80.2312 111.029 80.0522 110.391C79.8732 109.753 79.8347 109.084 79.9393 108.43L81.3786 99.4206H89.1042Z" fill="#E6E6E6"/>
<path d="M67.3907 115.626L168.873 115.626V110.414L67.3907 110.414V115.626Z" fill="#E0E0E0"/>
<path d="M159.732 110.414H164.205V91.1972H159.732V110.414Z" fill="#EBEBEB"/>
<path d="M138.11 110.414H142.584V91.1972H138.11V110.414Z" fill="#EBEBEB"/>
<path d="M110.305 109.65L114.714 110.41L117.978 91.4729L113.57 90.713L110.305 109.65Z" fill="#EBEBEB"/>
<path d="M154.192 110.406H158.665V93.7179H154.192V110.406Z" fill="#EBEBEB"/>
<path d="M143.914 110.406H148.388V93.7179H143.914V110.406Z" fill="#EBEBEB"/>
<path d="M117.976 110.406H122.449V93.7179H117.976V110.406Z" fill="#EBEBEB"/>
<path d="M128.63 109.431L132.997 110.401L136.618 94.1106L132.251 93.14L128.63 109.431Z" fill="#EBEBEB"/>
<path d="M150.333 110.414H152.565V90.2402H150.333V110.414Z" fill="#EBEBEB"/>
<path d="M123.733 110.414H125.966V90.2402H123.733V110.414Z" fill="#EBEBEB"/>
<path d="M168.873 149.337H67.3906V154.55H168.873V149.337Z" fill="#E0E0E0"/>
<path d="M76.5399 130.113H72.0664V149.329H76.5399V130.113Z" fill="#EBEBEB"/>
<path d="M98.1522 130.113H93.6787V149.329H98.1522V130.113Z" fill="#EBEBEB"/>
<path d="M122.7 129.631L118.292 130.391L121.556 149.328L125.965 148.568L122.7 129.631Z" fill="#EBEBEB"/>
<path d="M82.079 132.649H77.6055V149.337H82.079V132.649Z" fill="#EBEBEB"/>
<path d="M92.3563 132.649H87.8828V149.337H92.3563V132.649Z" fill="#EBEBEB"/>
<path d="M118.287 132.649H113.813V149.337H118.287V132.649Z" fill="#EBEBEB"/>
<path d="M104.041 132.065L99.6738 133.035L103.294 149.326L107.661 148.355L104.041 132.065Z" fill="#EBEBEB"/>
<path d="M85.9379 129.164H83.7051V149.337H85.9379V129.164Z" fill="#EBEBEB"/>
<path d="M112.53 129.164H110.297V149.337H112.53V129.164Z" fill="#EBEBEB"/>
<path d="M159.132 134.119H137.348V149.158H159.132V134.119Z" fill="#EBEBEB"/>
<path d="M211.274 84.3508L335.225 84.3508C336.136 84.3508 336.874 83.6123 336.874 82.7014V80.9353C336.874 80.0244 336.136 79.286 335.225 79.286L211.274 79.286C210.363 79.286 209.624 80.0244 209.624 80.9353V82.7014C209.624 83.6123 210.363 84.3508 211.274 84.3508Z" fill="#E0E0E0"/>
<path d="M217.178 182.822H329.312V83.316L217.178 83.316V182.822Z" fill="#E6E6E6"/>
<path d="M326.503 86.0468H220.127V180.146H326.503V86.0468Z" fill="#F0F0F0"/>
<path d="M301.537 86.0468L326.503 179.944V135.823L313.324 86.0468H301.537Z" fill="white"/>
<path d="M292.699 86.0468L317.883 180.146H321.898L296.714 86.0468H292.699Z" fill="white"/>
<path d="M220.127 145.424V160.463L225.223 180.146H229.245L220.127 145.424Z" fill="white"/>
<path d="M289.4 182.247H291.189V84.3508H289.4V182.247Z" fill="#E6E6E6"/>
<path d="M254.678 182.247H256.468V84.3508H254.678V182.247Z" fill="#E6E6E6"/>
<path d="M235.454 80.912C235.454 80.912 232.871 114.576 218.034 131.731C218.034 131.731 228.841 175.058 228.833 190.159L208.753 186.455L215.988 131.995L212.526 80.912H235.454Z" fill="#E0E0E0"/>
<path d="M311.037 80.912C311.037 80.912 313.612 114.576 328.449 131.731C328.449 131.731 317.642 175.058 317.65 190.159L337.738 186.455L330.495 131.995L333.957 80.912H311.037Z" fill="#E0E0E0"/>
<path d="M194.5 332.642C277.81 332.642 345.346 328.699 345.346 323.835C345.346 318.971 277.81 315.028 194.5 315.028C111.19 315.028 43.6533 318.971 43.6533 323.835C43.6533 328.699 111.19 332.642 194.5 332.642Z" fill="#F5F5F5"/>
<path d="M105.513 324.216H76.2445L72.3545 295.757H109.403L105.513 324.216Z" fill="#263238"/>
<path d="M90.5125 295.803C90.5125 295.803 86.4125 276.439 93.8735 265.952C101.335 255.464 87.1282 265.835 85.4944 275.653C85.4944 275.653 83.0515 258.094 90.2869 245.747C97.5223 233.4 83.9851 243.537 82.8337 256.265C82.8337 256.265 80.6164 240.604 83.9384 231.805C87.2605 223.006 81.48 228.693 79.2704 234.178C77.0609 239.663 79.9629 253.356 79.9629 253.356C79.9629 253.356 74.159 228.094 68.6663 230.101C63.1736 232.109 76.882 248.664 78.7803 257.277C78.7803 257.277 72.3073 245.685 67.3904 248.096C62.4734 250.508 74.9992 251.714 80.7409 268.986L82.7559 277.085C82.7559 277.085 76.7886 265.648 72.8908 269.258C68.9931 272.868 84.4519 279.092 88.0385 296.418L90.5125 295.803Z" fill="#34607B"/>
<path d="M89.7036 296.916C89.7036 296.916 88.8478 272.51 76.781 262.186C64.7142 251.862 84.8022 260.015 89.7036 271.289C89.7036 271.289 87.3696 249.505 75.0616 236.901C62.7536 224.297 81.9547 232.373 87.1206 247.272C87.1206 247.272 85.1134 227.822 78.5081 218.307C71.9029 208.792 80.5154 213.81 84.8255 219.754C89.1356 225.698 89.7036 242.93 89.7036 242.93C89.7036 242.93 89.1356 210.947 96.3088 211.717C103.482 212.487 92.0064 236.395 92.2943 247.272C92.2943 247.272 96.5966 231.463 103.186 232.887C109.776 234.31 95.1496 239.484 93.4224 261.883V272.183C93.4224 272.183 97.1724 256.74 102.914 259.852C108.656 262.964 92.022 275.077 92.8622 296.9L89.7036 296.916Z" fill="#34607B"/>
<path opacity="0.2" d="M89.7036 296.916C89.7036 296.916 88.8478 272.51 76.781 262.186C64.7142 251.862 84.8022 260.015 89.7036 271.289C89.7036 271.289 87.3696 249.505 75.0616 236.901C62.7536 224.297 81.9547 232.373 87.1206 247.272C87.1206 247.272 85.1134 227.822 78.5081 218.307C71.9029 208.792 80.5154 213.81 84.8255 219.754C89.1356 225.698 89.7036 242.93 89.7036 242.93C89.7036 242.93 89.1356 210.947 96.3088 211.717C103.482 212.487 92.0064 236.395 92.2943 247.272C92.2943 247.272 96.5966 231.463 103.186 232.887C109.776 234.31 95.1496 239.484 93.4224 261.883V272.183C93.4224 272.183 97.1724 256.74 102.914 259.852C108.656 262.964 92.022 275.077 92.8622 296.9L89.7036 296.916Z" fill="white"/>
<path d="M68.6895 293.446V296.153C68.6895 297.022 69.0345 297.855 69.6488 298.47C70.263 299.084 71.0961 299.429 71.9648 299.429H110.165C111.033 299.429 111.866 299.084 112.481 298.47C113.095 297.855 113.44 297.022 113.44 296.153V293.446H68.6895Z" fill="#263238"/>
<path opacity="0.2" d="M68.6895 293.446V296.153C68.6895 297.022 69.0345 297.855 69.6488 298.47C70.263 299.084 71.0961 299.429 71.9648 299.429H110.165C111.033 299.429 111.866 299.084 112.481 298.47C113.095 297.855 113.44 297.022 113.44 296.153V293.446H68.6895Z" fill="white"/>
<path d="M306.392 90.1856V320.839C306.392 321.287 306.303 321.73 306.13 322.142C305.958 322.555 305.705 322.929 305.386 323.244C305.068 323.558 304.69 323.805 304.275 323.972C303.86 324.139 303.416 324.222 302.968 324.216H195.604C195.207 324.221 194.812 324.146 194.443 323.996C194.074 323.847 193.739 323.625 193.457 323.344C193.164 323.053 192.932 322.706 192.774 322.324C192.617 321.942 192.537 321.533 192.539 321.119V89.9056C192.526 89.5479 192.583 89.1911 192.707 88.8555C192.832 88.52 193.021 88.2123 193.265 87.95C193.508 87.6877 193.801 87.4759 194.126 87.3269C194.452 87.1779 194.803 87.0945 195.161 87.0814H225.651C226.076 87.0895 226.49 87.2241 226.839 87.4679C227.188 87.7117 227.457 88.0538 227.611 88.4507L228.879 91.5627C229.034 91.9588 229.303 92.2998 229.652 92.5423C230.001 92.7848 230.415 92.9177 230.84 92.9242H268.145C268.568 92.9217 268.98 92.793 269.33 92.5546C269.679 92.3162 269.949 91.9789 270.106 91.586L271.374 88.474C271.527 88.0757 271.795 87.7319 272.144 87.4867C272.493 87.2414 272.908 87.1057 273.334 87.097H303.42C304.216 87.1329 304.969 87.4733 305.522 88.0481C306.075 88.6228 306.386 89.388 306.392 90.1856Z" fill="#34607B"/>
<path opacity="0.6" d="M306.392 156.674V320.832C306.392 321.279 306.303 321.722 306.13 322.135C305.958 322.547 305.705 322.922 305.386 323.236C305.068 323.55 304.69 323.798 304.275 323.965C303.86 324.132 303.416 324.214 302.968 324.208H195.604C195.207 324.213 194.812 324.138 194.443 323.989C194.074 323.839 193.739 323.617 193.457 323.337C193.164 323.045 192.932 322.699 192.774 322.317C192.617 321.935 192.537 321.525 192.539 321.112V156.674H306.392Z" fill="white"/>
<path d="M306.392 90.1858V100.09H192.562V89.9057C192.549 89.548 192.606 89.1912 192.731 88.8557C192.855 88.5201 193.044 88.2124 193.288 87.9501C193.531 87.6878 193.824 87.4761 194.15 87.327C194.475 87.178 194.827 87.0946 195.184 87.0815H225.674C226.1 87.0897 226.514 87.2242 226.863 87.468C227.212 87.7118 227.481 88.0539 227.635 88.4508L228.903 91.5628C229.057 91.9589 229.326 92.2999 229.676 92.5424C230.025 92.7849 230.438 92.9179 230.863 92.9243H268.169C268.591 92.9218 269.004 92.7931 269.353 92.5547C269.702 92.3163 269.973 91.979 270.129 91.5862L271.397 88.4742C271.55 88.0758 271.818 87.732 272.168 87.4868C272.517 87.2415 272.931 87.1058 273.358 87.0971H303.42C304.217 87.133 304.969 87.4734 305.522 88.0482C306.075 88.623 306.387 89.3881 306.392 90.1858Z" fill="#263238"/>
<path d="M306.392 308.36V320.808C306.392 321.256 306.303 321.699 306.13 322.111C305.958 322.524 305.705 322.898 305.386 323.213C305.068 323.527 304.69 323.774 304.275 323.941C303.86 324.108 303.416 324.191 302.968 324.185H195.604C195.207 324.189 194.812 324.115 194.443 323.965C194.074 323.816 193.739 323.594 193.457 323.313C193.164 323.022 192.932 322.675 192.774 322.293C192.617 321.911 192.537 321.502 192.539 321.088V308.329L306.392 308.36Z" fill="#263238"/>
<path opacity="0.6" d="M206.715 96.3708H208.302V94.2547H206.715V96.3708Z" fill="white"/>
<path opacity="0.6" d="M204.139 96.3708H205.727V93.5545H204.139V96.3708Z" fill="white"/>
<path opacity="0.6" d="M201.549 96.3631H203.136V92.8387H201.549V96.3631Z" fill="white"/>
<path opacity="0.6" d="M198.966 96.3708H200.553V92.1385H198.966V96.3708Z" fill="white"/>
<path opacity="0.6" d="M291.858 93.4845H290.917V95.6007H291.858V93.4845Z" fill="white"/>
<path opacity="0.6" d="M292.504 96.3631H299.996V92.7065H292.504V96.3631Z" fill="white"/>
<path d="M299.997 104.587H292.528C292.322 104.587 292.124 104.505 291.978 104.359C291.832 104.213 291.75 104.015 291.75 103.809C291.75 103.602 291.832 103.404 291.978 103.258C292.124 103.113 292.322 103.031 292.528 103.031H300.02C300.226 103.031 300.424 103.113 300.57 103.258C300.716 103.404 300.798 103.602 300.798 103.809C300.798 104.015 300.716 104.213 300.57 104.359C300.424 104.505 300.226 104.587 300.02 104.587H299.997Z" fill="white"/>
<path d="M299.997 107.699H292.528C292.322 107.699 292.124 107.617 291.978 107.471C291.832 107.325 291.75 107.127 291.75 106.921C291.75 106.714 291.832 106.516 291.978 106.37C292.124 106.225 292.322 106.143 292.528 106.143H300.02C300.226 106.143 300.424 106.225 300.57 106.37C300.716 106.516 300.798 106.714 300.798 106.921C300.798 107.127 300.716 107.325 300.57 107.471C300.424 107.617 300.226 107.699 300.02 107.699H299.997Z" fill="white"/>
<path d="M299.997 110.811H292.528C292.322 110.811 292.124 110.729 291.978 110.583C291.832 110.437 291.75 110.239 291.75 110.033C291.75 109.826 291.832 109.628 291.978 109.482C292.124 109.337 292.322 109.255 292.528 109.255H300.02C300.226 109.255 300.424 109.337 300.57 109.482C300.716 109.628 300.798 109.826 300.798 110.033C300.798 110.239 300.716 110.437 300.57 110.583C300.424 110.729 300.226 110.811 300.02 110.811H299.997Z" fill="white"/>
<path d="M209.554 107.356L204.241 102.525L198.935 107.356H200.102V111.324H208.387V107.356H209.554Z" fill="white"/>
<path d="M268.339 292.225H229.727C229.521 292.225 229.323 292.143 229.177 291.997C229.031 291.851 228.949 291.653 228.949 291.447C228.949 291.24 229.031 291.042 229.177 290.896C229.323 290.751 229.521 290.669 229.727 290.669H268.339C268.546 290.669 268.744 290.751 268.889 290.896C269.035 291.042 269.117 291.24 269.117 291.447C269.117 291.653 269.035 291.851 268.889 291.997C268.744 292.143 268.546 292.225 268.339 292.225Z" fill="#263238"/>
<path d="M283.9 295.337H214.168C213.961 295.337 213.763 295.255 213.618 295.109C213.472 294.963 213.39 294.765 213.39 294.559C213.39 294.352 213.472 294.154 213.618 294.008C213.763 293.863 213.961 293.781 214.168 293.781H283.9C284.106 293.781 284.304 293.863 284.45 294.008C284.596 294.154 284.678 294.352 284.678 294.559C284.678 294.765 284.596 294.963 284.45 295.109C284.304 295.255 284.106 295.337 283.9 295.337Z" fill="#263238"/>
<path d="M260.56 298.449H237.507C237.301 298.449 237.103 298.367 236.957 298.221C236.811 298.075 236.729 297.877 236.729 297.671C236.729 297.464 236.811 297.266 236.957 297.12C237.103 296.975 237.301 296.893 237.507 296.893H260.56C260.766 296.893 260.964 296.975 261.11 297.12C261.256 297.266 261.338 297.464 261.338 297.671C261.338 297.877 261.256 298.075 261.11 298.221C260.964 298.367 260.766 298.449 260.56 298.449Z" fill="#263238"/>
<path d="M260.751 144.327C267.222 137.855 267.222 127.363 260.751 120.891C254.279 114.42 243.787 114.42 237.315 120.891C230.844 127.363 230.844 137.855 237.315 144.327C243.787 150.798 254.279 150.798 260.751 144.327Z" fill="white"/>
<path d="M249.636 141.254L249.496 140.406H249.488L249.636 141.254Z" fill="#263238"/>
<path d="M253.27 136.998C253.073 136.448 252.764 135.944 252.362 135.52C251.96 135.095 251.475 134.759 250.936 134.532C251.126 133.978 251.276 133.411 251.387 132.836L249.691 132.556C249.606 133.015 249.486 133.468 249.333 133.909C248.693 133.733 248.036 133.623 247.373 133.583C246.623 133.537 245.87 133.584 245.132 133.723C244.959 132.843 244.837 131.955 244.766 131.062H253.324V129.342H244.72C244.7 128.539 244.741 127.735 244.844 126.938L243.14 126.674C243.025 127.559 242.976 128.451 242.992 129.342H239.32V131.062H243.063C243.143 132.139 243.291 133.209 243.506 134.267C242.069 134.901 240.935 136.07 240.347 137.527C239.67 139.2 239.756 140.421 240.604 141.176C241.934 142.351 244.401 141.588 245.856 140.857C246.182 141.464 246.532 142.071 246.929 142.677L248.368 141.736C247.972 141.137 247.629 140.53 247.31 139.931C248.59 138.905 249.62 137.602 250.321 136.119C250.902 136.386 251.363 136.86 251.613 137.449C251.716 137.738 251.756 138.046 251.731 138.352C251.705 138.658 251.614 138.955 251.465 139.223C250.97 139.839 250.272 140.258 249.497 140.406L249.777 142.094C251.022 141.866 252.134 141.173 252.889 140.157C253.176 139.689 253.36 139.164 253.425 138.619C253.491 138.074 253.438 137.521 253.27 136.998ZM241.748 139.892C241.577 139.737 241.522 139.2 241.942 138.173C242.313 137.224 243.015 136.442 243.918 135.971C244.232 137.111 244.63 138.227 245.109 139.309C243.654 140.04 242.137 140.234 241.748 139.892ZM246.564 138.336C246.165 137.387 245.829 136.412 245.56 135.419C246.001 135.334 246.449 135.292 246.898 135.294H247.31C247.78 135.321 248.246 135.391 248.703 135.504C248.181 136.576 247.454 137.536 246.564 138.328V138.336Z" fill="#263238"/>
<path d="M255.962 137.309L254.694 133.746H249.738L248.47 137.309H245.661L250.92 122.527H253.472L258.732 137.309H255.962ZM252.204 126.814L250.648 131.147H253.713L252.204 126.814Z" fill="#34607B"/>
<path d="M242.385 162.563H200.389C199.611 162.563 198.98 163.194 198.98 163.971V170.95C198.98 171.728 199.611 172.358 200.389 172.358H242.385C243.163 172.358 243.793 171.728 243.793 170.95V163.971C243.793 163.194 243.163 162.563 242.385 162.563Z" fill="white"/>
<path d="M204.909 169.363V169.83H202.14V166.017H204.832V166.492H202.684V167.667H204.614V168.126H202.7V169.363H204.909Z" fill="#263238"/>
<path d="M208.449 168.172V169.83H207.928V168.274C207.928 167.706 207.648 167.426 207.15 167.426C207.024 167.417 206.897 167.436 206.779 167.481C206.661 167.527 206.555 167.598 206.467 167.689C206.38 167.781 206.313 167.89 206.273 168.01C206.232 168.13 206.218 168.257 206.232 168.383V169.869H205.711V166.982H206.217V167.418C206.341 167.265 206.499 167.144 206.679 167.064C206.859 166.984 207.055 166.948 207.251 166.959C207.413 166.947 207.575 166.97 207.727 167.027C207.879 167.084 208.017 167.174 208.131 167.289C208.245 167.404 208.332 167.543 208.387 167.696C208.442 167.848 208.463 168.011 208.449 168.172Z" fill="#263238"/>
<path d="M212.199 166.943V169.441C212.228 169.644 212.21 169.851 212.144 170.046C212.079 170.241 211.969 170.417 211.823 170.562C211.677 170.706 211.499 170.814 211.304 170.878C211.108 170.941 210.901 170.958 210.698 170.927C210.202 170.946 209.715 170.792 209.321 170.491L209.577 170.086C209.89 170.338 210.281 170.473 210.682 170.468C211.367 170.468 211.678 170.149 211.678 169.495V169.269C211.547 169.415 211.386 169.53 211.206 169.607C211.026 169.684 210.831 169.72 210.636 169.713C210.443 169.727 210.25 169.702 210.068 169.638C209.887 169.574 209.72 169.474 209.579 169.343C209.437 169.212 209.325 169.053 209.248 168.876C209.171 168.7 209.131 168.509 209.131 168.316C209.131 168.124 209.171 167.933 209.248 167.756C209.325 167.58 209.437 167.421 209.579 167.29C209.72 167.159 209.887 167.058 210.068 166.995C210.25 166.931 210.443 166.906 210.636 166.92C210.838 166.911 211.039 166.949 211.224 167.032C211.409 167.114 211.573 167.238 211.701 167.394V166.943H212.199ZM211.686 168.313C211.697 168.113 211.648 167.915 211.545 167.744C211.442 167.573 211.29 167.437 211.109 167.354C210.927 167.27 210.725 167.243 210.528 167.276C210.332 167.308 210.149 167.399 210.005 167.537C209.86 167.675 209.76 167.853 209.718 168.048C209.676 168.243 209.693 168.446 209.768 168.631C209.843 168.816 209.971 168.974 210.137 169.085C210.303 169.196 210.498 169.255 210.698 169.254C210.826 169.264 210.955 169.247 211.076 169.203C211.197 169.16 211.308 169.092 211.401 169.003C211.495 168.914 211.568 168.807 211.617 168.688C211.666 168.569 211.69 168.441 211.686 168.313Z" fill="#263238"/>
<path d="M213.172 165.792H213.693V169.83H213.172V165.792Z" fill="#263238"/>
<path d="M214.619 166.049C214.62 166.003 214.63 165.957 214.649 165.915C214.667 165.873 214.694 165.835 214.727 165.803C214.76 165.771 214.8 165.746 214.842 165.73C214.885 165.713 214.931 165.705 214.977 165.706C215.068 165.706 215.155 165.742 215.219 165.806C215.283 165.871 215.319 165.958 215.319 166.049C215.319 166.139 215.283 166.226 215.219 166.291C215.155 166.355 215.068 166.391 214.977 166.391C214.931 166.393 214.885 166.386 214.841 166.369C214.798 166.353 214.758 166.328 214.725 166.296C214.691 166.264 214.665 166.226 214.647 166.183C214.628 166.141 214.619 166.095 214.619 166.049ZM214.713 166.943H215.234V169.83H214.728L214.713 166.943Z" fill="#263238"/>
<path d="M215.871 169.526L216.089 169.114C216.39 169.31 216.741 169.415 217.1 169.417C217.583 169.417 217.785 169.269 217.785 169.021C217.785 168.375 215.964 168.935 215.964 167.783C215.964 167.27 216.423 166.92 217.163 166.92C217.529 166.911 217.892 167 218.213 167.177L217.995 167.597C217.746 167.439 217.457 167.358 217.163 167.363C216.704 167.363 216.478 167.535 216.478 167.76C216.478 168.445 218.306 167.885 218.306 169.013C218.306 169.534 217.832 169.869 217.061 169.869C216.639 169.882 216.222 169.762 215.871 169.526Z" fill="#263238"/>
<path d="M221.73 168.172V169.83H221.201V168.274C221.201 167.706 220.921 167.426 220.423 167.426C220.297 167.417 220.17 167.436 220.052 167.481C219.934 167.527 219.827 167.598 219.74 167.689C219.652 167.781 219.586 167.89 219.545 168.01C219.504 168.13 219.491 168.257 219.505 168.383V169.869H218.983V165.792H219.505V167.348C219.63 167.203 219.788 167.088 219.964 167.013C220.141 166.937 220.332 166.903 220.524 166.912C220.691 166.898 220.858 166.921 221.015 166.98C221.171 167.04 221.313 167.133 221.428 167.254C221.544 167.375 221.631 167.52 221.683 167.679C221.735 167.838 221.751 168.007 221.73 168.172Z" fill="#263238"/>
<path opacity="0.4" d="M241.094 163.792H236.247C235.559 163.792 235.002 164.35 235.002 165.037V169.884C235.002 170.572 235.559 171.129 236.247 171.129H241.094C241.781 171.129 242.338 170.572 242.338 169.884V165.037C242.338 164.35 241.781 163.792 241.094 163.792Z" fill="black"/>
<path d="M236.8 166.025L238.675 168.888L240.542 166.025H236.8Z" fill="white"/>
<path d="M297.678 162.563H255.682C254.904 162.563 254.273 163.194 254.273 163.971V170.95C254.273 171.728 254.904 172.358 255.682 172.358H297.678C298.456 172.358 299.086 171.728 299.086 170.95V163.971C299.086 163.194 298.456 162.563 297.678 162.563Z" fill="white"/>
<path d="M257.518 166.017H258.062V169.83H257.518V166.017Z" fill="#263238"/>
<path d="M261.89 168.172V169.83H261.408V168.274C261.408 167.706 261.128 167.426 260.63 167.426C260.504 167.417 260.377 167.436 260.259 167.481C260.141 167.527 260.034 167.598 259.947 167.689C259.859 167.781 259.793 167.89 259.752 168.01C259.712 168.13 259.698 168.257 259.712 168.383V169.869H259.19V166.982H259.696V167.418C259.82 167.264 259.978 167.143 260.158 167.063C260.338 166.983 260.534 166.947 260.731 166.959C260.889 166.953 261.047 166.98 261.195 167.04C261.342 167.1 261.474 167.19 261.584 167.305C261.693 167.419 261.777 167.556 261.83 167.706C261.883 167.855 261.903 168.014 261.89 168.172Z" fill="#263238"/>
<path d="M265.601 165.792V169.83H265.103V169.378C264.984 169.538 264.827 169.667 264.647 169.752C264.466 169.838 264.268 169.878 264.068 169.869C263.696 169.841 263.347 169.674 263.093 169.401C262.839 169.127 262.697 168.768 262.697 168.394C262.697 168.021 262.839 167.661 263.093 167.388C263.347 167.114 263.696 166.947 264.068 166.92C264.261 166.912 264.453 166.949 264.629 167.029C264.805 167.108 264.959 167.228 265.08 167.379V165.823L265.601 165.792ZM265.087 168.39C265.078 168.2 265.014 168.017 264.901 167.863C264.789 167.71 264.634 167.592 264.456 167.526C264.278 167.459 264.084 167.447 263.898 167.489C263.713 167.532 263.544 167.628 263.413 167.766C263.281 167.903 263.193 168.077 263.159 168.264C263.125 168.451 263.147 168.644 263.222 168.819C263.297 168.994 263.421 169.143 263.58 169.248C263.739 169.353 263.925 169.409 264.115 169.41C264.248 169.413 264.38 169.389 264.502 169.338C264.625 169.288 264.736 169.212 264.828 169.116C264.919 169.02 264.99 168.906 265.035 168.781C265.079 168.656 265.097 168.523 265.087 168.39Z" fill="#263238"/>
<path d="M266.325 168.39C266.32 168.092 266.405 167.8 266.567 167.55C266.729 167.3 266.962 167.104 267.236 166.987C267.51 166.869 267.812 166.836 268.105 166.892C268.398 166.947 268.667 167.088 268.88 167.297C269.092 167.506 269.237 167.773 269.297 168.065C269.357 168.357 269.329 168.66 269.216 168.936C269.103 169.212 268.911 169.448 268.663 169.614C268.416 169.78 268.125 169.868 267.827 169.869C267.629 169.878 267.431 169.847 267.246 169.776C267.061 169.706 266.893 169.598 266.751 169.459C266.61 169.32 266.5 169.153 266.426 168.969C266.353 168.785 266.318 168.588 266.325 168.39ZM268.799 168.39C268.799 168.132 268.697 167.885 268.514 167.703C268.332 167.52 268.084 167.418 267.827 167.418C267.569 167.418 267.321 167.52 267.139 167.703C266.957 167.885 266.854 168.132 266.854 168.39C266.854 168.648 266.957 168.896 267.139 169.078C267.321 169.26 267.569 169.363 267.827 169.363C268.084 169.363 268.332 169.26 268.514 169.078C268.697 168.896 268.799 168.648 268.799 168.39Z" fill="#263238"/>
<path d="M272.789 168.172V169.83H272.299V168.274C272.299 167.706 272.011 167.426 271.521 167.426C271.395 167.415 271.268 167.434 271.149 167.479C271.03 167.524 270.923 167.595 270.835 167.686C270.747 167.778 270.681 167.888 270.641 168.008C270.601 168.129 270.588 168.257 270.603 168.383V169.869H270.082V166.982H270.58V167.418C270.705 167.264 270.865 167.143 271.046 167.063C271.227 166.983 271.425 166.947 271.622 166.959C271.782 166.952 271.941 166.978 272.089 167.038C272.237 167.097 272.37 167.187 272.481 167.301C272.591 167.416 272.676 167.553 272.729 167.704C272.782 167.854 272.803 168.014 272.789 168.172Z" fill="#263238"/>
<path d="M276.376 168.561H274.042C274.077 168.81 274.205 169.035 274.4 169.193C274.595 169.35 274.842 169.428 275.092 169.41C275.248 169.415 275.403 169.386 275.547 169.326C275.69 169.265 275.819 169.174 275.925 169.059L276.212 169.394C276.07 169.553 275.895 169.677 275.698 169.76C275.502 169.842 275.289 169.879 275.077 169.869C274.875 169.884 274.672 169.857 274.482 169.789C274.291 169.721 274.117 169.614 273.971 169.475C273.824 169.335 273.708 169.167 273.631 168.98C273.553 168.793 273.516 168.592 273.521 168.39C273.513 168.197 273.545 168.003 273.616 167.822C273.686 167.642 273.793 167.477 273.929 167.339C274.065 167.202 274.229 167.093 274.409 167.021C274.589 166.949 274.782 166.914 274.975 166.92C275.169 166.915 275.362 166.951 275.541 167.025C275.72 167.098 275.881 167.209 276.015 167.349C276.149 167.488 276.253 167.655 276.319 167.837C276.385 168.019 276.412 168.213 276.399 168.406C276.384 168.453 276.376 168.515 276.376 168.561ZM274.042 168.188H275.901C275.88 167.956 275.773 167.741 275.601 167.584C275.429 167.427 275.204 167.34 274.972 167.34C274.739 167.34 274.514 167.427 274.342 167.584C274.17 167.741 274.063 167.956 274.042 168.188Z" fill="#263238"/>
<path d="M276.742 169.526L276.96 169.114C277.261 169.309 277.612 169.414 277.971 169.417C278.462 169.417 278.664 169.269 278.664 169.021C278.664 168.375 276.836 168.935 276.836 167.783C276.836 167.27 277.295 166.92 278.041 166.92C278.408 166.912 278.77 167.001 279.092 167.177L278.866 167.597C278.618 167.438 278.328 167.357 278.034 167.363C277.575 167.363 277.349 167.535 277.349 167.76C277.349 168.445 279.185 167.885 279.185 169.013C279.185 169.534 278.703 169.869 277.933 169.869C277.51 169.879 277.095 169.76 276.742 169.526Z" fill="#263238"/>
<path d="M279.745 166.049C279.758 165.964 279.801 165.886 279.866 165.83C279.931 165.774 280.014 165.743 280.099 165.743C280.185 165.743 280.268 165.774 280.333 165.83C280.398 165.886 280.441 165.964 280.453 166.049C280.455 166.095 280.446 166.142 280.428 166.186C280.411 166.229 280.384 166.269 280.351 166.301C280.317 166.334 280.277 166.36 280.233 166.377C280.189 166.393 280.142 166.401 280.096 166.399C280.049 166.401 280.003 166.393 279.959 166.377C279.916 166.36 279.876 166.334 279.843 166.301C279.81 166.268 279.784 166.229 279.768 166.185C279.751 166.142 279.743 166.095 279.745 166.049ZM279.839 166.943H280.36V169.83H279.839V166.943Z" fill="#263238"/>
<path d="M283.643 168.087V169.83H283.145V169.448C283.037 169.593 282.894 169.708 282.729 169.782C282.564 169.855 282.383 169.885 282.204 169.869C281.542 169.869 281.13 169.518 281.13 169.013C281.13 168.507 281.433 168.172 282.289 168.172H283.122V168.048C283.122 167.605 282.865 167.348 282.344 167.348C282.013 167.342 281.691 167.452 281.433 167.659L281.215 167.262C281.562 167.014 281.98 166.885 282.406 166.897C283.192 166.92 283.643 167.27 283.643 168.087ZM283.122 168.95V168.546H282.344C281.83 168.546 281.682 168.748 281.682 168.997C281.682 169.246 281.923 169.464 282.32 169.464C282.49 169.469 282.658 169.423 282.801 169.332C282.944 169.24 283.056 169.107 283.122 168.95Z" fill="#263238"/>
<path d="M287.354 168.172V169.83H286.833V168.274C286.833 167.706 286.545 167.426 286.055 167.426C285.929 167.417 285.802 167.436 285.685 167.481C285.567 167.527 285.461 167.598 285.374 167.689C285.287 167.781 285.221 167.89 285.181 168.01C285.142 168.13 285.129 168.257 285.144 168.383V169.869H284.623V166.982H285.121V167.418C285.246 167.264 285.406 167.143 285.587 167.063C285.768 166.983 285.966 166.947 286.163 166.959C286.325 166.948 286.486 166.972 286.637 167.03C286.788 167.087 286.924 167.177 287.037 167.292C287.151 167.407 287.237 167.546 287.292 167.698C287.347 167.85 287.368 168.012 287.354 168.172Z" fill="#263238"/>
<path opacity="0.4" d="M296.34 163.792H291.493C290.805 163.792 290.248 164.35 290.248 165.037V169.884C290.248 170.572 290.805 171.129 291.493 171.129H296.34C297.027 171.129 297.585 170.572 297.585 169.884V165.037C297.585 164.35 297.027 163.792 296.34 163.792Z" fill="black"/>
<path d="M292.045 166.025L293.912 168.888L295.787 166.025H292.045Z" fill="white"/>
<path d="M297.335 177.267H200.731C199.764 177.267 198.98 178.051 198.98 179.018V224.85C198.98 225.817 199.764 226.6 200.731 226.6H297.335C298.302 226.6 299.086 225.817 299.086 224.85V179.018C299.086 178.051 298.302 177.267 297.335 177.267Z" fill="white"/>
<g opacity="0.4">
<path d="M207.609 187.444V188.222H203.244V182.215H207.484V182.993H204.108V184.837H207.119V185.569H204.108V187.506L207.609 187.444Z" fill="black"/>
<path d="M213.172 185.576V188.19H212.394V185.67C212.394 184.775 211.95 184.339 211.164 184.339C210.965 184.324 210.765 184.353 210.579 184.424C210.392 184.496 210.224 184.608 210.087 184.752C209.949 184.897 209.845 185.07 209.782 185.26C209.72 185.449 209.7 185.651 209.725 185.849V188.183H208.9V183.608H209.678V184.3C209.872 184.056 210.121 183.862 210.406 183.735C210.69 183.607 211.001 183.551 211.312 183.569C211.574 183.553 211.835 183.595 212.079 183.692C212.322 183.789 212.54 183.939 212.718 184.132C212.896 184.324 213.029 184.553 213.108 184.803C213.186 185.053 213.208 185.317 213.172 185.576Z" fill="black"/>
<path d="M217.28 187.926C216.999 188.155 216.646 188.279 216.284 188.276C216.091 188.298 215.895 188.276 215.712 188.213C215.528 188.149 215.361 188.045 215.223 187.909C215.085 187.772 214.979 187.606 214.914 187.424C214.848 187.241 214.825 187.045 214.844 186.852V184.355H214.066V183.608H214.844V182.62H215.669V183.608H216.976V184.293H215.669V186.751C215.652 186.852 215.658 186.955 215.687 187.053C215.716 187.15 215.767 187.24 215.836 187.315C215.906 187.39 215.991 187.449 216.086 187.486C216.181 187.523 216.283 187.538 216.385 187.529C216.615 187.534 216.84 187.46 217.023 187.319L217.28 187.926Z" fill="black"/>
<path d="M222.219 186.191H218.524C218.585 186.576 218.789 186.924 219.094 187.166C219.399 187.408 219.784 187.526 220.173 187.498C220.419 187.507 220.663 187.464 220.89 187.37C221.117 187.276 221.321 187.134 221.488 186.953L221.947 187.482C221.612 187.821 221.187 188.056 220.723 188.16C220.258 188.264 219.773 188.232 219.326 188.068C218.88 187.904 218.489 187.615 218.202 187.235C217.915 186.855 217.743 186.401 217.707 185.926C217.692 185.621 217.74 185.315 217.848 185.028C217.957 184.742 218.123 184.481 218.337 184.262C218.551 184.043 218.808 183.87 219.092 183.755C219.376 183.64 219.68 183.585 219.986 183.592C220.291 183.584 220.594 183.64 220.877 183.755C221.159 183.871 221.414 184.044 221.625 184.263C221.837 184.483 222 184.744 222.105 185.031C222.21 185.317 222.254 185.622 222.235 185.926C222.235 186.012 222.227 186.113 222.219 186.191ZM218.524 185.6H221.449C221.412 185.238 221.241 184.903 220.971 184.659C220.701 184.415 220.35 184.28 219.986 184.28C219.623 184.28 219.272 184.415 219.001 184.659C218.731 184.903 218.561 185.238 218.524 185.6Z" fill="black"/>
<path d="M225.822 183.608V184.386C225.76 184.378 225.697 184.378 225.635 184.386C225.433 184.373 225.23 184.406 225.043 184.482C224.855 184.557 224.686 184.674 224.549 184.823C224.412 184.972 224.309 185.15 224.25 185.344C224.19 185.537 224.174 185.742 224.204 185.942V188.206H223.379V183.608H224.157V184.386C224.334 184.113 224.584 183.896 224.878 183.758C225.172 183.621 225.499 183.569 225.822 183.608Z" fill="black"/>
<path d="M231.766 187.926C231.481 188.144 231.129 188.257 230.77 188.245C230.577 188.267 230.382 188.245 230.198 188.182C230.015 188.118 229.848 188.014 229.709 187.878C229.571 187.741 229.466 187.575 229.4 187.392C229.335 187.21 229.311 187.014 229.331 186.821V184.324H228.553V183.608H229.331V182.62H230.155V183.608H231.455V184.293H230.155V186.751C230.139 186.851 230.145 186.953 230.173 187.051C230.202 187.148 230.252 187.237 230.32 187.312C230.389 187.387 230.473 187.445 230.567 187.483C230.661 187.521 230.762 187.536 230.863 187.529C231.096 187.535 231.324 187.461 231.509 187.319L231.766 187.926Z" fill="black"/>
<path d="M236.698 186.191H233.011C233.067 186.58 233.268 186.933 233.574 187.18C233.88 187.427 234.268 187.549 234.66 187.521C234.905 187.53 235.15 187.486 235.377 187.392C235.604 187.298 235.808 187.157 235.975 186.977L236.426 187.506C236.091 187.844 235.666 188.08 235.202 188.184C234.737 188.287 234.253 188.255 233.806 188.091C233.359 187.927 232.968 187.638 232.681 187.259C232.394 186.879 232.222 186.424 232.186 185.95C232.172 185.644 232.221 185.338 232.331 185.051C232.44 184.765 232.607 184.504 232.822 184.285C233.036 184.066 233.294 183.894 233.578 183.779C233.862 183.663 234.167 183.608 234.473 183.616C234.778 183.608 235.081 183.663 235.363 183.779C235.646 183.894 235.901 184.067 236.112 184.287C236.324 184.506 236.487 184.768 236.592 185.054C236.697 185.34 236.741 185.645 236.722 185.95C236.722 186.012 236.706 186.113 236.698 186.191ZM233.011 185.6H235.928C235.883 185.245 235.71 184.918 235.442 184.681C235.173 184.445 234.827 184.314 234.469 184.314C234.111 184.314 233.766 184.445 233.497 184.681C233.229 184.918 233.056 185.245 233.011 185.6Z" fill="black"/>
<path d="M240.635 188.19L239.32 186.448L237.989 188.19H237.071L238.868 185.856L237.157 183.631H238.067L239.32 185.273L240.565 183.631H241.467L239.748 185.856L241.56 188.19H240.635Z" fill="black"/>
<path d="M245.07 187.926C244.784 188.144 244.433 188.257 244.074 188.245C243.88 188.268 243.684 188.247 243.499 188.184C243.315 188.121 243.147 188.018 243.008 187.881C242.869 187.744 242.762 187.578 242.696 187.395C242.63 187.211 242.607 187.015 242.627 186.821V184.324H241.849V183.608H242.627V182.62H243.451V183.608H244.758V184.293H243.451V186.751C243.434 186.852 243.441 186.955 243.47 187.053C243.499 187.15 243.55 187.24 243.619 187.315C243.688 187.39 243.773 187.449 243.868 187.486C243.963 187.523 244.065 187.538 244.167 187.529C244.4 187.535 244.628 187.461 244.813 187.319L245.07 187.926Z" fill="black"/>
</g>
<path d="M292.014 219.793C292.212 219.794 292.407 219.756 292.59 219.681C292.773 219.605 292.939 219.495 293.078 219.355C293.218 219.216 293.329 219.05 293.404 218.867C293.479 218.684 293.517 218.489 293.516 218.291V216.121C293.489 215.742 293.319 215.388 293.041 215.129C292.763 214.871 292.398 214.727 292.018 214.727C291.639 214.727 291.273 214.871 290.995 215.129C290.717 215.388 290.548 215.742 290.521 216.121V218.291C290.52 218.488 290.557 218.683 290.632 218.865C290.707 219.047 290.816 219.213 290.955 219.353C291.094 219.492 291.259 219.603 291.441 219.678C291.623 219.754 291.817 219.793 292.014 219.793Z" fill="#263238"/>
<path d="M294.247 216.525C294.167 216.525 294.091 216.556 294.035 216.611C293.978 216.667 293.945 216.742 293.943 216.821V218.33C293.943 218.846 293.738 219.341 293.373 219.705C293.009 220.07 292.514 220.275 291.998 220.275C291.482 220.275 290.988 220.07 290.623 219.705C290.258 219.341 290.053 218.846 290.053 218.33V216.821C290.042 216.75 290.005 216.685 289.95 216.638C289.895 216.591 289.826 216.566 289.754 216.566C289.682 216.566 289.612 216.591 289.557 216.638C289.502 216.685 289.466 216.75 289.454 216.821V218.33C289.456 218.948 289.684 219.543 290.096 220.003C290.507 220.464 291.074 220.757 291.687 220.828V222.508C291.686 222.547 291.693 222.587 291.707 222.624C291.722 222.66 291.743 222.694 291.771 222.722C291.798 222.75 291.831 222.773 291.868 222.788C291.904 222.804 291.943 222.811 291.983 222.811C292.063 222.811 292.14 222.779 292.197 222.723C292.254 222.666 292.286 222.588 292.286 222.508V220.796C292.899 220.726 293.464 220.432 293.874 219.972C294.285 219.511 294.511 218.916 294.511 218.299V216.79C294.504 216.722 294.474 216.658 294.426 216.61C294.378 216.562 294.314 216.532 294.247 216.525Z" fill="#263238"/>
<path d="M297.335 231.727H200.731C199.764 231.727 198.98 232.511 198.98 233.478V279.31C198.98 280.277 199.764 281.06 200.731 281.06H297.335C298.302 281.06 299.086 280.277 299.086 279.31V233.478C299.086 232.511 298.302 231.727 297.335 231.727Z" fill="white"/>
<g opacity="0.4">
<path d="M204.443 237.391H202.381V236.613H207.352V237.391H205.291V242.658H204.443V237.391Z" fill="black"/>
<path d="M210.503 238.068V238.846H210.309C210.106 238.832 209.903 238.864 209.715 238.939C209.526 239.014 209.357 239.131 209.219 239.28C209.082 239.429 208.98 239.608 208.92 239.802C208.861 239.996 208.847 240.201 208.877 240.402V242.674H208.053V238.122H208.831V238.9C209.001 238.617 209.249 238.387 209.545 238.24C209.842 238.092 210.174 238.033 210.503 238.068Z" fill="black"/>
<path d="M215.108 239.912V242.658H214.33V242.051C214.156 242.276 213.928 242.454 213.667 242.568C213.406 242.683 213.12 242.729 212.837 242.705C211.802 242.705 211.156 242.16 211.156 241.367C211.156 240.573 211.623 240.036 212.985 240.036H214.284V239.873C214.284 239.181 213.879 238.776 213.07 238.776C212.546 238.772 212.037 238.945 211.623 239.266L211.281 238.652C211.827 238.25 212.493 238.045 213.171 238.068C213.426 238.03 213.687 238.051 213.932 238.129C214.178 238.206 214.403 238.339 214.59 238.517C214.777 238.695 214.92 238.913 215.01 239.155C215.1 239.396 215.134 239.655 215.108 239.912ZM214.284 241.266V240.628H213.016C212.199 240.628 211.965 240.947 211.965 241.336C211.965 241.725 212.347 242.075 212.977 242.075C213.252 242.094 213.526 242.026 213.761 241.881C213.995 241.736 214.178 241.521 214.284 241.266Z" fill="black"/>
<path d="M220.952 240.036V242.658H220.174V240.13C220.174 239.243 219.723 238.799 218.945 238.799C218.746 238.784 218.546 238.813 218.359 238.884C218.173 238.956 218.005 239.068 217.867 239.212C217.729 239.357 217.625 239.53 217.563 239.72C217.5 239.909 217.481 240.111 217.505 240.309V242.643H216.681V238.091H217.459V238.776C217.654 238.532 217.905 238.338 218.191 238.211C218.476 238.084 218.788 238.027 219.1 238.045C219.36 238.03 219.619 238.072 219.86 238.169C220.101 238.266 220.317 238.415 220.494 238.605C220.671 238.796 220.804 239.022 220.883 239.27C220.962 239.517 220.985 239.779 220.952 240.036Z" fill="black"/>
<path d="M221.908 242.176L222.251 241.522C222.728 241.831 223.284 241.996 223.853 241.997C224.631 241.997 224.935 241.763 224.935 241.374C224.935 240.355 222.056 241.242 222.056 239.429C222.056 238.613 222.787 238.06 223.954 238.06C224.533 238.051 225.104 238.193 225.611 238.473L225.261 239.126C224.867 238.882 224.41 238.758 223.947 238.768C223.223 238.768 222.873 239.033 222.873 239.391C222.873 240.464 225.752 239.593 225.752 241.359C225.752 242.184 224.974 242.705 223.791 242.705C223.124 242.724 222.467 242.539 221.908 242.176Z" fill="black"/>
<path d="M226.787 236.286H227.612V242.658H226.787V236.286Z" fill="black"/>
<path d="M232.785 239.912V242.658H232.007V242.051C231.833 242.276 231.605 242.454 231.344 242.568C231.083 242.683 230.797 242.729 230.513 242.705C229.479 242.705 228.833 242.16 228.833 241.367C228.833 240.573 229.3 240.036 230.661 240.036H231.961V239.873C231.961 239.181 231.556 238.776 230.747 238.776C230.223 238.772 229.714 238.945 229.3 239.266L228.957 238.651C229.501 238.249 230.164 238.041 230.84 238.06C231.097 238.021 231.359 238.041 231.606 238.118C231.854 238.196 232.08 238.329 232.268 238.508C232.456 238.687 232.6 238.906 232.69 239.15C232.779 239.393 232.812 239.654 232.785 239.912ZM231.961 241.266V240.628H230.692C229.914 240.628 229.642 240.947 229.642 241.336C229.642 241.725 230.023 242.075 230.654 242.075C230.929 242.094 231.203 242.026 231.438 241.881C231.672 241.736 231.855 241.52 231.961 241.266Z" fill="black"/>
<path d="M236.869 242.386C236.588 242.606 236.238 242.719 235.881 242.705C235.688 242.728 235.491 242.707 235.307 242.644C235.122 242.581 234.954 242.478 234.815 242.341C234.676 242.204 234.57 242.038 234.504 241.855C234.438 241.671 234.414 241.475 234.434 241.281V238.784H233.656V238.107H234.434V237.111H235.259V238.107H236.566V238.784H235.259V241.25C235.242 241.351 235.248 241.454 235.277 241.552C235.306 241.649 235.357 241.739 235.426 241.814C235.495 241.889 235.581 241.948 235.676 241.985C235.771 242.022 235.873 242.037 235.975 242.028C236.206 242.031 236.431 241.954 236.613 241.81L236.869 242.386Z" fill="black"/>
<path d="M237.726 236.699C237.726 236.626 237.74 236.554 237.769 236.488C237.797 236.421 237.839 236.361 237.891 236.311C237.943 236.26 238.005 236.221 238.073 236.196C238.141 236.17 238.213 236.159 238.286 236.162C238.391 236.166 238.492 236.202 238.577 236.263C238.663 236.325 238.728 236.411 238.765 236.509C238.802 236.607 238.809 236.714 238.786 236.817C238.763 236.92 238.71 237.013 238.634 237.086C238.558 237.159 238.462 237.207 238.359 237.226C238.255 237.245 238.149 237.233 238.052 237.192C237.955 237.151 237.873 237.082 237.815 236.994C237.757 236.907 237.726 236.804 237.726 236.699ZM237.873 238.107H238.69V242.658H237.873V238.107Z" fill="black"/>
<path d="M239.842 240.402C239.842 239.942 239.978 239.492 240.233 239.109C240.488 238.726 240.85 238.427 241.274 238.25C241.698 238.072 242.166 238.023 242.617 238.11C243.069 238.197 243.485 238.416 243.813 238.738C244.141 239.061 244.366 239.473 244.46 239.923C244.555 240.373 244.514 240.841 244.343 241.269C244.173 241.696 243.88 242.063 243.501 242.324C243.122 242.585 242.675 242.728 242.215 242.736C241.903 242.751 241.59 242.702 241.298 242.59C241.006 242.479 240.74 242.308 240.517 242.089C240.294 241.869 240.119 241.606 240.003 241.316C239.887 241.026 239.832 240.715 239.842 240.402ZM243.732 240.402C243.771 240.178 243.761 239.949 243.702 239.73C243.643 239.51 243.537 239.307 243.391 239.133C243.245 238.959 243.062 238.819 242.857 238.723C242.651 238.627 242.426 238.577 242.199 238.577C241.972 238.577 241.748 238.627 241.542 238.723C241.336 238.819 241.154 238.959 241.008 239.133C240.862 239.307 240.756 239.51 240.697 239.73C240.638 239.949 240.627 240.178 240.667 240.402C240.627 240.626 240.638 240.855 240.697 241.074C240.756 241.294 240.862 241.497 241.008 241.671C241.154 241.845 241.336 241.985 241.542 242.081C241.748 242.177 241.972 242.227 242.199 242.227C242.426 242.227 242.651 242.177 242.857 242.081C243.062 241.985 243.245 241.845 243.391 241.671C243.537 241.497 243.643 241.294 243.702 241.074C243.761 240.855 243.771 240.626 243.732 240.402Z" fill="black"/>
<path d="M250.034 240.036V242.658H249.209V240.13C249.209 239.243 248.766 238.799 247.98 238.799C247.781 238.785 247.582 238.815 247.396 238.887C247.21 238.959 247.043 239.071 246.905 239.215C246.768 239.36 246.664 239.532 246.601 239.721C246.538 239.91 246.517 240.111 246.541 240.309V242.643H245.716V238.091H246.494V238.776C246.696 238.53 246.956 238.336 247.25 238.213C247.544 238.089 247.864 238.04 248.182 238.068C248.439 238.054 248.696 238.096 248.935 238.192C249.174 238.287 249.39 238.434 249.566 238.621C249.742 238.809 249.876 239.033 249.956 239.277C250.037 239.521 250.064 239.781 250.034 240.036Z" fill="black"/>
</g>
<path d="M292.014 274.253C292.211 274.254 292.406 274.216 292.588 274.141C292.77 274.067 292.936 273.957 293.076 273.818C293.215 273.679 293.326 273.514 293.401 273.332C293.477 273.151 293.516 272.956 293.516 272.759V270.588C293.531 270.383 293.503 270.176 293.434 269.981C293.366 269.787 293.258 269.609 293.117 269.458C292.977 269.307 292.807 269.186 292.618 269.104C292.428 269.021 292.224 268.979 292.018 268.979C291.812 268.979 291.608 269.021 291.419 269.104C291.23 269.186 291.059 269.307 290.919 269.458C290.778 269.609 290.67 269.787 290.602 269.981C290.533 270.176 290.506 270.383 290.52 270.588V272.759C290.52 272.955 290.559 273.149 290.634 273.331C290.709 273.512 290.819 273.677 290.958 273.815C291.097 273.954 291.261 274.064 291.443 274.139C291.624 274.214 291.818 274.253 292.014 274.253Z" fill="#263238"/>
<path d="M294.247 270.985C294.167 270.987 294.091 271.02 294.034 271.076C293.978 271.133 293.945 271.209 293.943 271.289V272.79C293.943 273.306 293.738 273.801 293.373 274.165C293.009 274.53 292.514 274.735 291.998 274.735C291.482 274.735 290.988 274.53 290.623 274.165C290.258 273.801 290.053 273.306 290.053 272.79V271.289C290.06 271.245 290.058 271.201 290.046 271.159C290.034 271.116 290.013 271.077 289.985 271.043C289.956 271.01 289.921 270.983 289.881 270.965C289.841 270.946 289.798 270.937 289.754 270.937C289.71 270.937 289.666 270.946 289.626 270.965C289.586 270.983 289.551 271.01 289.523 271.043C289.494 271.077 289.473 271.116 289.461 271.159C289.45 271.201 289.447 271.245 289.454 271.289V272.79C289.457 273.408 289.686 274.004 290.097 274.465C290.508 274.926 291.073 275.221 291.687 275.295V277.007C291.687 277.085 291.718 277.16 291.774 277.216C291.829 277.271 291.904 277.303 291.983 277.303C292.062 277.303 292.138 277.272 292.194 277.216C292.251 277.161 292.284 277.086 292.286 277.007V275.295C292.899 275.221 293.463 274.926 293.873 274.464C294.283 274.003 294.51 273.407 294.511 272.79V271.289C294.512 271.214 294.485 271.143 294.436 271.087C294.388 271.031 294.32 270.995 294.247 270.985Z" fill="#263238"/>
<path d="M249.784 166.15H247.404V165.379L245.638 166.531L247.404 167.69V166.92H249.784V166.15Z" fill="#263238"/>
<path d="M248.283 168.764H250.656V169.534L252.422 168.383L250.656 167.223V167.994H248.283V168.764Z" fill="#263238"/>
<g opacity="0.1">
<path d="M243.778 92.9165L211.009 215.654L210.643 217.031L210.052 219.24L209.679 220.625L192.562 284.717V207.166L224.624 87.0738H225.666C226.093 87.0835 226.507 87.2196 226.856 87.4647C227.205 87.7099 227.473 88.0531 227.627 88.4508L228.887 91.5628C229.045 91.9583 229.316 92.2984 229.666 92.5406C230.016 92.7828 230.43 92.9163 230.856 92.9243L243.778 92.9165Z" fill="white"/>
<path d="M306.392 155.6V233.167L285.954 309.722L285.456 311.581L282.087 324.208H261.385L264.753 311.589L265.29 309.558L267.998 299.421L268.542 297.391L269.624 293.329L270.168 291.307L271.242 287.245L271.787 285.223L288.825 221.411V221.403L289.611 218.455V218.447L306.392 155.6Z" fill="white"/>
<path d="M254.997 92.9165L222.43 214.891L222.236 215.615L220.454 222.306L220.259 223.029L193.481 323.391C193.188 323.098 192.957 322.75 192.801 322.367C192.644 321.983 192.566 321.572 192.57 321.158V309.317L215.599 223.029L215.802 222.306L217.583 215.615L217.778 214.891L250.345 92.9165H254.997Z" fill="white"/>
</g>
<path d="M143.206 113.207C143.206 113.207 144.645 121.119 155.109 124.698C155.109 124.698 149.158 118.948 149.158 113.207H143.206Z" fill="#34607B"/>
<path opacity="0.6" d="M143.206 113.207C143.206 113.207 144.645 121.119 155.109 124.698C155.109 124.698 149.158 118.948 149.158 113.207H143.206Z" fill="white"/>
<path d="M155.04 97.9113H123.865C122.563 97.9113 121.508 98.9667 121.508 100.269V115.883C121.508 117.185 122.563 118.24 123.865 118.24H155.04C156.342 118.24 157.397 117.185 157.397 115.883V100.269C157.397 98.9667 156.342 97.9113 155.04 97.9113Z" fill="#34607B"/>
<path opacity="0.6" d="M155.04 97.9113H123.865C122.563 97.9113 121.508 98.9667 121.508 100.269V115.883C121.508 117.185 122.563 118.24 123.865 118.24H155.04C156.342 118.24 157.397 117.185 157.397 115.883V100.269C157.397 98.9667 156.342 97.9113 155.04 97.9113Z" fill="white"/>
<path d="M131.979 109.037C132.512 109.037 132.944 108.605 132.944 108.072C132.944 107.539 132.512 107.107 131.979 107.107C131.447 107.107 131.015 107.539 131.015 108.072C131.015 108.605 131.447 109.037 131.979 109.037Z" fill="#34607B"/>
<path d="M136.959 109.037C137.492 109.037 137.924 108.605 137.924 108.072C137.924 107.539 137.492 107.107 136.959 107.107C136.426 107.107 135.994 107.539 135.994 108.072C135.994 108.605 136.426 109.037 136.959 109.037Z" fill="#34607B"/>
<path d="M142.911 108.072C142.912 108.265 142.856 108.454 142.75 108.615C142.644 108.776 142.492 108.902 142.314 108.977C142.136 109.051 141.94 109.071 141.75 109.034C141.561 108.997 141.387 108.904 141.251 108.767C141.114 108.631 141.021 108.457 140.984 108.268C140.947 108.078 140.967 107.882 141.041 107.704C141.116 107.526 141.242 107.374 141.403 107.268C141.564 107.162 141.753 107.106 141.946 107.107C142.201 107.109 142.446 107.212 142.626 107.392C142.806 107.573 142.909 107.817 142.911 108.072Z" fill="#34607B"/>
<path d="M146.925 109.037C147.457 109.037 147.889 108.605 147.889 108.072C147.889 107.539 147.457 107.107 146.925 107.107C146.392 107.107 145.96 107.539 145.96 108.072C145.96 108.605 146.392 109.037 146.925 109.037Z" fill="#34607B"/>
<path d="M163.582 156.72C163.411 157.063 163.224 157.405 163.03 157.739C160.828 161.505 158.727 164.026 156.806 165.473C154.168 167.441 151.842 167.387 150.022 165.706C146.871 162.796 149.796 155.483 149.944 155.483C150.092 155.483 153.561 156.261 153.561 156.261L153.842 155.483C154.254 154.324 155.094 152.06 156.176 149.578C158.253 144.864 161.264 139.348 164.064 139.083C164.064 139.021 167.931 148.116 163.582 156.72Z" fill="#263238"/>
<path opacity="0.2" d="M163.582 156.72C163.411 157.063 163.224 157.405 163.03 157.739C160.828 161.505 158.727 164.026 156.806 165.473C154.168 167.441 151.842 167.387 150.022 165.706C146.871 162.796 149.796 155.483 149.944 155.483C150.092 155.483 153.561 156.261 153.561 156.261L153.842 155.483C154.254 154.324 155.094 152.06 156.176 149.578C158.253 144.864 161.264 139.348 164.064 139.083C164.064 139.021 167.931 148.116 163.582 156.72Z" fill="white"/>
<path opacity="0.2" d="M155.6 162.096C155.633 160.122 155.474 158.15 155.125 156.207L153.834 155.429C154.246 154.27 155.087 152.006 156.168 149.524C159.895 154.612 155.771 161.824 155.6 162.096Z" fill="black"/>
<path opacity="0.2" d="M163.582 156.72C163.411 157.063 163.224 157.405 163.03 157.739C160.828 161.505 158.727 164.026 156.806 165.473C156.261 158.471 162.042 152.682 162.508 153.282C163.166 154.312 163.536 155.499 163.582 156.72Z" fill="black"/>
<path d="M164.461 313.192L170.288 310.515L165.457 296.41L159.63 299.079L164.461 313.192Z" fill="#FFB573"/>
<path opacity="0.2" d="M165.457 296.41L167.947 303.685L162.119 306.361L159.63 299.087L165.457 296.41Z" fill="black"/>
<path d="M163.38 312.88L169.923 309.877C170.035 309.824 170.162 309.814 170.281 309.848C170.4 309.882 170.503 309.959 170.569 310.064L173.681 314.896C173.754 315.02 173.8 315.159 173.816 315.302C173.832 315.445 173.819 315.591 173.775 315.729C173.732 315.866 173.66 315.993 173.565 316.102C173.47 316.21 173.353 316.298 173.222 316.358C170.888 317.37 169.76 317.735 166.881 319.058C165.115 319.836 160.112 322.388 157.67 323.508C155.227 324.628 153.982 322.279 154.9 321.586C159.015 318.474 161.614 315.681 162.555 313.682C162.726 313.325 163.018 313.041 163.38 312.88Z" fill="#263238"/>
<path opacity="0.2" d="M163.38 312.88L169.923 309.877C170.035 309.824 170.162 309.814 170.281 309.848C170.4 309.882 170.503 309.959 170.569 310.064L173.681 314.896C173.754 315.02 173.8 315.159 173.816 315.302C173.832 315.445 173.819 315.591 173.775 315.729C173.732 315.866 173.66 315.993 173.565 316.102C173.47 316.21 173.353 316.298 173.222 316.358C170.888 317.37 169.76 317.735 166.881 319.058C165.115 319.836 160.112 322.388 157.67 323.508C155.227 324.628 153.982 322.279 154.9 321.586C159.015 318.474 161.614 315.681 162.555 313.682C162.726 313.325 163.018 313.041 163.38 312.88Z" fill="black"/>
<path d="M163.131 313.97C163.155 313.949 163.173 313.922 163.183 313.892C163.192 313.862 163.193 313.829 163.185 313.799C163.174 313.77 163.155 313.746 163.13 313.728C163.105 313.71 163.076 313.699 163.045 313.697C162.719 313.697 159.856 313.557 159.319 314.273C159.269 314.34 159.237 314.419 159.226 314.502C159.215 314.585 159.226 314.67 159.257 314.748C159.297 314.879 159.368 314.998 159.464 315.096C159.56 315.193 159.678 315.266 159.809 315.308C160.345 315.39 160.894 315.289 161.365 315.02C161.985 314.726 162.577 314.375 163.131 313.97ZM162.579 313.97C161.388 314.748 160.4 315.16 159.902 315.004C159.816 314.977 159.738 314.929 159.675 314.864C159.613 314.798 159.568 314.718 159.544 314.631C159.525 314.604 159.515 314.571 159.515 314.538C159.515 314.504 159.525 314.472 159.544 314.444C159.606 314.368 159.687 314.309 159.778 314.273C160.695 314.014 161.651 313.916 162.602 313.985L162.579 313.97Z" fill="#34607B"/>
<path d="M163.17 313.923C163.184 313.899 163.191 313.872 163.191 313.845C163.191 313.818 163.184 313.791 163.17 313.767C163.17 313.705 162.283 312.211 161.272 311.924C161.125 311.884 160.971 311.874 160.82 311.894C160.669 311.914 160.524 311.964 160.392 312.04C160.035 312.25 160.011 312.499 160.058 312.67C160.252 313.378 162.205 314.001 163.038 314.001H163.1C163.13 313.982 163.154 313.955 163.17 313.923ZM161.186 312.219C161.842 312.533 162.385 313.041 162.742 313.674C161.84 313.573 160.447 313.013 160.33 312.585C160.33 312.585 160.33 312.445 160.532 312.305L160.618 312.258C160.796 312.174 160.999 312.16 161.186 312.219Z" fill="#34607B"/>
<path d="M163.512 184.215C163.512 184.215 142.203 231.626 141.059 248.524C139.799 267.056 159.731 303.607 159.731 303.607L170.219 300.837C170.219 300.837 157.063 263.796 158.16 249.59C161.661 229.277 186.035 187.584 186.035 187.584L163.512 184.215Z" fill="#34607B"/>
<path opacity="0.2" d="M163.512 184.215C163.512 184.215 142.203 231.626 141.059 248.524C139.799 267.056 159.731 303.607 159.731 303.607L170.219 300.837C170.219 300.837 157.063 263.796 158.16 249.59C161.661 229.277 186.035 187.584 186.035 187.584L163.512 184.215Z" fill="white"/>
<path opacity="0.2" d="M177.306 198.312C171.767 200.825 168.056 214.012 168.297 220.975C172.187 212.674 176.388 204.552 179.749 198.343C179.381 198.123 178.961 198.003 178.532 197.998C178.103 197.993 177.68 198.101 177.306 198.312Z" fill="black"/>
<path d="M160.151 305.972L169.394 301.732L168.717 298.472L158.206 302.86L160.151 305.972Z" fill="#263238"/>
<path d="M169.168 317.292H175.579L177.072 302.448H170.67L169.168 317.292Z" fill="#FFB573"/>
<path opacity="0.2" d="M177.073 302.455L176.302 310.103H169.892L170.662 302.455H177.073Z" fill="black"/>
<path d="M168.304 316.545H175.501C175.626 316.544 175.747 316.588 175.841 316.67C175.936 316.751 175.997 316.865 176.014 316.988L176.792 322.683C176.809 322.827 176.795 322.973 176.751 323.111C176.706 323.249 176.633 323.376 176.536 323.484C176.439 323.591 176.32 323.677 176.187 323.734C176.054 323.792 175.91 323.821 175.766 323.819C173.26 323.78 172.047 323.632 168.88 323.632C166.935 323.632 161.341 323.835 158.65 323.835C155.958 323.835 155.818 321.174 156.938 320.933C161.956 319.851 165.496 318.365 167.192 316.942C167.503 316.679 167.898 316.538 168.304 316.545Z" fill="#263238"/>
<path d="M167.635 317.424C167.665 317.418 167.693 317.403 167.713 317.38C167.734 317.358 167.748 317.33 167.752 317.3C167.757 317.268 167.752 317.235 167.738 317.206C167.724 317.177 167.702 317.153 167.674 317.136C167.386 316.988 164.827 315.681 164.049 316.117C163.973 316.156 163.91 316.213 163.863 316.284C163.817 316.355 163.79 316.437 163.784 316.522C163.768 316.658 163.785 316.797 163.834 316.925C163.883 317.054 163.962 317.169 164.064 317.261C164.523 317.566 165.072 317.703 165.62 317.65C166.298 317.637 166.972 317.562 167.635 317.424ZM167.13 317.206C165.706 317.44 164.656 317.385 164.267 317.035C164.199 316.974 164.148 316.897 164.117 316.812C164.085 316.727 164.075 316.635 164.088 316.545C164.088 316.511 164.098 316.478 164.116 316.449C164.133 316.42 164.159 316.397 164.189 316.381C164.279 316.34 164.378 316.322 164.477 316.327C165.405 316.473 166.302 316.775 167.13 317.222V317.206Z" fill="#34607B"/>
<path d="M167.69 317.424C167.713 317.409 167.731 317.388 167.742 317.363C167.753 317.338 167.757 317.311 167.752 317.284C167.752 317.214 167.604 315.487 166.795 314.818C166.681 314.717 166.548 314.642 166.403 314.597C166.258 314.551 166.106 314.536 165.955 314.553C165.535 314.6 165.41 314.81 165.387 314.981C165.263 315.712 166.78 317.089 167.542 317.44H167.604C167.634 317.443 167.664 317.437 167.69 317.424ZM166.601 315.051C167.072 315.609 167.357 316.3 167.418 317.027C166.64 316.553 165.613 315.471 165.683 315.035C165.683 314.997 165.683 314.888 165.986 314.857H166.08C166.27 314.853 166.456 314.919 166.601 315.043V315.051Z" fill="#34607B"/>
<path d="M163.224 181.142L194.344 182.223C194.344 182.223 194.547 192.423 192.189 200.016L161.318 189.264L163.224 181.142Z" fill="#34607B"/>
<path opacity="0.2" d="M163.224 181.142L194.344 182.223C194.344 182.223 194.547 192.423 192.189 200.016L161.318 189.264L163.224 181.142Z" fill="white"/>
<path d="M174.645 183.538C174.645 183.538 169.277 233.244 169.036 250.337C168.763 269.071 168.476 306.765 168.476 306.765L178.496 308.321C178.496 308.321 183.289 273.187 185.171 255.028C187.311 234.341 193.263 192.275 193.263 192.275L174.645 183.538Z" fill="#34607B"/>
<path opacity="0.2" d="M174.645 183.538C174.645 183.538 169.277 233.244 169.036 250.337C168.763 269.071 168.476 306.765 168.476 306.765L178.496 308.321C178.496 308.321 183.289 273.187 185.171 255.028C187.311 234.341 193.263 192.275 193.263 192.275L174.645 183.538Z" fill="white"/>
<path d="M168.258 185.615L182.884 186.541L183.063 182.97L168.437 182.223L168.258 185.615Z" fill="#263238"/>
<path d="M184.176 183.032L183.989 186.611L193.987 187.249L194.181 183.538L184.176 183.032Z" fill="#263238"/>
<path d="M167.325 182.169L163.061 181.951L162.501 185.25L167.153 185.545L167.325 182.169Z" fill="#263238"/>
<path d="M177.287 182.46L171.529 182.166L171.317 186.315L177.074 186.609L177.287 182.46Z" fill="white"/>
<path d="M168.266 308.928H178.434L179.181 305.692L167.791 305.295L168.266 308.928Z" fill="#263238"/>
<path d="M193.466 166.889C193.785 174.894 194.601 181.025 194.5 183.032C190.089 183.032 172.288 181.142 163.225 181.142C157.561 144.288 164.065 139.021 164.065 139.021C166.914 138.366 169.804 137.909 172.716 137.652C176.98 137.437 181.251 137.437 185.514 137.652C188.904 137.832 192.281 138.206 195.628 138.772C194.326 144.634 193.596 150.608 193.45 156.611C193.287 160.268 193.341 163.707 193.466 166.889Z" fill="#263238"/>
<path d="M160.712 153.593C160.737 153.669 160.746 153.751 160.738 153.831C160.729 153.912 160.704 153.989 160.662 154.059C160.621 154.128 160.565 154.188 160.498 154.234C160.431 154.28 160.356 154.31 160.276 154.324L154.099 155.53C153.932 155.55 153.765 155.512 153.623 155.422C153.481 155.333 153.375 155.198 153.321 155.04L149.516 143.152C149.47 142.993 149.488 142.823 149.567 142.677C149.645 142.531 149.778 142.423 149.936 142.374L156.114 141.168C156.297 141.154 156.48 141.203 156.633 141.306C156.785 141.409 156.898 141.561 156.954 141.736L160.712 153.593Z" fill="#263238"/>
<path opacity="0.5" d="M156.253 141.728L160.05 153.756C160.082 153.825 160.098 153.9 160.096 153.976C160.094 154.052 160.074 154.127 160.037 154.193C160.001 154.26 159.949 154.317 159.887 154.36C159.824 154.403 159.752 154.431 159.677 154.441L154.441 155.46C154.09 155.53 153.414 155.46 153.305 155.118L149.493 143.043C149.384 142.709 149.936 142.312 150.271 142.265L155.506 141.246C155.669 141.215 155.837 141.248 155.976 141.338C156.115 141.428 156.214 141.567 156.253 141.728Z" fill="white"/>
<path d="M179.796 145.198C179.796 145.198 188.712 140.865 190.47 137.504C192.229 134.143 188.323 130.751 181.788 130.727C175.253 130.704 168.616 133.334 169.418 138.36C170.219 143.385 173.206 145.159 173.206 145.159C173.206 145.159 175.136 142.81 179.796 145.198Z" fill="#263238"/>
<path opacity="0.2" d="M179.796 145.198C179.796 145.198 188.712 140.865 190.47 137.504C192.229 134.143 188.323 130.751 181.788 130.727C175.253 130.704 168.616 133.334 169.418 138.36C170.219 143.385 173.206 145.159 173.206 145.159C173.206 145.159 175.136 142.81 179.796 145.198Z" fill="white"/>
<path d="M184.744 139.122C182.138 141.114 177.633 143.463 175.969 143.409C175.274 143.384 174.6 143.174 174.014 142.801C173.428 142.427 172.954 141.904 172.639 141.285C174.428 138.562 174.14 136.796 172.639 134.376L179.158 124.97C179.54 129.358 180.909 137.123 184.744 139.122Z" fill="#D58745"/>
<path opacity="0.2" d="M176.513 128.806L172.623 134.376C173.064 135.066 173.439 135.795 173.743 136.555C175.579 135.722 177.517 133.497 177.688 131.311C177.828 129.926 177.05 128.798 176.513 128.806Z" fill="black"/>
<path d="M167.356 116.521C169.985 117.758 169.332 120.66 164.617 125.779C161.995 123.29 160.774 117.844 162.283 116.194C163.792 114.545 165.06 115.447 167.356 116.521Z" fill="#263238"/>
<path d="M178.808 118.194C180.014 123.959 181.018 127.273 178.948 130.969C175.836 136.531 168.134 135.854 165.224 130.564C162.61 125.803 161.078 117.175 166.002 113.394C167.086 112.554 168.366 112.006 169.721 111.801C171.076 111.596 172.461 111.741 173.744 112.222C175.027 112.703 176.166 113.504 177.053 114.55C177.939 115.595 178.543 116.849 178.808 118.194Z" fill="#D58745"/>
<path d="M170.639 122.146C170.771 122.605 170.639 123.048 170.328 123.134C170.016 123.22 169.674 122.908 169.55 122.442C169.425 121.975 169.55 121.539 169.869 121.461C170.187 121.384 170.514 121.679 170.639 122.146Z" fill="#263238"/>
<path d="M165.426 123.57C165.55 124.029 165.426 124.472 165.107 124.558C164.788 124.643 164.453 124.332 164.329 123.873C164.204 123.414 164.329 122.963 164.648 122.885C164.967 122.807 165.294 123.111 165.426 123.57Z" fill="#263238"/>
<path d="M167.146 123.344C166.982 124.905 166.605 126.437 166.025 127.895C166.404 128.039 166.81 128.096 167.213 128.064C167.617 128.032 168.008 127.91 168.359 127.709L167.146 123.344Z" fill="#D58745"/>
<path d="M171.79 120.006C171.833 119.988 171.871 119.958 171.899 119.921C171.923 119.893 171.941 119.86 171.952 119.825C171.963 119.79 171.966 119.753 171.962 119.716C171.958 119.679 171.946 119.644 171.927 119.612C171.908 119.581 171.883 119.553 171.852 119.532C171.505 119.249 171.094 119.055 170.655 118.966C170.216 118.876 169.762 118.894 169.332 119.018C169.263 119.045 169.207 119.097 169.175 119.163C169.143 119.23 169.138 119.306 169.161 119.376C169.188 119.444 169.24 119.499 169.307 119.531C169.373 119.562 169.448 119.568 169.518 119.547C169.861 119.456 170.22 119.448 170.566 119.522C170.912 119.596 171.236 119.752 171.51 119.975C171.55 120.005 171.597 120.023 171.646 120.029C171.695 120.034 171.745 120.027 171.79 120.006Z" fill="#263238"/>
<path d="M162.68 122.395C162.722 122.375 162.76 122.346 162.789 122.31C162.819 122.273 162.84 122.231 162.851 122.185C162.906 121.836 163.042 121.504 163.249 121.218C163.456 120.931 163.727 120.698 164.041 120.536C164.103 120.502 164.15 120.448 164.173 120.382C164.196 120.316 164.194 120.244 164.166 120.179C164.139 120.115 164.089 120.063 164.025 120.034C163.962 120.005 163.89 120.001 163.823 120.022C163.417 120.215 163.063 120.503 162.792 120.862C162.521 121.221 162.341 121.64 162.267 122.084C162.261 122.12 162.261 122.157 162.269 122.193C162.277 122.229 162.291 122.264 162.312 122.294C162.333 122.324 162.36 122.35 162.391 122.37C162.422 122.39 162.457 122.404 162.493 122.411C162.555 122.423 162.62 122.417 162.68 122.395Z" fill="#263238"/>
<path d="M168.935 129.218C169.549 129.569 170.136 129.964 170.693 130.401L170.965 130.144C172.194 128.992 172.381 128.051 172.218 127.359C172.136 127.019 171.97 126.706 171.735 126.448C171.609 126.297 171.462 126.163 171.3 126.052C170.856 127.103 170.193 128.047 169.355 128.821C169.106 129.07 168.935 129.218 168.935 129.218Z" fill="#263238"/>
<path d="M169.355 128.821L169.877 129.156C171.036 128.059 171.705 127.141 171.736 126.448C171.61 126.297 171.463 126.163 171.3 126.052C170.857 127.103 170.193 128.047 169.355 128.821Z" fill="white"/>
<path d="M170.965 130.144C172.195 128.992 172.381 128.051 172.218 127.359C171.759 127.809 171.383 128.335 171.105 128.915C170.932 129.3 170.884 129.729 170.965 130.144Z" fill="#A24E3F"/>
<path d="M175.05 114.615C172.506 116.015 173.338 118.878 178.364 123.679C180.823 121.026 181.71 115.517 180.076 113.969C178.442 112.421 177.291 113.401 175.05 114.615Z" fill="#263238"/>
<path d="M179.718 113.627C179.718 113.627 180.348 111.378 176.365 109.021C172.381 106.664 165.683 108.165 161.233 111.067C156.783 113.969 161.824 118.132 163.909 118.326L163.357 117.548C165.591 117.767 167.847 117.502 169.97 116.77L168.663 116.264C168.663 116.264 177.018 115.144 179.718 113.627Z" fill="#263238"/>
<path d="M182.542 122.255C182.508 123.725 181.896 125.123 180.838 126.145C179.414 127.499 177.788 126.448 177.415 124.589C177.08 122.947 177.415 120.271 179.212 119.602C179.614 119.461 180.044 119.424 180.464 119.495C180.883 119.566 181.278 119.742 181.611 120.007C181.944 120.273 182.204 120.618 182.367 121.011C182.529 121.404 182.59 121.832 182.542 122.255Z" fill="#D58745"/>
<path d="M167.029 159.786C167.004 159.782 166.98 159.773 166.959 159.76C166.938 159.747 166.919 159.73 166.905 159.71C166.89 159.689 166.88 159.666 166.875 159.642C166.869 159.618 166.869 159.592 166.873 159.568C168.344 150.006 172.887 144.56 172.934 144.506C172.968 144.473 173.014 144.454 173.062 144.453C173.11 144.451 173.156 144.467 173.193 144.498C173.229 144.529 173.253 144.572 173.26 144.619C173.267 144.667 173.256 144.715 173.229 144.755C173.183 144.809 168.709 150.201 167.254 159.622C167.251 159.648 167.242 159.673 167.228 159.695C167.215 159.717 167.197 159.736 167.176 159.752C167.155 159.767 167.131 159.778 167.106 159.783C167.08 159.789 167.054 159.79 167.029 159.786Z" fill="white"/>
<path d="M179.275 159.062C179.233 159.061 179.193 159.047 179.16 159.022C179.126 158.997 179.101 158.962 179.088 158.922C176.941 152.239 179.75 144.49 179.773 144.412C179.791 144.364 179.827 144.324 179.873 144.302C179.92 144.281 179.974 144.278 180.022 144.296C180.07 144.313 180.11 144.349 180.132 144.396C180.154 144.443 180.156 144.496 180.139 144.545C180.139 144.622 177.353 152.247 179.462 158.805C179.477 158.855 179.472 158.908 179.449 158.955C179.426 159.001 179.386 159.037 179.337 159.054L179.275 159.062Z" fill="white"/>
<path d="M167.208 159.49C167.208 159.49 166.585 159.389 166.477 160.392L167.387 160.509C167.387 160.509 167.675 159.716 167.208 159.49Z" fill="white"/>
<path d="M179.298 158.502C179.298 158.502 178.714 158.728 179.135 159.653L179.975 159.28C179.975 159.28 179.811 158.447 179.298 158.502Z" fill="white"/>
<path d="M153.624 149.228C152.422 149.447 151.239 149.756 150.084 150.154C149.788 150.356 149.142 154.083 149.236 154.822C149.29 155.203 150.932 158.525 150.932 158.525C151.601 158.891 154.269 157.28 154.269 157.28L153.624 149.228Z" fill="#D58745"/>
<path opacity="0.2" d="M193.465 166.889C190.299 167.332 186.969 165.084 186.969 165.084C188.525 160.416 191.077 157.662 193.411 156.604C193.286 160.268 193.341 163.707 193.465 166.889Z" fill="black"/>
<path d="M165.558 151.282L159.661 148.816L161.217 156.635C161.217 156.635 166.827 157.88 167.223 154.931L165.558 151.282Z" fill="#D58745"/>
<path d="M154.27 151.344L155.849 157.739L161.194 156.635L159.661 148.816L154.27 151.344Z" fill="#D58745"/>
<path d="M165.247 151.15C167.013 151.617 174.785 155.538 174.785 155.538L172.125 160.268L165.247 155.553V151.15Z" fill="#D58745"/>
<path d="M168.476 151.624C168.476 151.624 182.48 158.626 183.989 159.078C185.498 159.529 189.84 149.664 190.89 146.832C191.94 144 193.177 139.052 195.558 138.764C195.558 138.764 202.288 137.55 198.95 148.318C195.612 159.085 191.17 167.651 185.141 167.83C179.111 168.009 166.196 157.607 166.196 157.607L168.476 151.624Z" fill="#263238"/>
<path opacity="0.2" d="M168.476 151.624C168.476 151.624 182.48 158.626 183.989 159.078C185.498 159.529 189.84 149.664 190.89 146.832C191.94 144 193.177 139.052 195.558 138.764C195.558 138.764 202.288 137.55 198.95 148.318C195.612 159.085 191.17 167.651 185.141 167.83C179.111 168.009 166.196 157.607 166.196 157.607L168.476 151.624Z" fill="white"/>
</svg>
