<svg width="15" height="14" viewBox="0 0 15 14" fill="none" xmlns="http://www.w3.org/2000/svg">
<path d="M7.50002 11.4677L4.2146 13.4469C4.06946 13.5392 3.91772 13.5788 3.75939 13.5656C3.60106 13.5524 3.46252 13.4997 3.34377 13.4073C3.22502 13.3149 3.13266 13.1993 3.06668 13.0605C3.00071 12.9217 2.98752 12.7668 3.0271 12.5958L3.89793 8.85521L0.988558 6.34166C0.856614 6.22291 0.77428 6.08754 0.741558 5.93554C0.708836 5.78354 0.7186 5.63523 0.77085 5.49062C0.823627 5.34548 0.902794 5.22673 1.00835 5.13437C1.11391 5.04201 1.25904 4.98264 1.44377 4.95625L5.28335 4.61979L6.76772 1.09687C6.8337 0.938539 6.93609 0.819789 7.07489 0.740622C7.2137 0.661455 7.35541 0.621872 7.50002 0.621872C7.64516 0.621872 7.78686 0.661455 7.92514 0.740622C8.06342 0.819789 8.16581 0.938539 8.23231 1.09687L9.71668 4.61979L13.5563 4.95625C13.741 4.98264 13.8861 5.04201 13.9917 5.13437C14.0972 5.22673 14.1764 5.34548 14.2292 5.49062C14.282 5.63576 14.292 5.78433 14.2593 5.93633C14.2265 6.08833 14.1439 6.22344 14.0115 6.34166L11.1021 8.85521L11.9729 12.5958C12.0125 12.7674 11.9993 12.9225 11.9334 13.0613C11.8674 13.2001 11.775 13.3155 11.6563 13.4073C11.5375 13.4997 11.399 13.5524 11.2406 13.5656C11.0823 13.5788 10.9306 13.5392 10.7854 13.4469L7.50002 11.4677Z" fill="#FF7A00"/>
</svg>
