<svg width="285" height="242" viewBox="0 0 285 242" fill="none" xmlns="http://www.w3.org/2000/svg">
<path d="M135.639 232.744C136.712 236.204 135.711 239.977 133.573 240.64C131.436 241.303 129.398 240.37 128.325 236.91C127.253 233.45 128.091 231.674 130.228 231.012C132.366 230.349 134.567 229.284 135.639 232.744Z" fill="#34607B"/>
<path d="M242.245 208.525C237.306 213.004 230.233 214.268 227.466 211.217C224.699 208.165 224.671 204.04 229.609 199.562C234.548 195.083 238.161 195.101 240.928 198.152C243.695 201.203 247.183 204.047 242.245 208.525Z" fill="#34607B"/>
<path d="M60.6611 230.119C53.8137 236.328 41.9263 235.788 35.8446 229.082C29.7629 222.375 28.0482 214.807 34.8955 208.598C41.7429 202.388 48.0825 203.879 54.1642 210.586C60.2459 217.292 67.5084 223.91 60.6611 230.119Z" fill="#34607B"/>
<path d="M61.2493 148.55C62.3216 152.01 61.321 155.784 59.1833 156.446C57.0455 157.109 55.0074 156.176 53.9351 152.716C52.8628 149.256 53.7005 147.481 55.8383 146.818C57.976 146.155 60.177 145.09 61.2493 148.55Z" fill="#34607B"/>
<path d="M249.346 90.7079C248.599 81.2669 256.534 71.9615 265.838 71.225C275.142 70.4886 282.396 73.8339 283.143 83.2749C283.89 92.7159 278.678 96.9259 269.373 97.6624C260.069 98.3989 250.093 100.149 249.346 90.7079Z" fill="#34607B"/>
<path d="M14.5381 72.2283C12.6535 74.2345 8.25256 71.8106 5.97124 69.5293C3.68991 67.248 0.803044 62.7555 4.1274 59.4311C7.45176 56.1067 11.9016 60.7074 14.1829 62.9888C16.4642 65.2701 16.4227 70.222 14.5381 72.2283Z" fill="#34607B" fill-opacity="0.5"/>
<path d="M106.744 32.4439C101.806 36.9222 94.7322 38.1865 91.9652 35.1353C89.1982 32.084 89.1702 27.9587 94.1086 23.4804C99.047 19.0021 102.66 19.0194 105.427 22.0707C108.194 25.1219 111.683 27.9656 106.744 32.4439Z" fill="#34607B"/>
<path d="M194.241 2.99587C195.132 6.31807 192.912 10.1651 189.638 11.0424C186.364 11.9197 183.553 11.2039 182.663 7.8817C181.772 4.5595 183.356 2.71185 186.63 1.83456C189.904 0.957272 193.351 -0.326337 194.241 2.99587Z" fill="#0091D8" fill-opacity="0.1"/>
<path fill-rule="evenodd" clip-rule="evenodd" d="M97 124.5C97 111.372 102.215 98.7813 111.498 89.4982C120.781 80.2152 133.372 75 146.5 75C159.628 75 172.219 80.2152 181.502 89.4982C190.785 98.7813 196 111.372 196 124.5C196 137.628 190.785 150.219 181.502 159.502C172.219 168.785 159.628 174 146.5 174C133.372 174 120.781 168.785 111.498 159.502C102.215 150.219 97 137.628 97 124.5V124.5ZM143.675 145.686L172.174 110.059L167.026 105.941L142.725 136.307L125.512 121.966L121.288 127.034L143.675 145.693V145.686Z" fill="#34607B"/>
</svg>
