<svg width="14" height="20" viewBox="0 0 14 20" fill="none" xmlns="http://www.w3.org/2000/svg">
<path fill-rule="evenodd" clip-rule="evenodd" d="M3 0C2.44287 0 1.89674 0.155144 1.42281 0.448048C0.94888 0.740951 0.565879 1.16004 0.31672 1.65836C0.0675611 2.15668 -0.0379104 2.71453 0.0121235 3.26942C0.0621574 3.8243 0.26572 4.35429 0.600001 4.8L3.15 8.2C3.53947 8.71929 3.75 9.35089 3.75 10C3.75 10.6491 3.53947 11.2807 3.15 11.8L0.600001 15.2C0.26572 15.6457 0.0621574 16.1757 0.0121235 16.7306C-0.0379104 17.2855 0.0675611 17.8433 0.31672 18.3416C0.565879 18.84 0.94888 19.259 1.42281 19.552C1.89674 19.8449 2.44287 20 3 20H11C11.5571 20 12.1033 19.8449 12.5772 19.552C13.0511 19.259 13.4341 18.84 13.6833 18.3416C13.9324 17.8433 14.0379 17.2855 13.9879 16.7306C13.9378 16.1757 13.7343 15.6457 13.4 15.2L10.85 11.8C10.4605 11.2807 10.25 10.6491 10.25 10C10.25 9.35089 10.4605 8.71929 10.85 8.2L13.4 4.8C13.7343 4.35429 13.9378 3.8243 13.9879 3.26942C14.0379 2.71453 13.9324 2.15668 13.6833 1.65836C13.4341 1.16004 13.0511 0.740951 12.5772 0.448048C12.1033 0.155144 11.5571 0 11 0L3 0ZM7.781 12.976C7.68732 12.8588 7.56848 12.7643 7.43328 12.6993C7.29809 12.6343 7.15001 12.6005 7 12.6005C6.85 12.6005 6.70191 12.6343 6.56672 12.6993C6.43152 12.7643 6.31268 12.8588 6.219 12.976L4.3 15.376C4.18253 15.5231 4.10897 15.7004 4.08778 15.8874C4.06659 16.0745 4.09863 16.2637 4.18022 16.4334C4.26181 16.6031 4.38963 16.7462 4.54899 16.8465C4.70834 16.9467 4.89275 16.9999 5.081 17H8.92C9.10843 17.0001 9.29305 16.9469 9.45258 16.8466C9.61211 16.7463 9.74006 16.603 9.82168 16.4332C9.90331 16.2633 9.93529 16.0739 9.91394 15.8867C9.89258 15.6995 9.81877 15.5221 9.701 15.375L7.781 12.976Z" fill="#28303F"/>
</svg>
