<svg width="20" height="20" viewBox="0 0 20 20" fill="none" xmlns="http://www.w3.org/2000/svg">
<path fill-rule="evenodd" clip-rule="evenodd" d="M20 10C20 11.9778 19.4135 13.9112 18.3147 15.5557C17.2159 17.2002 15.6541 18.4819 13.8268 19.2388C11.9996 19.9957 9.98891 20.1937 8.0491 19.8079C6.10929 19.422 4.32746 18.4696 2.92894 17.0711C1.53041 15.6726 0.578004 13.8907 0.192152 11.9509C-0.193701 10.0111 0.00433284 8.00046 0.761209 6.17319C1.51809 4.34593 2.79981 2.78415 4.4443 1.68533C6.08879 0.586519 8.02219 2.89416e-05 10 2.89416e-05C11.3141 -0.00313632 12.6159 0.253361 13.8306 0.754787C15.0453 1.25621 16.1489 1.99269 17.0781 2.9219C18.0073 3.85112 18.7438 4.95477 19.2452 6.16945C19.7467 7.38414 20.0032 8.68592 20 10ZM13 7.00003C13 6.40668 12.8241 5.82667 12.4944 5.33332C12.1648 4.83997 11.6962 4.45545 11.1481 4.22839C10.5999 4.00133 9.99668 3.94192 9.41473 4.05767C8.83279 4.17343 8.29824 4.45915 7.87868 4.87871C7.45913 5.29827 7.1734 5.83282 7.05765 6.41476C6.94189 6.9967 7.0013 7.5999 7.22837 8.14808C7.45543 8.69626 7.83995 9.16479 8.33329 9.49444C8.82664 9.82408 9.40666 10 10 10C10.7957 10 11.5587 9.68396 12.1213 9.12135C12.6839 8.55874 13 7.79568 13 7.00003ZM10 12C10.7162 12.0087 11.42 12.1891 12.0521 12.5259C12.6842 12.8628 13.2264 13.3463 13.633 13.936C13.7752 14.1111 13.8768 14.3155 13.9306 14.5346C13.9843 14.7536 13.9888 14.9819 13.9438 15.2029C13.8987 15.4239 13.8052 15.6321 13.6701 15.8127C13.5349 15.9932 13.3614 16.1416 13.162 16.247C12.1815 16.7422 11.0984 17.0002 10 17.0002C8.90157 17.0002 7.81849 16.7422 6.838 16.247C6.63863 16.1416 6.46512 15.9932 6.32994 15.8127C6.19477 15.6321 6.1013 15.4239 6.05626 15.2029C6.01121 14.9819 6.01572 14.7536 6.06945 14.5346C6.12319 14.3155 6.22481 14.1111 6.367 13.936C6.77364 13.3463 7.31577 12.8628 7.94791 12.5259C8.58005 12.1891 9.28376 12.0087 10 12Z" fill="#28303F"/>
</svg>
