<svg width="22" height="22" viewBox="0 0 22 22" fill="none" xmlns="http://www.w3.org/2000/svg">
<path d="M11.0002 21.25C8.5281 21.25 6.14053 20.3577 4.27728 18.7375C2.16203 16.898 0.898044 14.2829 0.762343 11.5H1.26285C1.3785 13.7763 2.28182 15.9309 3.83583 17.6134L4.30703 18.1235L4.64138 17.5148C5.91693 15.1926 8.35349 13.75 11.0002 13.75C13.6469 13.75 16.0834 15.1926 17.3589 17.5148L17.6933 18.1235L18.1645 17.6134C19.7185 15.9309 20.6218 13.7763 20.7375 11.5H21.238C21.1104 14.1169 19.9851 16.5855 18.0924 18.4002L17.9363 18.2207L17.1817 18.8769L17.3377 19.0563C15.5363 20.4743 13.3049 21.25 11.0002 21.25ZM11.0002 14.25C9.69841 14.25 8.43451 14.6215 7.34514 15.3243C6.28431 16.0087 5.43819 16.972 4.89824 18.1101L4.72566 18.4739L5.04428 18.7201C6.76301 20.0481 8.82253 20.75 11.0002 20.75C13.1778 20.75 15.2373 20.0481 16.956 18.7201L17.2747 18.4739L17.1021 18.1101C16.5621 16.972 15.716 16.0087 14.6552 15.3243C13.5658 14.6215 12.3019 14.25 11.0002 14.25ZM21.2381 10.5H20.7375C20.4848 5.52086 16.4793 1.51538 11.5002 1.26264V0.762024C16.755 1.0157 20.9845 5.24515 21.2381 10.5ZM1.26283 10.5H0.762207C1.01588 5.24515 5.24534 1.0157 10.5002 0.762024V1.26264C5.52105 1.51538 1.51556 5.52086 1.26283 10.5Z" fill="#28303F"/>
<path d="M11 21.75C8.30286 21.75 5.83607 20.7557 3.94902 19.1148L4.44116 18.5489L5.14367 18.8115C5.20569 18.6456 5.27447 18.4833 5.34982 18.3244C6.9128 19.5321 8.87176 20.25 11 20.25V21.75ZM11 21.75V20.25C13.1282 20.25 15.0872 19.5321 16.6502 18.3244C16.7255 18.4833 16.7943 18.6456 16.8563 18.8115L17.5588 18.5488L18.051 19.1148C16.1639 20.7557 13.6971 21.75 11 21.75ZM18.051 19.1148L17.5588 18.5488L18.2613 18.2862C18.1305 17.9362 17.9749 17.5981 17.797 17.2741C19.3205 15.6248 20.25 13.4213 20.25 11H21.75C21.75 14.2395 20.3161 17.145 18.051 19.1148ZM18.051 19.1148L17.5588 18.5488L17.5588 18.5488L18.051 19.1148ZM3.94902 19.1148C1.68387 17.145 0.25 14.2395 0.25 11H1.75C1.75 13.4213 2.67951 15.6247 4.20297 17.2741C4.02504 17.5981 3.86951 17.9362 3.73866 18.2862L4.44116 18.5489L3.94902 19.1148ZM4.44116 18.5489L4.93331 17.9829L4.44116 18.5489ZM17.5588 18.5488L17.5588 18.5488L17.5588 18.5488ZM17.5588 18.5488L17.0667 17.9829C16.9313 18.1007 16.7923 18.2146 16.6502 18.3244C15.6472 16.2104 13.4933 14.75 11 14.75V13.25C13.9307 13.25 16.48 14.8763 17.797 17.2741C17.5668 17.5234 17.3229 17.7601 17.0667 17.9829L17.5588 18.5488ZM5.34982 18.3244C5.20766 18.2146 5.06875 18.1007 4.93331 17.9829C4.67711 17.7601 4.43321 17.5234 4.20297 17.2741C5.52004 14.8763 8.06931 13.25 11 13.25V14.75C8.50671 14.75 6.35277 16.2104 5.34982 18.3244ZM21.75 11H20.25C20.25 5.89137 16.1086 1.75 11 1.75V0.25C16.9371 0.25 21.75 5.06294 21.75 11ZM1.75 11H0.25C0.25 5.06294 5.06294 0.25 11 0.25V1.75C5.89137 1.75 1.75 5.89137 1.75 11Z" fill="#28303F"/>
<path d="M11 4.25V5.75C9.75736 5.75 8.75 6.75736 8.75 8H7.25C7.25 5.92893 8.92893 4.25 11 4.25ZM11 4.25C13.0711 4.25 14.75 5.92893 14.75 8H13.25C13.25 6.75736 12.2426 5.75 11 5.75V4.25ZM7.25 8H8.75C8.75 9.24264 9.75736 10.25 11 10.25V11.75C8.92893 11.75 7.25 10.0711 7.25 8ZM13.25 8H14.75C14.75 10.0711 13.0711 11.75 11 11.75V10.25C12.2426 10.25 13.25 9.24264 13.25 8Z" fill="#28303F"/>
</svg>
