<svg xmlns="http://www.w3.org/2000/svg" width="24" height="24" fill="none" viewBox="0 0 24 24">
  <path fill="#34607B" d="M11.525 21.74c-1.456 0-2.691-.507-3.705-1.52-1.013-1.013-1.52-2.248-1.52-3.705V6.54c0-1.045.372-1.94 1.117-2.684C8.16 3.112 9.055 2.74 10.1 2.74s1.94.372 2.684 1.116C13.528 4.6 13.9 5.495 13.9 6.54v9.025c0 .665-.23 1.227-.689 1.686-.459.46-1.02.689-1.686.689-.665 0-1.227-.23-1.686-.689a2.293 2.293 0 0 1-.689-1.686V6.54h1.425v9.025c0 .27.091.495.274.677a.916.916 0 0 0 .676.273.92.92 0 0 0 .678-.274.916.916 0 0 0 .272-.676V6.54c0-.665-.23-1.227-.688-1.686a2.293 2.293 0 0 0-1.687-.689c-.665 0-1.227.23-1.686.689a2.293 2.293 0 0 0-.689 1.686v9.975c0 1.045.372 1.94 1.117 2.684.744.744 1.638 1.116 2.683 1.116s1.94-.372 2.684-1.116c.744-.744 1.116-1.639 1.116-2.684V6.54h1.425v9.975c0 1.457-.506 2.692-1.52 3.705-1.013 1.013-2.248 1.52-3.705 1.52Z"/>
</svg>
