<svg width="57" height="57" viewBox="0 0 57 57" fill="none" xmlns="http://www.w3.org/2000/svg">
<g filter="url(#filter0_d_48_866)">
<circle cx="28.5" cy="24.5" r="13.5" fill="#34607B"/>
</g>
<path d="M33.7498 26.0833C33.6276 25.9611 33.5636 25.8056 33.5578 25.6167C33.5521 25.4278 33.6105 25.2556 33.7332 25.1C34.0776 24.6778 34.347 24.2027 34.5412 23.6747C34.7354 23.1467 34.8327 22.5884 34.8332 22C34.8332 21.4222 34.7358 20.8722 34.5412 20.35C34.3465 19.8278 34.0772 19.3556 33.7332 18.9333C33.611 18.7778 33.5498 18.6056 33.5498 18.4167C33.5498 18.2278 33.6165 18.0667 33.7498 17.9333C33.9054 17.7778 34.0916 17.7 34.3085 17.7C34.5254 17.7 34.7003 17.7778 34.8332 17.9333C35.2998 18.5 35.6665 19.1278 35.9332 19.8167C36.1998 20.5056 36.3332 21.2333 36.3332 22C36.3332 22.7667 36.1998 23.4944 35.9332 24.1833C35.6665 24.8722 35.2998 25.5 34.8332 26.0667C34.6998 26.2222 34.525 26.3029 34.3085 26.3087C34.0921 26.3144 33.9058 26.2393 33.7498 26.0833ZM31.5998 23.9333C31.4776 23.8111 31.4081 23.6527 31.3912 23.458C31.3743 23.2633 31.4216 23.0718 31.5332 22.8833C31.611 22.75 31.6694 22.6084 31.7085 22.4587C31.7476 22.3089 31.7669 22.156 31.7665 22C31.7665 21.8444 31.7472 21.6916 31.7085 21.5413C31.6698 21.3911 31.6114 21.2496 31.5332 21.1167C31.4221 20.9278 31.3747 20.7362 31.3912 20.542C31.4076 20.3478 31.4772 20.1893 31.5998 20.0667C31.7554 19.9111 31.9443 19.8362 32.1665 19.842C32.3887 19.8478 32.561 19.9338 32.6832 20.1C32.8721 20.3778 33.0221 20.6751 33.1332 20.992C33.2443 21.3089 33.2998 21.6449 33.2998 22C33.2998 22.3556 33.2443 22.6918 33.1332 23.0087C33.0221 23.3256 32.8721 23.6227 32.6832 23.9C32.561 24.0667 32.3887 24.1529 32.1665 24.1587C31.9443 24.1644 31.7554 24.0893 31.5998 23.9333ZM26.9998 24.6667C26.2665 24.6667 25.6387 24.4056 25.1165 23.8833C24.5943 23.3611 24.3332 22.7333 24.3332 22C24.3332 21.2667 24.5943 20.6389 25.1165 20.1167C25.6387 19.5944 26.2665 19.3333 26.9998 19.3333C27.7332 19.3333 28.361 19.5944 28.8832 20.1167C29.4054 20.6389 29.6665 21.2667 29.6665 22C29.6665 22.7333 29.4054 23.3611 28.8832 23.8833C28.361 24.4056 27.7332 24.6667 26.9998 24.6667ZM22.3332 30C22.1443 30 21.9858 29.936 21.8578 29.808C21.7298 29.68 21.6661 29.5218 21.6665 29.3333V28.1333C21.6665 27.7667 21.761 27.4222 21.9498 27.1C22.1387 26.7778 22.3998 26.5333 22.7332 26.3667C23.2998 26.0778 23.9387 25.8333 24.6498 25.6333C25.361 25.4333 26.1443 25.3333 26.9998 25.3333C27.8554 25.3333 28.6387 25.4333 29.3498 25.6333C30.061 25.8333 30.6998 26.0778 31.2665 26.3667C31.5998 26.5333 31.861 26.7778 32.0498 27.1C32.2387 27.4222 32.3332 27.7667 32.3332 28.1333V29.3333C32.3332 29.5222 32.2692 29.6807 32.1412 29.8087C32.0132 29.9367 31.8549 30.0004 31.6665 30H22.3332ZM22.9998 28.6667H30.9998V28.1333C30.9998 28.0111 30.9692 27.9 30.9078 27.8C30.8465 27.7 30.7661 27.6222 30.6665 27.5667C30.2665 27.3667 29.7525 27.1667 29.1245 26.9667C28.4965 26.7667 27.7883 26.6667 26.9998 26.6667C26.211 26.6667 25.5025 26.7667 24.8745 26.9667C24.2465 27.1667 23.7327 27.3667 23.3332 27.5667C23.2332 27.6222 23.1525 27.7 23.0912 27.8C23.0298 27.9 22.9994 28.0111 22.9998 28.1333V28.6667ZM26.9998 23.3333C27.3665 23.3333 27.6805 23.2027 27.9418 22.9413C28.2032 22.68 28.3336 22.3662 28.3332 22C28.3332 21.6333 28.2025 21.3193 27.9412 21.058C27.6798 20.7967 27.3661 20.6662 26.9998 20.6667C26.6332 20.6667 26.3192 20.7973 26.0578 21.0587C25.7965 21.32 25.6661 21.6338 25.6665 22C25.6665 22.3667 25.7972 22.6807 26.0585 22.942C26.3198 23.2033 26.6336 23.3338 26.9998 23.3333Z" fill="white"/>
<defs>
<filter id="filter0_d_48_866" x="0" y="0" width="57" height="57" filterUnits="userSpaceOnUse" color-interpolation-filters="sRGB">
<feFlood flood-opacity="0" result="BackgroundImageFix"/>
<feColorMatrix in="SourceAlpha" type="matrix" values="0 0 0 0 0 0 0 0 0 0 0 0 0 0 0 0 0 0 127 0" result="hardAlpha"/>
<feOffset dy="4"/>
<feGaussianBlur stdDeviation="7.5"/>
<feColorMatrix type="matrix" values="0 0 0 0 0 0 0 0 0 0 0 0 0 0 0 0 0 0 0.0824137 0"/>
<feBlend mode="normal" in2="BackgroundImageFix" result="effect1_dropShadow_48_866"/>
<feBlend mode="normal" in="SourceGraphic" in2="effect1_dropShadow_48_866" result="shape"/>
</filter>
</defs>
</svg>
