<svg width="80" height="77" viewBox="0 0 80 77" fill="none" xmlns="http://www.w3.org/2000/svg">
<path d="M66.3125 8.18749C72.4506 12.7252 76.6598 18.7276 79 26C79.9779 35.5839 79.8043 43.9028 74 52C71.6875 54.75 71.6875 54.75 69 57C68.4367 57.4911 67.8734 57.9823 67.293 58.4883C57.6767 66.381 48.0787 67.5492 35.9683 67.3215C28.7937 67.3589 25.3026 69.319 20 74C15.6419 76.3969 11.8707 76.1651 7 76C7.54612 72.1772 9.23819 70.5892 12 68C13.6234 64.7531 13.4717 62.5965 13 59C11.6191 57.2671 11.6191 57.2671 9.8125 55.6875C3.75021 50.0934 0.858082 44.4372 0.408691 36.0947C0.260874 26.9043 2.38174 20.3028 8.3125 13.25C9.19937 12.5075 10.0862 11.765 11 11C11.845 10.2633 11.845 10.2633 12.707 9.5117C28.1103 -3.13087 50.0412 -2.14732 66.3125 8.18749ZM17 31C16.6667 34 16.6667 34 17 37C18.885 39.3156 18.885 39.3156 22 39.25C25.115 39.3156 25.115 39.3156 27 37C27.3333 34 27.3333 34 27 31C25.115 28.6844 25.115 28.6844 22 28.75C18.885 28.6844 18.885 28.6844 17 31ZM35 31C34.6667 34 34.6667 34 35 37C36.885 39.3156 36.885 39.3156 40 39.25C43.115 39.3156 43.115 39.3156 45 37C45.3333 34 45.3333 34 45 31C43.115 28.6844 43.115 28.6844 40 28.75C36.885 28.6844 36.885 28.6844 35 31ZM53 31C52.6667 34 52.6667 34 53 37C54.885 39.3156 54.885 39.3156 58 39.25C61.115 39.3156 61.115 39.3156 63 37C63.3333 34 63.3333 34 63 31C61.115 28.6844 61.115 28.6844 58 28.75C54.885 28.6844 54.885 28.6844 53 31Z" fill="#1D2B49"/>
</svg>
