<svg version="1.2" xmlns="http://www.w3.org/2000/svg" viewBox="0 0 77 76" width="35" height="35">
	<title>file</title>
	<style>
		.s0 { fill: #1e2c4a } 
	</style>
	<path id="Path 0" fill-rule="evenodd" class="s0" d="m38.5 2c5.6 0 9.8 0.6 14 2 3.3 1.1 8.3 3.6 11 5.4 2.8 1.9 6.4 5.4 8.2 7.8 1.7 2.4 3.9 6.3 4.7 8.8 0.9 2.5 1.6 6.3 1.6 8.5 0 2.2-0.6 6-1.3 8.5-0.7 2.5-2.8 6.7-4.7 9.3-1.9 2.7-5.7 6.4-8.5 8.2-2.7 1.9-7 4.2-9.5 5.1-3.1 1.2-7.9 1.8-15.5 1.9-10.1 0.1-11.3 0.3-14.5 2.7-1.9 1.4-5.2 3.5-7.2 4.7-2.1 1.2-5.4 2.1-7.3 2.1-1.9 0-3.5-0.5-3.5-1 0-0.5 1.5-2.5 3.4-4.3 2.2-2.1 3.6-4.5 4-7 0.5-3.4 0.2-4.1-3.6-8-2.4-2.3-5.4-6.5-6.7-9.2-1.4-2.8-2.7-7-2.9-9.5-0.3-2.5 0.1-6.8 0.7-9.5 0.7-2.8 2.7-7.3 4.6-10 1.8-2.8 5.5-6.6 8.2-8.5 2.6-1.9 7.5-4.5 10.8-5.7 4.2-1.5 8.3-2.2 14-2.3zm-23.5 33c0 1.1 0.9 2.9 2 4 1.1 1.1 2.9 2 4 2 1.1 0 2.9-0.9 4-2 1.1-1.1 2-2.9 2-4 0-1.1-0.9-2.9-2-4-1.1-1.1-2.9-2-4-2-1.1 0-2.9 0.9-4 2-1.1 1.1-2 2.9-2 4zm18 0c0 1.1 0.9 2.9 2 4 1.1 1.1 2.9 2 4 2 1.1 0 2.9-0.9 4-2 1.1-1.1 2-2.9 2-4 0-1.1-0.9-2.9-2-4-1.1-1.1-2.9-2-4-2-1.1 0-2.9 0.9-4 2-1.1 1.1-2 2.9-2 4zm18 0c0 1.1 0.9 2.9 2 4 1.1 1.1 2.9 2 4 2 1.1 0 2.9-0.9 4-2 1.1-1.1 2-2.9 2-4 0-1.1-0.9-2.9-2-4-1.1-1.1-2.9-2-4-2-1.1 0-2.9 0.9-4 2-1.1 1.1-2 2.9-2 4z"/>
</svg>