<svg width="20" height="20" viewBox="0 0 20 20" fill="none" xmlns="http://www.w3.org/2000/svg">
<path fill-rule="evenodd" clip-rule="evenodd" d="M10 20C11.9778 20 13.9112 19.4135 15.5557 18.3147C17.2002 17.2159 18.4819 15.6541 19.2388 13.8268C19.9957 11.9996 20.1937 9.98891 19.8079 8.0491C19.422 6.10929 18.4696 4.32746 17.0711 2.92894C15.6725 1.53041 13.8907 0.578004 11.9509 0.192152C10.0111 -0.193701 8.00043 0.00433284 6.17317 0.761209C4.3459 1.51809 2.78412 2.79981 1.6853 4.4443C0.58649 6.08879 0 8.02219 0 10C0 12.6522 1.05357 15.1957 2.92893 17.0711C4.8043 18.9464 7.34784 20 10 20ZM8.358 7.75C8.64592 7.43718 8.99511 7.18692 9.38386 7.01478C9.77261 6.84265 10.1926 6.75232 10.6178 6.74941C11.0429 6.7465 11.4641 6.83108 11.8552 6.99788C12.2463 7.16468 12.5988 7.41014 12.891 7.719C12.9592 7.79011 13.0407 7.84711 13.1308 7.88672C13.221 7.92634 13.3181 7.9478 13.4166 7.94989C13.5151 7.95198 13.613 7.93465 13.7048 7.8989C13.7965 7.86314 13.8804 7.80966 13.9515 7.7415C14.0226 7.67335 14.0796 7.59185 14.1192 7.50167C14.1588 7.41149 14.1803 7.31439 14.1824 7.21591C14.1845 7.11744 14.1671 7.01951 14.1314 6.92773C14.0956 6.83595 14.0422 6.75212 13.974 6.681C13.4666 6.1485 12.8391 5.74505 12.1441 5.50433C11.449 5.26362 10.7065 5.1926 9.97837 5.29721C9.25029 5.40183 8.55777 5.67904 7.9586 6.10572C7.35943 6.53239 6.87098 7.09617 6.534 7.75H5.77C5.57109 7.75 5.38032 7.82902 5.23967 7.96967C5.09902 8.11033 5.02 8.30109 5.02 8.5C5.02 8.69892 5.09902 8.88968 5.23967 9.03033C5.38032 9.17099 5.57109 9.25 5.77 9.25H6.036C5.95871 9.74702 5.95871 10.253 6.036 10.75H5.77C5.57109 10.75 5.38032 10.829 5.23967 10.9697C5.09902 11.1103 5.02 11.3011 5.02 11.5C5.02 11.6989 5.09902 11.8897 5.23967 12.0303C5.38032 12.171 5.57109 12.25 5.77 12.25H6.534C6.87103 12.904 7.35958 13.4678 7.95888 13.8945C8.55818 14.3212 9.25085 14.5984 9.97908 14.7029C10.7073 14.8074 11.45 14.7363 12.1451 14.4954C12.8402 14.2544 13.4676 13.8508 13.975 13.318C14.1126 13.1744 14.1876 12.982 14.1834 12.7831C14.1792 12.5842 14.0961 12.3952 13.9525 12.2575C13.8089 12.1199 13.6165 12.0449 13.4176 12.0491C13.2187 12.0533 13.0296 12.1364 12.892 12.28C12.5998 12.5889 12.2473 12.8343 11.8562 13.0011C11.4651 13.1679 11.0439 13.2525 10.6188 13.2496C10.1936 13.2467 9.77361 13.1564 9.38486 12.9842C8.99611 12.8121 8.64692 12.5618 8.359 12.249H10.559C10.7579 12.249 10.9487 12.17 11.0893 12.0293C11.23 11.8887 11.309 11.6979 11.309 11.499C11.309 11.3001 11.23 11.1093 11.0893 10.9687C10.9487 10.828 10.7579 10.749 10.559 10.749H7.559C7.44665 10.2553 7.44665 9.74269 7.559 9.249H10.559C10.7579 9.249 10.9487 9.16999 11.0893 9.02934C11.23 8.88868 11.309 8.69792 11.309 8.499C11.309 8.30009 11.23 8.10933 11.0893 7.96867C10.9487 7.82802 10.7579 7.749 10.559 7.749L8.358 7.75Z" fill="#28303F"/>
</svg>
