<svg width="20" height="20" viewBox="0 0 20 20" fill="none" xmlns="http://www.w3.org/2000/svg">
<path fill-rule="evenodd" clip-rule="evenodd" d="M10 20C11.9778 20 13.9112 19.4135 15.5557 18.3147C17.2002 17.2159 18.4819 15.6541 19.2388 13.8268C19.9957 11.9996 20.1937 9.98891 19.8079 8.0491C19.422 6.10929 18.4696 4.32746 17.0711 2.92894C15.6725 1.53041 13.8907 0.578004 11.9509 0.192152C10.0111 -0.193701 8.00043 0.00433284 6.17317 0.761209C4.3459 1.51809 2.78412 2.79981 1.6853 4.4443C0.58649 6.08879 0 8.02219 0 10C0 12.6522 1.05357 15.1957 2.92893 17.0711C4.8043 18.9464 7.34784 20 10 20ZM11.53 6.47L14.53 9.47001C14.5997 9.53966 14.655 9.62236 14.6927 9.71338C14.7304 9.80441 14.7498 9.90197 14.7498 10.0005C14.7498 10.099 14.7304 10.1966 14.6927 10.2876C14.655 10.3787 14.5997 10.4614 14.53 10.531L11.53 13.531C11.3885 13.6676 11.199 13.7431 11.0023 13.7413C10.8057 13.7395 10.6176 13.6605 10.4786 13.5214C10.3396 13.3823 10.2609 13.1941 10.2592 12.9975C10.2576 12.8008 10.3333 12.6114 10.47 12.47L12.19 10.75H6C5.80109 10.75 5.61032 10.671 5.46967 10.5303C5.32902 10.3897 5.25 10.1989 5.25 10C5.25 9.80109 5.32902 9.61033 5.46967 9.46968C5.61032 9.32902 5.80109 9.25 6 9.25H12.189L10.47 7.53C10.3375 7.38783 10.2654 7.19978 10.2688 7.00548C10.2723 6.81118 10.351 6.6258 10.4884 6.48838C10.6258 6.35097 10.8112 6.27226 11.0055 6.26883C11.1998 6.2654 11.3878 6.33752 11.53 6.47Z" fill="#28303F"/>
</svg>
