<svg width="44" height="35" viewBox="0 0 73 73" fill="none" xmlns="http://www.w3.org/2000/svg">
<path d="M39.2871 0.333886C42.2793 2.30264 42.2793 2.30264 45.1621 4.83389C46.1289 5.6692 47.0957 6.50451 48.0918 7.36514C48.8162 8.01482 49.5407 8.66451 50.2871 9.33389C50.6171 7.35389 50.9471 5.37389 51.2871 3.33389C54.2571 3.33389 57.2271 3.33389 60.2871 3.33389C60.2317 4.31228 60.1763 5.29068 60.1191 6.29873C59.8921 14.3972 59.8921 14.3972 63.8027 21.1229C66.7944 23.4215 66.7944 23.4215 69.916 25.3065C72.2871 27.3339 72.2871 27.3339 72.627 30.58C72.5148 31.4888 72.4027 32.3976 72.2871 33.3339C70.3071 33.3339 68.3271 33.3339 66.2871 33.3339C66.2976 34.4443 66.3081 35.5546 66.3188 36.6986C66.355 40.8098 66.378 44.9209 66.397 49.0321C66.407 50.8131 66.4207 52.594 66.438 54.3749C66.4622 56.9316 66.4736 59.488 66.4824 62.0448C66.4927 62.8438 66.5031 63.6428 66.5137 64.4661C66.5141 66.4235 66.4095 68.3803 66.2871 70.3339C63.6791 72.9419 62.5833 72.5868 58.9512 72.5927C57.8366 72.599 56.7221 72.6053 55.5737 72.6118C53.7612 72.6057 53.7612 72.6057 51.9121 72.5995C50.059 72.6024 50.059 72.6024 48.1685 72.6053C44.8812 72.607 41.5941 72.599 38.3069 72.5878C36.2892 72.5839 34.2716 72.5878 32.2539 72.5946C28.3899 72.6069 24.5261 72.6055 20.6621 72.5995C19.4538 72.6036 18.2454 72.6076 17.0005 72.6118C15.8859 72.6055 14.7714 72.5992 13.623 72.5927C12.6387 72.5911 11.6543 72.5895 10.6401 72.5879C8.28711 72.3339 8.28711 72.3339 6.28711 70.3339C6.11186 67.537 6.05568 64.8406 6.0918 62.0448C6.09604 60.8172 6.09604 60.8172 6.10037 59.5648C6.11158 56.946 6.13669 54.3276 6.16211 51.7089C6.17214 49.9355 6.18126 48.162 6.18945 46.3886C6.21153 42.0369 6.24606 37.6854 6.28711 33.3339C4.30711 33.3339 2.32711 33.3339 0.287109 33.3339C-0.0957031 30.6542 -0.0957031 30.6542 0.287109 27.3339C2.31494 25.3061 4.09221 23.8267 6.41211 22.2089C7.69697 21.2602 8.97945 20.3083 10.2598 19.3534C10.9238 18.8631 11.5878 18.3728 12.272 17.8676C15.5826 15.3479 18.7132 12.6278 21.8496 9.89639C23.4992 8.46298 25.149 7.03066 26.811 5.61172C28.1722 4.43336 29.4954 3.21152 30.8145 1.98623C33.9903 -0.135987 35.5325 -0.319093 39.2871 0.333886ZM27.2871 42.3339C27.2871 50.2539 27.2871 58.1739 27.2871 66.3339C33.2271 66.3339 39.1671 66.3339 45.2871 66.3339C45.2871 58.4139 45.2871 50.4939 45.2871 42.3339C39.3471 42.3339 33.4071 42.3339 27.2871 42.3339Z" fill="#1D2C4A"/>
</svg>
