<svg version="1.2" xmlns="http://www.w3.org/2000/svg" viewBox="0 0 90 90" width="35" height="35">
	<title>file</title>
	<style>
		.s0 { fill: #1e2c4a } 
	</style>
	<path id="Path 0" fill-rule="evenodd" class="s0" d="m45 6.1c0.8 0 4.3 2.5 13.8 10.9l0.8-3.8c0.9-3.5 1.1-3.7 8.9-3.7l0.5 15.5 6.1 4.8c4.3 3.4 5.9 5.3 5.7 6.7-0.2 1.4-1.2 2.1-5.8 2.5v17.3c0 13.7-0.3 17.7-1.5 19.4-1.5 2.3-1.6 2.3-28.5 2.3-26.9 0-27 0-28.5-2.2-1.2-1.8-1.5-5.8-1.5-36.8l-2.8-0.3c-2-0.1-2.7-0.7-2.7-2.3 0-1.6 4.7-6 17-16.2 9.3-7.8 17.7-14.1 18.5-14.1zm-9 65.9h18v-24h-18z"/>
</svg>