<svg width="25" height="25" viewBox="0 0 25 25" fill="none" xmlns="http://www.w3.org/2000/svg">
<path d="M2.34375 10.5469H4.29688V15.2344H3.125C2.8142 15.2344 2.51613 15.3578 2.29636 15.5776C2.07659 15.7974 1.95312 16.0954 1.95312 16.4062C1.95312 16.717 2.07659 17.0151 2.29636 17.2349C2.51613 17.4547 2.8142 17.5781 3.125 17.5781H21.875C22.1858 17.5781 22.4839 17.4547 22.7036 17.2349C22.9234 17.0151 23.0469 16.717 23.0469 16.4062C23.0469 16.0954 22.9234 15.7974 22.7036 15.5776C22.4839 15.3578 22.1858 15.2344 21.875 15.2344H20.7031V10.5469H22.6562C22.9109 10.5464 23.1585 10.463 23.3615 10.3093C23.5646 10.1556 23.712 9.93991 23.7815 9.69492C23.851 9.44993 23.8389 9.18897 23.7468 8.95151C23.6548 8.71406 23.4879 8.51305 23.2715 8.3789L13.1152 2.1289C12.9307 2.01374 12.7175 1.95268 12.5 1.95268C12.2825 1.95268 12.0693 2.01374 11.8848 2.1289L1.72852 8.3789C1.51205 8.51305 1.34518 8.71406 1.25315 8.95151C1.16113 9.18897 1.14895 9.44993 1.21848 9.69492C1.288 9.93991 1.43544 10.1556 1.63847 10.3093C1.84151 10.463 2.08909 10.5464 2.34375 10.5469ZM6.64062 10.5469H8.98438V15.2344H6.64062V10.5469ZM13.6719 10.5469V15.2344H11.3281V10.5469H13.6719ZM18.3594 15.2344H16.0156V10.5469H18.3594V15.2344ZM12.5 4.50195L18.5156 8.20312H6.48438L12.5 4.50195ZM24.6094 20.3125C24.6094 20.6233 24.4859 20.9214 24.2661 21.1411C24.0464 21.3609 23.7483 21.4844 23.4375 21.4844H1.5625C1.2517 21.4844 0.953628 21.3609 0.733859 21.1411C0.51409 20.9214 0.390625 20.6233 0.390625 20.3125C0.390625 20.0017 0.51409 19.7036 0.733859 19.4839C0.953628 19.2641 1.2517 19.1406 1.5625 19.1406H23.4375C23.7483 19.1406 24.0464 19.2641 24.2661 19.4839C24.4859 19.7036 24.6094 20.0017 24.6094 20.3125Z" fill="#34607B"/>
</svg>
