<svg width="25" height="24" viewBox="0 0 25 24" fill="none" xmlns="http://www.w3.org/2000/svg">
<path d="M12.875 2C7.361 2 2.875 5.589 2.875 10C2.875 12.908 4.773 15.515 7.875 16.934V22L13.215 17.995C18.572 17.852 22.875 14.32 22.875 10C22.875 5.589 18.389 2 12.875 2ZM12.875 16H12.542L9.875 18V15.583L9.234 15.336C6.545 14.301 4.875 12.256 4.875 10C4.875 6.691 8.464 4 12.875 4C17.286 4 20.875 6.691 20.875 10C20.875 13.309 17.286 16 12.875 16Z" fill="black"/>
<path d="M7.875 7H17.875V9H7.875V7ZM7.875 11H14.875V13H7.875V11Z" fill="black"/>
</svg>
