<svg width="24" height="24" viewBox="0 0 24 24" fill="none" xmlns="http://www.w3.org/2000/svg">
<g clip-path="url(#clip0_24_969)">
<path d="M7.33341 11L6.66675 13.0667H8.00008L7.33341 11Z" fill="#34607B"/>
<path d="M20.2001 2H9.53345V5.33333H12.2001V6.66667H3.53345C2.40011 6.66667 1.53345 7.53333 1.53345 8.66667V16C1.53345 17.1333 2.40011 18 3.53345 18H4.20011V21.4L8.40011 18H12.8668V13.3333H20.2001C21.3334 13.3333 22.2001 12.4667 22.2001 11.3333V4C22.2001 2.86667 21.3334 2 20.2001 2ZM8.73345 15.2667L8.40011 14.2H6.33345L5.93345 15.2667H4.33345L6.53345 9.33333H8.13345L10.3334 15.2667H8.73345ZM18.8668 10V11.3333C18.0001 11.3333 17.0668 11.0667 16.2668 10.6667C15.4668 11.0667 14.5334 11.2667 13.6001 11.3333L13.5334 10C14.0001 10 14.4668 9.93333 14.9334 9.8C14.3334 9.2 13.9334 8.46667 13.7334 7.66667H15.1334C15.3334 8.26667 15.7334 8.73333 16.2001 9.13333C16.9334 8.53333 17.4001 7.66667 17.4668 6.66667H13.4668V5.33333H15.4668V4H16.8001V5.33333H19.0001L19.0668 6C19.1334 7.4 18.6001 8.8 17.6001 9.8C18.0668 9.93333 18.4668 10 18.8668 10Z" fill="#34607B"/>
</g>
<defs>
<clipPath id="clip0_24_969">
<rect width="24" height="24" fill="white"/>
</clipPath>
</defs>
</svg>
