<svg width="64" height="81" viewBox="0 0 64 81" fill="none" xmlns="http://www.w3.org/2000/svg">
<path d="M8.33594 0.741272C9.45049 0.734968 10.565 0.728663 11.7134 0.722168C12.9217 0.726216 14.13 0.730265 15.375 0.734436C17.2281 0.731566 17.2281 0.731566 19.1187 0.728638C22.4059 0.726925 25.693 0.734994 28.9802 0.746155C30.9979 0.750057 33.0155 0.746169 35.0332 0.739319C38.8972 0.727001 42.761 0.728451 46.625 0.734436C47.8333 0.730388 49.0417 0.726339 50.2866 0.722168C51.4012 0.728472 52.5157 0.734777 53.6641 0.741272C55.1406 0.743659 55.1406 0.743659 56.647 0.746094C59 1.00006 59 1.00006 61 3.00006C61.3549 5.36604 61.3549 5.36604 61.4968 8.37335C61.5515 9.49955 61.6063 10.6258 61.6626 11.7861C61.8212 16.3106 61.9582 20.835 62.0451 25.3615C62.1109 28.7852 62.2088 32.2003 62.3923 35.6199C63.6883 60.4108 63.6883 60.4108 55.9228 70.1019C49.3537 76.8814 42.9177 80.3206 33.4414 80.7305C29.7979 80.706 26.1947 80.4583 22.5625 80.1876C20.6819 80.1192 18.801 80.0586 16.9199 80.0059C3.51782 79.5179 3.51782 79.5179 1 77.0001C0.746034 73.9637 0.746034 73.9637 0.741212 70.0118C0.737707 69.2929 0.734202 68.5741 0.730592 67.8335C0.721771 65.4514 0.727624 63.0696 0.734376 60.6876C0.733029 59.0361 0.731089 57.3847 0.728577 55.7332C0.725626 52.2697 0.729925 48.8063 0.739259 45.3428C0.750653 40.8971 0.744094 36.4516 0.732114 32.0059C0.724896 28.5951 0.727182 25.1843 0.732369 21.7734C0.733706 20.1339 0.732057 18.4944 0.72741 16.8549C0.722347 14.5659 0.730052 12.2773 0.741212 9.98834C0.742803 8.68421 0.744394 7.38009 0.746034 6.03644C1.1935 0.686628 3.5978 0.748931 8.33594 0.741272ZM23 14.0001C23 15.3201 23 16.6401 23 18.0001C25.5872 19.2937 27.4811 19.1296 30.375 19.1329C31.976 19.1348 31.976 19.1348 33.6094 19.1368C34.7283 19.1329 35.8472 19.129 37 19.1251C38.1189 19.1289 39.2378 19.1328 40.3906 19.1368C41.458 19.1355 42.5253 19.1342 43.625 19.1329C44.6073 19.1317 45.5895 19.1306 46.6016 19.1295C49.0141 19.159 49.0141 19.159 51 18.0001C51 16.6801 51 15.3601 51 14.0001C48.4128 12.7064 46.5189 12.8706 43.625 12.8672C42.024 12.8653 42.024 12.8653 40.3906 12.8633C39.2717 12.8672 38.1528 12.8711 37 12.8751C35.8811 12.8712 34.7622 12.8673 33.6094 12.8633C32.542 12.8646 31.4747 12.8659 30.375 12.8672C28.9016 12.8689 28.9016 12.8689 27.3984 12.8707C24.9859 12.8411 24.9859 12.8411 23 14.0001ZM11 14.0001C11 15.3201 11 16.6401 11 18.0001C12.32 18.0001 13.64 18.0001 15 18.0001C15 16.6801 15 15.3601 15 14.0001C13.68 14.0001 12.36 14.0001 11 14.0001ZM23 29.0001C23 30.3201 23 31.6401 23 33.0001C25.5872 34.2937 27.4811 34.1296 30.375 34.1329C31.976 34.1348 31.976 34.1348 33.6094 34.1368C34.7283 34.1329 35.8472 34.129 37 34.1251C38.1189 34.1289 39.2378 34.1328 40.3906 34.1368C41.458 34.1355 42.5253 34.1342 43.625 34.1329C44.6073 34.1317 45.5895 34.1306 46.6016 34.1295C49.0141 34.159 49.0141 34.159 51 33.0001C51 31.6801 51 30.3601 51 29.0001C48.4128 27.7064 46.5189 27.8706 43.625 27.8672C42.024 27.8653 42.024 27.8653 40.3906 27.8633C39.2717 27.8672 38.1528 27.8711 37 27.8751C35.8811 27.8712 34.7622 27.8673 33.6094 27.8633C32.542 27.8646 31.4747 27.8659 30.375 27.8672C28.9016 27.8689 28.9016 27.8689 27.3984 27.8707C24.9859 27.8411 24.9859 27.8411 23 29.0001ZM11 29.0001C11 30.3201 11 31.6401 11 33.0001C12.32 33.0001 13.64 33.0001 15 33.0001C15 31.6801 15 30.3601 15 29.0001C13.68 29.0001 12.36 29.0001 11 29.0001ZM23 44.0001C23 45.3201 23 46.6401 23 48.0001C25.5872 49.2937 27.4811 49.1296 30.375 49.1329C31.976 49.1348 31.976 49.1348 33.6094 49.1368C34.7283 49.1329 35.8472 49.129 37 49.1251C38.1189 49.1289 39.2378 49.1328 40.3906 49.1368C41.458 49.1355 42.5253 49.1342 43.625 49.1329C44.6073 49.1317 45.5895 49.1306 46.6016 49.1295C49.0141 49.159 49.0141 49.159 51 48.0001C51 46.6801 51 45.3601 51 44.0001C48.4128 42.7064 46.5189 42.8706 43.625 42.8672C42.024 42.8653 42.024 42.8653 40.3906 42.8633C39.2717 42.8672 38.1528 42.8711 37 42.8751C35.8811 42.8712 34.7622 42.8673 33.6094 42.8633C32.542 42.8646 31.4747 42.8659 30.375 42.8672C28.9016 42.8689 28.9016 42.8689 27.3984 42.8707C24.9859 42.8411 24.9859 42.8411 23 44.0001ZM11 44.0001C11 45.3201 11 46.6401 11 48.0001C12.32 48.0001 13.64 48.0001 15 48.0001C15 46.6801 15 45.3601 15 44.0001C13.68 44.0001 12.36 44.0001 11 44.0001ZM23 59.0001C23 60.3201 23 61.6401 23 63.0001C25.4055 64.2028 26.95 64.1008 29.625 64.0626C30.4423 64.0535 31.2595 64.0445 32.1016 64.0352C32.728 64.0236 33.3545 64.012 34 64.0001C34 62.0201 34 60.0401 34 58.0001C32.5418 57.9731 31.0834 57.9537 29.625 57.9376C28.4068 57.9202 28.4068 57.9202 27.1641 57.9024C24.9506 57.8554 24.9506 57.8554 23 59.0001ZM41.1562 59.1563C39.5351 61.7414 39.7058 63.6644 39.8125 66.6876C39.8396 67.6814 39.8666 68.6753 39.8945 69.6993C39.9293 70.4585 39.9641 71.2178 40 72.0001C44.8943 67.9048 49.7072 63.7365 54 59.0001C54 58.6701 54 58.3401 54 58.0001C52.2299 57.9189 50.4588 57.8608 48.6875 57.8126C47.7014 57.7778 46.7152 57.743 45.6992 57.7071C43.0228 57.7988 43.0228 57.7988 41.1562 59.1563ZM11 59.0001C11 60.3201 11 61.6401 11 63.0001C12.32 63.0001 13.64 63.0001 15 63.0001C15 61.6801 15 60.3601 15 59.0001C13.68 59.0001 12.36 59.0001 11 59.0001Z" fill="#1D2B4A"/>
</svg>
