<svg version="1.2" xmlns="http://www.w3.org/2000/svg" viewBox="0 0 90 90" width="34" height="34">
	<title>file</title>
	<style>
		.s0 { fill: #1e2c4a } 
	</style>
	<path id="Path 0" fill-rule="evenodd" class="s0" d="m45 6c26.9 0 27 0 28.5 2.3 1.3 1.8 1.5 6.8 1.5 57.2l-18.5 18.5h-19.3c-18.8 0-19.2 0-20.7-2.3-1.3-1.8-1.5-7.7-1.6-36.7-0.1-30.6 0.1-34.8 1.6-36.8 1.6-2.2 1.9-2.2 28.5-2.2zm-19.8 16.8c1.7 1.6 1.9 1.6 3.6 0 1.5-1.5 1.5-1.9 0.2-3.3-0.8-0.9-1.8-1.6-2.1-1.5-0.4 0-1.3 0.7-2 1.5-1.2 1.4-1.1 1.9 0.4 3.3zm12-0.3c1 1.3 3.6 1.6 13.7 1.6 10.1 0 12.7-0.3 13.8-1.6 1-1.2 1-1.8 0-3-1.1-1.3-3.7-1.6-13.9-1.5-10.1 0-12.9 0.3-13.8 1.5-0.8 1.1-0.8 1.9 0.2 3zm-12 15.3c1.6 1.6 1.8 1.6 3.5 0 1.5-1.5 1.5-1.9 0.2-3.3-0.8-0.9-1.8-1.6-2.1-1.5-0.4 0-1.3 0.7-2 1.5-1.2 1.4-1.1 1.9 0.4 3.3zm12-0.3c1 1.3 3.6 1.6 13.7 1.6 10.1 0 12.7-0.3 13.8-1.6 1-1.2 1-1.8 0-3-1.1-1.3-3.7-1.6-13.9-1.5-10.1 0-12.9 0.3-13.8 1.5-0.8 1.1-0.8 1.9 0.2 3zm-12 15.3c1.6 1.6 1.8 1.6 3.5 0 1.5-1.5 1.5-1.9 0.2-3.3-0.8-0.9-1.8-1.6-2.1-1.5-0.4 0-1.3 0.7-2 1.5-1.2 1.4-1.1 1.9 0.4 3.3zm12-0.3c1 1.3 3.6 1.6 13.7 1.6 10.1 0 12.7-0.3 13.8-1.6 1-1.2 1-1.8 0-3-1.1-1.3-3.7-1.6-13.9-1.5-10.1 0-12.9 0.3-13.8 1.5-0.8 1.1-0.8 1.9 0.2 3zm-12 15.3c1.6 1.6 1.8 1.6 3.5 0 1.5-1.5 1.5-1.9 0.2-3.3-0.8-0.9-1.8-1.6-2.1-1.5-0.4 0-1.3 0.7-2 1.5-1.2 1.4-1.1 1.9 0.4 3.3zm12-0.3c0.8 1.1 2.8 1.6 6 1.5 4.6 0 4.7-0.1 4.7-3 0-2.9-0.1-3-4.9-3-3.2 0-5.3 0.5-6 1.5-0.8 1.1-0.8 1.9 0.2 3zm16.9 4.3l0.3 6.3 14.9-15.1c-10.6 0-13.6 0.5-14.3 1.2-0.6 0.8-1 4-0.9 7.6z"/>
</svg>