<svg width="22" height="18" viewBox="0 0 22 18" fill="none" xmlns="http://www.w3.org/2000/svg">
<path fill-rule="evenodd" clip-rule="evenodd" d="M17.5307 4.4695C17.3885 4.33702 17.2004 4.2649 17.0061 4.26833C16.8118 4.27176 16.6265 4.35047 16.489 4.48788C16.3516 4.6253 16.2729 4.81068 16.2695 5.00498C16.2661 5.19928 16.3382 5.38733 16.4707 5.52951L19.1897 8.24951H7.00066C6.80175 8.24951 6.61098 8.32852 6.47033 8.46918C6.32968 8.60983 6.25066 8.80059 6.25066 8.99951C6.25066 9.19842 6.32968 9.38918 6.47033 9.52983C6.61098 9.67049 6.80175 9.74951 7.00066 9.74951L19.1897 9.74951L16.4697 12.4695C16.3331 12.611 16.2576 12.8005 16.2594 12.9972C16.2612 13.1938 16.3402 13.3819 16.4793 13.5209C16.6184 13.6599 16.8066 13.7386 17.0032 13.7403C17.1999 13.7419 17.3893 13.6662 17.5307 13.5295L21.5307 9.5295C21.6711 9.38888 21.75 9.19826 21.75 8.99951C21.75 8.80075 21.6711 8.61013 21.5307 8.46951L17.5307 4.4695ZM13.5307 3.3395C13.6072 3.40387 13.6958 3.45229 13.7913 3.48191C13.8868 3.51154 13.9872 3.52177 14.0867 3.51201C14.1862 3.50224 14.2828 3.47268 14.3707 3.42506C14.4586 3.37744 14.5361 3.31273 14.5986 3.23472C14.6612 3.15671 14.7075 3.06699 14.7349 2.97082C14.7622 2.87465 14.7701 2.77399 14.758 2.67474C14.7459 2.57549 14.714 2.47967 14.6643 2.39291C14.6147 2.30614 14.5481 2.23018 14.4687 2.1695C13.1818 1.1392 11.6301 0.493388 9.99221 0.306448C8.35435 0.119508 6.697 0.39905 5.21107 1.11287C3.72514 1.8267 2.47108 2.94576 1.59336 4.34116C0.715635 5.73655 0.249952 7.35151 0.249952 9C0.249952 10.6485 0.715635 12.2635 1.59336 13.6589C2.47108 15.0543 3.72514 16.1733 5.21107 16.8871C6.697 17.601 8.35435 17.8805 9.99221 17.6936C11.6301 17.5066 13.1818 16.8608 14.4687 15.8305C14.6185 15.7044 14.7131 15.5247 14.7323 15.3298C14.7514 15.1349 14.6935 14.9403 14.571 14.7875C14.4485 14.6347 14.2711 14.5358 14.0767 14.5121C13.8823 14.4884 13.6863 14.5416 13.5307 14.6605C12.4644 15.514 11.1787 16.049 9.82162 16.2038C8.46459 16.3586 7.09143 16.1269 5.86032 15.5354C4.6292 14.9439 3.59021 14.0167 2.86301 12.8605C2.13582 11.7044 1.75 10.3663 1.75 9.00051C1.75 7.63467 2.13582 6.29662 2.86301 5.14047C3.59021 3.98431 4.6292 3.05709 5.86032 2.46561C7.09143 1.87412 8.46459 1.64243 9.82162 1.79721C11.1787 1.952 12.4644 2.48697 13.5307 3.34051V3.3395Z" fill="#28303F"/>
</svg>
