<svg version="1.2" xmlns="http://www.w3.org/2000/svg" viewBox="0 0 90 90" width="35" height="35">
	<title>file</title>
	<style>
		.s0 { fill: #1e2c4a } 
	</style>
	<path id="Path 0" class="s0" d="m13.5 11.2c-1.4 1.8-1.7 4.5-1.6 13 0.1 8.9 0.4 11.1 1.9 12.6 1.2 1.3 6.4 2.6 18.2 4.5 9.1 1.6 16.7 3 17 3.3 0.3 0.2 0.3 0.6 0 0.8-0.3 0.3-7.9 1.7-17 3.3-11.8 1.9-17 3.2-18.3 4.5-1.4 1.5-1.7 3.7-1.7 12.6 0 7.9 0.4 11.3 1.5 13 0.8 1.2 2.5 2.2 3.8 2.2 1.2 0 16.6-7.6 34.2-16.9 26.6-14.1 32-17.3 32-19.1 0-1.8-5.4-5-32-19.1-17.6-9.3-33-16.9-34.2-16.9-1.2 0-2.9 1-3.8 2.2z"/>
</svg>