<svg width="90" height="90" viewBox="0 0 90 90" fill="none" xmlns="http://www.w3.org/2000/svg">
<path d="M42 6C43.98 6 45.96 6 48 6C48.3403 7.20656 48.3403 7.20656 48.6875 8.4375C49.1206 9.28312 49.5538 10.1288 50 11C52.5478 11.8939 52.5478 11.8939 55 12C55.66 10.68 56.32 9.36 57 8C59.475 8.495 59.475 8.495 62 9C62.495 12.465 62.495 12.465 63 16C65.5661 16.8554 66.9348 17.014 69.625 16.4375C70.4087 16.2931 71.1925 16.1488 72 16C72.99 16.99 72.99 16.99 74 18C73.9414 19.9102 73.9414 19.9102 73.5625 22.0625C73.2841 24.0116 73.2841 24.0116 73 26C74.9682 27.9682 78.3481 27.6625 81 28C81.495 30.475 81.495 30.475 82 33C80.68 33.66 79.36 34.32 78 35C78.1061 37.4522 78.1061 37.4522 79 40C81.4764 41.3747 81.4764 41.3747 84 42C84 43.98 84 45.96 84 48C83.1956 48.2269 82.3913 48.4537 81.5625 48.6875C80.7169 49.1206 79.8712 49.5538 79 50C78.1061 52.5478 78.1061 52.5478 78 55C79.32 55.66 80.64 56.32 82 57C81.67 58.65 81.34 60.3 81 62C77.535 62.495 77.535 62.495 74 63C73.1446 65.5661 72.986 66.9348 73.5625 69.625C73.7791 70.8006 73.7791 70.8006 74 72C73.34 72.66 72.68 73.32 72 74C70.0898 73.9414 70.0898 73.9414 67.9375 73.5625C66.6381 73.3769 65.3388 73.1912 64 73C62.0318 74.9682 62.3375 78.3481 62 81C59.525 81.495 59.525 81.495 57 82C56.34 80.68 55.68 79.36 55 78C52.5478 78.1061 52.5478 78.1061 50 79C48.6253 81.4764 48.6253 81.4764 48 84C46.02 84 44.04 84 42 84C41.7731 83.1956 41.5463 82.3913 41.3125 81.5625C40.8794 80.7169 40.4462 79.8712 40 79C37.4522 78.1061 37.4522 78.1061 35 78C34.34 79.32 33.68 80.64 33 82C31.35 81.67 29.7 81.34 28 81C27.67 78.69 27.34 76.38 27 74C24.4339 73.1446 23.0652 72.986 20.375 73.5625C19.1994 73.7791 19.1994 73.7791 18 74C17.34 73.34 16.68 72.68 16 72C16.0586 70.0898 16.0586 70.0898 16.4375 67.9375C16.7159 65.9884 16.7159 65.9884 17 64C15.0318 62.0318 11.6519 62.3375 9 62C8.67 60.35 8.34 58.7 8 57C9.32 56.34 10.64 55.68 12 55C11.8939 52.5478 11.8939 52.5478 11 50C8.52364 48.6253 8.52364 48.6253 6 48C6 46.02 6 44.04 6 42C6.80437 41.7731 7.60875 41.5463 8.4375 41.3125C9.28312 40.8794 10.1288 40.4462 11 40C11.8939 37.4522 11.8939 37.4522 12 35C10.68 34.34 9.36 33.68 8 33C8.33 31.35 8.66 29.7 9 28C12.465 27.505 12.465 27.505 16 27C16.8554 24.4339 17.014 23.0652 16.4375 20.375C16.2931 19.5913 16.1488 18.8075 16 18C16.66 17.34 17.32 16.68 18 16C19.9102 16.0586 19.9102 16.0586 22.0625 16.4375C23.3619 16.6231 24.6612 16.8088 26 17C27.9682 15.0318 27.6625 11.6519 28 9C29.65 8.67 31.3 8.34 33 8C33.66 9.32 34.32 10.64 35 12C37.4522 11.8939 37.4522 11.8939 40 11C41.3747 8.52364 41.3747 8.52364 42 6ZM31 26C28.5404 28.5681 28.5404 28.5681 27 31C33.1641 34.9387 33.1641 34.9387 40.125 35.5C43.1861 31.4185 42.3761 26.9231 42 22C37.6992 22 34.6028 23.731 31 26ZM48 22C48 25.63 48 29.26 48 33C50.4595 35.0259 50.4595 35.0259 54 36C57.2812 34.7516 60.107 32.9737 63 31C59.3976 26.0876 56.7975 23.9325 51 22C50.01 22 49.02 22 48 22ZM23 37C21.6346 39.7308 21.8677 41.9556 21.875 45C21.8724 46.0725 21.8698 47.145 21.8672 48.25C21.8128 50.9618 21.8128 50.9618 23 53C28.2938 51.0353 28.2938 51.0353 33 48C34.0842 45.089 34.0842 45.089 33 42C30.1651 39.5426 26.8527 37 23 37ZM57 42C55.6667 45 55.6667 45 57 48C59.8554 50.4457 63.1361 53 67 53C68.3654 50.2692 68.1323 48.0444 68.125 45C68.1276 43.9275 68.1302 42.855 68.1328 41.75C68.1872 39.0382 68.1872 39.0382 67 37C63.1361 37 59.8554 39.5543 57 42ZM43 41C42.34 41.66 41.68 42.32 41 43C41.3204 45.6028 41.3204 45.6028 42 48C44.3972 48.6796 44.3972 48.6796 47 49C47.66 48.34 48.32 47.68 49 47C48.6796 44.3972 48.6796 44.3972 48 42C45.6028 41.3204 45.6028 41.3204 43 41ZM49.875 54.5C46.8139 58.5815 47.6239 63.0769 48 68C53.0125 67.5226 56.0321 66.0861 60 63C61.0285 61.6886 62.0345 60.3585 63 59C56.8359 55.0613 56.8359 55.0613 49.875 54.5ZM33.5977 54.9141C31.3321 56.1954 29.1498 57.5334 27 59C30.6024 63.9124 33.2025 66.0675 39 68C39.99 68 40.98 68 42 68C42 64.37 42 60.74 42 57C39.0242 54.7872 37.2116 53.539 33.5977 54.9141Z" fill="#1D2B49"/>
</svg>
