<svg width="27.654" height="35" viewBox="0 0 27.654 35" fill="none" xmlns="http://www.w3.org/2000/svg"><path d="m3.602 0.32 1.459 -0.008 1.582 0.005L8.261 0.315q2.13 0 4.261 0.007 1.308 0.002 2.615 -0.003C16.807 0.314 18.477 0.315 20.146 0.317l1.582 -0.005 1.459 0.009 1.289 0.002C25.494 0.432 25.494 0.432 26.358 1.296c0.153 1.022 0.153 1.022 0.215 2.322l0.072 1.475c0.068 1.955 0.127 3.91 0.165 5.866 0.029 1.479 0.071 2.955 0.15 4.432 0.56 10.712 0.56 10.712 -2.796 14.899 -2.838 2.93 -5.619 4.416 -9.713 4.593 -1.575 -0.011 -3.131 -0.118 -4.701 -0.235q-1.219 -0.045 -2.438 -0.079C1.52 34.359 1.52 34.359 0.432 33.271c-0.11 -1.312 -0.11 -1.312 -0.112 -3.019l-0.004 -0.941a472.278 472.278 0 0 1 0.001 -3.088L0.315 24.082q-0.002 -2.245 0.004 -4.489c0.005 -1.921 0.002 -3.842 -0.003 -5.763q-0.004 -2.211 0 -4.422 0.001 -1.063 -0.002 -2.125c-0.002 -0.989 0.001 -1.978 0.006 -2.967l0.002 -1.708C0.516 0.296 1.555 0.324 3.602 0.32M9.938 6.05v1.728c1.118 0.559 1.936 0.488 3.187 0.489l1.397 0.002L15.987 8.264l1.465 0.005 1.398 -0.002 1.286 -0.001c1.042 0.013 1.042 0.013 1.9 -0.488v-1.728c-1.118 -0.559 -1.936 -0.488 -3.187 -0.49l-1.397 -0.002 -1.465 0.005 -1.465 -0.005 -1.398 0.002 -1.286 0.002c-1.042 -0.013 -1.042 -0.013 -1.9 0.488m-5.185 0v1.728h1.728v-1.728zm5.185 6.481v1.728c1.118 0.559 1.936 0.488 3.187 0.489l1.397 0.002L15.987 14.745l1.465 0.005 1.398 -0.002 1.286 -0.002c1.042 0.013 1.042 0.013 1.9 -0.488v-1.728c-1.118 -0.559 -1.936 -0.488 -3.187 -0.49l-1.397 -0.002 -1.465 0.005 -1.465 -0.005 -1.398 0.002 -1.286 0.002c-1.042 -0.013 -1.042 -0.013 -1.9 0.488m-5.185 0v1.728h1.728v-1.728zm5.185 6.481v1.728c1.118 0.559 1.936 0.488 3.187 0.489l1.397 0.002L15.987 21.227l1.465 0.005 1.398 -0.002 1.286 -0.002c1.042 0.013 1.042 0.013 1.9 -0.488v-1.728c-1.118 -0.559 -1.936 -0.488 -3.187 -0.49l-1.397 -0.002 -1.465 0.005 -1.465 -0.005 -1.398 0.002 -1.286 0.002c-1.042 -0.013 -1.042 -0.013 -1.9 0.488m-5.185 0v1.728h1.728v-1.728zm5.185 6.481v1.728c1.04 0.519 1.707 0.475 2.863 0.459l1.07 -0.012L14.691 27.654v-2.593a252.775 252.775 0 0 0 -1.89 -0.027l-1.063 -0.016C10.781 24.999 10.781 24.999 9.938 25.494m7.845 0.067c-0.7 1.117 -0.627 1.948 -0.58 3.255l0.035 1.301L17.284 31.111c2.115 -1.769 4.194 -3.57 6.049 -5.617v-0.432a123.147 123.147 0 0 0 -2.295 -0.081l-1.292 -0.046c-1.156 0.04 -1.156 0.04 -1.963 0.627M4.753 25.494v1.728h1.728v-1.728z" fill="#1D2B4A"/></svg>