<svg width="25" height="25" viewBox="0 0 25 25" fill="none" xmlns="http://www.w3.org/2000/svg">
<g clip-path="url(#clip0_9_1285)">
<path fill-rule="evenodd" clip-rule="evenodd" d="M23.3333 20.8333V16.6667H24.05C24.302 16.6667 24.5436 16.5666 24.7218 16.3884C24.8999 16.2102 25 15.9686 25 15.7167V9.28332C25 9.03137 24.8999 8.78973 24.7218 8.61157C24.5436 8.43341 24.302 8.33332 24.05 8.33332H23.3333V4.16666C23.3333 3.50362 23.0699 2.86773 22.6011 2.39889C22.1323 1.93005 21.4964 1.66666 20.8333 1.66666H2.5C1.83696 1.66666 1.20107 1.93005 0.732233 2.39889C0.263392 2.86773 0 3.50362 0 4.16666L0 20.8333C0 21.4964 0.263392 22.1322 0.732233 22.6011C1.20107 23.0699 1.83696 23.3333 2.5 23.3333H20.8333C21.4964 23.3333 22.1323 23.0699 22.6011 22.6011C23.0699 22.1322 23.3333 21.4964 23.3333 20.8333ZM23.3333 9.99999V15H15.8333C15.1703 15 14.5344 14.7366 14.0656 14.2678C13.5967 13.7989 13.3333 13.163 13.3333 12.5C13.3333 11.8369 13.5967 11.2011 14.0656 10.7322C14.5344 10.2634 15.1703 9.99999 15.8333 9.99999H23.3333Z" fill="#66A2AF"/>
</g>
<defs>
<clipPath id="clip0_9_1285">
<rect width="25" height="25" fill="white"/>
</clipPath>
</defs>
</svg>
