<svg width="20" height="20" viewBox="0 0 20 20" fill="none" xmlns="http://www.w3.org/2000/svg">
<path fill-rule="evenodd" clip-rule="evenodd" d="M20 10C20 11.9778 19.4135 13.9112 18.3147 15.5557C17.2159 17.2002 15.6541 18.4819 13.8268 19.2388C11.9996 19.9957 9.98891 20.1937 8.0491 19.8079C6.10929 19.422 4.32746 18.4696 2.92894 17.0711C1.53041 15.6725 0.578004 13.8907 0.192152 11.9509C-0.193701 10.0111 0.00433284 8.00043 0.761209 6.17317C1.51809 4.3459 2.79981 2.78412 4.4443 1.6853C6.08879 0.58649 8.02219 0 10 0C12.6522 0 15.1957 1.05357 17.0711 2.92893C18.9464 4.8043 20 7.34784 20 10ZM9 15C9 14.8022 9.05865 14.6089 9.16854 14.4444C9.27842 14.28 9.4346 14.1518 9.61732 14.0761C9.80005 14.0004 10.0011 13.9806 10.1951 14.0192C10.3891 14.0578 10.5673 14.153 10.7071 14.2929C10.847 14.4327 10.9422 14.6109 10.9808 14.8049C11.0194 14.9989 10.9996 15.2 10.9239 15.3827C10.8482 15.5654 10.72 15.7216 10.5556 15.8315C10.3911 15.9414 10.1978 16 10 16C9.73479 16 9.48043 15.8946 9.2929 15.7071C9.10536 15.5196 9 15.2652 9 15ZM9.25 12C9.25 12.1989 9.32902 12.3897 9.46968 12.5303C9.61033 12.671 9.80109 12.75 10 12.75C10.1989 12.75 10.3897 12.671 10.5303 12.5303C10.671 12.3897 10.75 12.1989 10.75 12V5C10.75 4.80109 10.671 4.61032 10.5303 4.46967C10.3897 4.32902 10.1989 4.25 10 4.25C9.80109 4.25 9.61033 4.32902 9.46968 4.46967C9.32902 4.61032 9.25 4.80109 9.25 5V12Z" fill="#28303F"/>
</svg>
