<svg width="24" height="24" viewBox="0 0 24 24" fill="none" xmlns="http://www.w3.org/2000/svg">
<path d="M20.5 23.3L16.95 19.75L15.75 21H8.24995L2.99995 15.7V8.25L4.19995 7.05L0.699951 3.5L2.09995 2.1L21.9 21.9L20.5 23.3ZM19.7999 16.95L13 10.2V7H11V8.2L7.04995 4.2L8.24995 3H15.75L21 8.25V15.7L19.7999 16.95ZM12 17C12.2833 17 12.521 16.904 12.713 16.712C12.9043 16.5207 13 16.2833 13 16V15.85L12.15 15H12C11.7166 15 11.4793 15.0957 11.288 15.287C11.096 15.479 11 15.7167 11 16C11 16.2833 11.096 16.5207 11.288 16.712C11.4793 16.904 11.7166 17 12 17Z" fill="#34607B"/>
</svg>
